<?xml version="1.0" encoding="utf-8"?>
<!-- Generator: Adobe Illustrator 22.0.0, SVG Export Plug-In . SVG Version: 6.00 Build 0)  -->
<svg version="1.1" id="Layer_4" xmlns="http://www.w3.org/2000/svg" xmlns:xlink="http://www.w3.org/1999/xlink" x="0px" y="0px"
	 viewBox="0 0 106.7 107.8" style="enable-background:new 0 0 106.7 107.8;" xml:space="preserve">
<style type="text/css">
	.st0{fill:none;}
	.st1{clip-path:url(#SVGID_2_);fill:none;stroke:#FFEA00;stroke-width:5;stroke-linecap:round;stroke-dasharray:0,6.5;}
	.st2{clip-path:url(#SVGID_2_);fill:none;stroke:#FFEA00;stroke-width:4.694;stroke-linecap:round;stroke-dasharray:0,6.5;}
	.st3{clip-path:url(#SVGID_2_);fill:none;stroke:#FFEA00;stroke-width:4.388;stroke-linecap:round;stroke-dasharray:0,6.5;}
	.st4{clip-path:url(#SVGID_2_);fill:none;stroke:#FFEA00;stroke-width:4.083;stroke-linecap:round;stroke-dasharray:0,6.5;}
	.st5{clip-path:url(#SVGID_2_);fill:none;stroke:#FFEA00;stroke-width:3.777;stroke-linecap:round;stroke-dasharray:0,6.5;}
	.st6{clip-path:url(#SVGID_2_);fill:none;stroke:#FFEA00;stroke-width:3.472;stroke-linecap:round;stroke-dasharray:0,6.5;}
	.st7{clip-path:url(#SVGID_2_);fill:none;stroke:#FFEA00;stroke-width:3.166;stroke-linecap:round;stroke-dasharray:0,6.5;}
	.st8{clip-path:url(#SVGID_2_);fill:none;stroke:#FFEA00;stroke-width:2.861;stroke-linecap:round;stroke-dasharray:0,6.5;}
	.st9{clip-path:url(#SVGID_2_);fill:none;stroke:#FFEA00;stroke-width:2.555;stroke-linecap:round;stroke-dasharray:0,6.5;}
	.st10{clip-path:url(#SVGID_2_);fill:none;stroke:#FFEA00;stroke-width:2.25;stroke-linecap:round;stroke-dasharray:0,6.5;}
	.st11{clip-path:url(#SVGID_4_);fill:none;stroke:#5BA9DD;}
	.st12{clip-path:url(#SVGID_6_);fill:none;stroke:#EA504C;stroke-width:0.75;}
	.st13{fill:url(#SVGID_7_);}
	.st14{fill:url(#SVGID_8_);}
	.st15{fill:url(#SVGID_9_);}
</style>
<pattern  x="-406.9" y="-248.7" width="83" height="65" patternUnits="userSpaceOnUse" id="Unnamed_Pattern" viewBox="2.5 -70.6 83 65" style="overflow:visible;">
	<g>
		<rect x="2.5" y="-70.6" class="st0" width="83" height="65"/>
		<g>
			<defs>
				<rect id="SVGID_1_" x="2.5" y="-70.6" width="83" height="65"/>
			</defs>
			<clipPath id="SVGID_2_">
				<use xlink:href="#SVGID_1_"  style="overflow:visible;"/>
			</clipPath>
			<line class="st1" x1="2.5" y1="-5.6" x2="2.5" y2="-71.1"/>
			<line class="st2" x1="7.1" y1="-2.3" x2="7.1" y2="-71.1"/>
			<line class="st3" x1="11.7" y1="-5.6" x2="11.7" y2="-71.1"/>
			<line class="st4" x1="16.3" y1="-2.3" x2="16.3" y2="-71.1"/>
			<line class="st5" x1="20.9" y1="-5.6" x2="20.9" y2="-71.1"/>
			<line class="st6" x1="25.6" y1="-2.3" x2="25.6" y2="-71.1"/>
			<line class="st7" x1="30.2" y1="-5.6" x2="30.2" y2="-71.1"/>
			<line class="st8" x1="34.8" y1="-2.3" x2="34.8" y2="-71.1"/>
			<line class="st9" x1="39.4" y1="-5.6" x2="39.4" y2="-71.1"/>
			<line class="st10" x1="44" y1="-2.3" x2="44" y2="-71.1"/>
			<line class="st1" x1="85.5" y1="-5.6" x2="85.5" y2="-71.1"/>
			<line class="st2" x1="80.9" y1="-2.3" x2="80.9" y2="-71.1"/>
			<line class="st3" x1="76.3" y1="-5.6" x2="76.3" y2="-71.1"/>
			<line class="st4" x1="71.7" y1="-2.3" x2="71.7" y2="-71.1"/>
			<line class="st5" x1="67.1" y1="-5.6" x2="67.1" y2="-71.1"/>
			<line class="st6" x1="62.4" y1="-2.3" x2="62.4" y2="-71.1"/>
			<line class="st7" x1="57.8" y1="-5.6" x2="57.8" y2="-71.1"/>
			<line class="st8" x1="53.2" y1="-2.3" x2="53.2" y2="-71.1"/>
			<line class="st9" x1="48.6" y1="-5.6" x2="48.6" y2="-71.1"/>
		</g>
	</g>
</pattern>
<pattern  x="-406.9" y="-248.7" width="57.6" height="57.6" patternUnits="userSpaceOnUse" id="Unnamed_Pattern_5" viewBox="3.5 -61.1 57.6 57.6" style="overflow:visible;">
	<g>
		<rect x="3.5" y="-61.1" class="st0" width="57.6" height="57.6"/>
		<g>
			<defs>
				<rect id="SVGID_3_" x="3.5" y="-61.1" width="57.6" height="57.6"/>
			</defs>
			<clipPath id="SVGID_4_">
				<use xlink:href="#SVGID_3_"  style="overflow:visible;"/>
			</clipPath>
			<line class="st11" x1="29.3" y1="-35.3" x2="27.1" y2="-39"/>
			<line class="st11" x1="26.8" y1="-28.5" x2="28.5" y2="-31.7"/>
			<line class="st11" x1="25.3" y1="-30.9" x2="25.5" y2="-35.7"/>
			<line class="st11" x1="34.3" y1="-47.7" x2="35.1" y2="-51.9"/>
			<line class="st11" x1="21" y1="-42.2" x2="20.2" y2="-46.4"/>
			<line class="st11" x1="13.4" y1="-42.7" x2="16.7" y2="-45.4"/>
			<line class="st11" x1="2.1" y1="-40.1" x2="5.4" y2="-42.8"/>
			<line class="st11" x1="21" y1="-37" x2="24.3" y2="-39.7"/>
			<line class="st11" x1="25.2" y1="-46.9" x2="23.7" y2="-42.9"/>
			<line class="st11" x1="13" y1="-45.6" x2="8.8" y2="-49.1"/>
			<line class="st11" x1="18.6" y1="-34.8" x2="22.8" y2="-33.7"/>
			<line class="st11" x1="27.3" y1="-54.4" x2="30.8" y2="-51.9"/>
			<line class="st11" x1="18.6" y1="-56.3" x2="20.8" y2="-52.7"/>
			<line class="st11" x1="37.3" y1="-37.7" x2="39" y2="-41.6"/>
			<line class="st11" x1="45.3" y1="-28.4" x2="44.7" y2="-34.1"/>
			<line class="st11" x1="34.1" y1="-42.4" x2="32" y2="-46.2"/>
			<line class="st11" x1="43.2" y1="-42.3" x2="39.9" y2="-45"/>
			<line class="st11" x1="42.1" y1="-55.6" x2="45.4" y2="-58.3"/>
			<line class="st11" x1="40.4" y1="-36" x2="43.7" y2="-38.7"/>
			<line class="st11" x1="33.6" y1="-38.1" x2="35.1" y2="-34.1"/>
			<line class="st11" x1="37.8" y1="-34" x2="41.4" y2="-31.8"/>
			<line class="st11" x1="13.5" y1="-51.5" x2="16" y2="-48"/>
			<line class="st11" x1="44.5" y1="-23.9" x2="42.1" y2="-27.5"/>
			<line class="st11" x1="17.5" y1="-41.4" x2="15.8" y2="-36.2"/>
			<line class="st11" x1="16.7" y1="-20.7" x2="19.4" y2="-17.4"/>
			<line class="st11" x1="38.2" y1="-25.4" x2="37.8" y2="-30.9"/>
			<line class="st11" x1="25" y1="-26.9" x2="26.9" y2="-22.3"/>
			<line class="st11" x1="29.2" y1="-45.6" x2="27.8" y2="-49.6"/>
			<line class="st11" x1="35.2" y1="-45.2" x2="38.5" y2="-47.9"/>
			<line class="st11" x1="19.9" y1="-25.5" x2="22.5" y2="-30.1"/>
			<line class="st11" x1="28.7" y1="-58.7" x2="32.3" y2="-56.4"/>
			<line class="st11" x1="18.5" y1="-32.5" x2="14.4" y2="-31.4"/>
			<line class="st11" x1="17.9" y1="-23.9" x2="16.3" y2="-26.9"/>
			<line class="st11" x1="49.3" y1="-9.4" x2="49.5" y2="-14.5"/>
			<line class="st11" x1="34" y1="-6.9" x2="37.3" y2="-9.6"/>
			<line class="st11" x1="28.8" y1="-8.9" x2="24.5" y2="-11.9"/>
			<line class="st11" x1="17.3" y1="-5.8" x2="21" y2="-8.4"/>
			<line class="st11" x1="31.4" y1="-20.1" x2="33.5" y2="-23.7"/>
			<line class="st11" x1="33.5" y1="-12.6" x2="33" y2="-16"/>
			<line class="st11" x1="36.8" y1="-12.2" x2="40.8" y2="-13.9"/>
			<line class="st11" x1="29" y1="-13.3" x2="31.2" y2="-9.7"/>
			<line class="st11" x1="51.8" y1="-24.6" x2="47.9" y2="-28"/>
			<line class="st11" x1="21.3" y1="-23.1" x2="23.2" y2="-18.2"/>
			<line class="st11" x1="20.2" y1="-12.1" x2="23.2" y2="-15.1"/>
			<line class="st11" x1="45.7" y1="-8.3" x2="43.5" y2="-12.1"/>
			<line class="st11" x1="48" y1="-18.6" x2="48.1" y2="-22.9"/>
			<line class="st11" x1="44.1" y1="-15.9" x2="48.4" y2="-16.1"/>
			<line class="st11" x1="29.4" y1="-16.5" x2="26.1" y2="-19.2"/>
			<line class="st11" x1="48.8" y1="-34.2" x2="47.1" y2="-38.2"/>
			<line class="st11" x1="53.6" y1="-42.1" x2="54.3" y2="-46.3"/>
			<line class="st11" x1="54.2" y1="-37.1" x2="55.8" y2="-41.1"/>
			<line class="st11" x1="54.3" y1="-50.2" x2="51" y2="-53"/>
			<line class="st11" x1="56.1" y1="-53.8" x2="58.3" y2="-50.1"/>
			<line class="st11" x1="47" y1="-48.8" x2="48" y2="-53.9"/>
			<line class="st11" x1="58.1" y1="-26.9" x2="53.9" y2="-26.6"/>
			<line class="st11" x1="59.9" y1="-43.8" x2="56.6" y2="-46.5"/>
			<line class="st11" x1="51.2" y1="-40" x2="49.4" y2="-43.9"/>
			<line class="st11" x1="57" y1="-29.7" x2="60.1" y2="-32.6"/>
			<line class="st11" x1="11.3" y1="-8.9" x2="8.6" y2="-11.9"/>
			<line class="st11" x1="17.5" y1="-13.8" x2="14.2" y2="-16.5"/>
			<line class="st11" x1="14.7" y1="-6.1" x2="15.9" y2="-10.2"/>
			<line class="st11" x1="51.3" y1="-34.3" x2="55.5" y2="-34.8"/>
			<line class="st11" x1="10.3" y1="-51.4" x2="8.6" y2="-55.3"/>
			<line class="st11" x1="11.8" y1="-56.5" x2="8.5" y2="-59.2"/>
			<line class="st11" x1="9.7" y1="-33.5" x2="12.9" y2="-36.2"/>
			<line class="st11" x1="52.5" y1="-10.7" x2="56.1" y2="-8.4"/>
			<line class="st11" x1="53.7" y1="-13.2" x2="52.3" y2="-17.2"/>
			<line class="st11" x1="2.9" y1="-49.8" x2="6.2" y2="-52.5"/>
			<line class="st11" x1="0.1" y1="-35.7" x2="4.2" y2="-34.5"/>
			<line class="st11" x1="2.4" y1="-25" x2="4.5" y2="-28.6"/>
			<line class="st11" x1="4" y1="-18" x2="8.2" y2="-17"/>
			<line class="st11" x1="6" y1="-32.5" x2="8.2" y2="-28.8"/>
			<line class="st11" x1="9.1" y1="-21.9" x2="5.8" y2="-24.6"/>
			<line class="st11" x1="10.9" y1="-18.5" x2="13" y2="-22.1"/>
			<line class="st11" x1="9.3" y1="-24.6" x2="12" y2="-29.2"/>
			<line class="st11" x1="7.5" y1="-35.9" x2="6.7" y2="-40.1"/>
			<line class="st11" x1="13" y1="-39.1" x2="9" y2="-42.2"/>
			<line class="st11" x1="15" y1="-53.5" x2="15.3" y2="-57.7"/>
			<line class="st11" x1="4.9" y1="-55.1" x2="1.6" y2="-57.9"/>
			<line class="st11" x1="38.3" y1="-16.1" x2="34.3" y2="-19.4"/>
			<line class="st11" x1="40.9" y1="-16.8" x2="43.1" y2="-20.5"/>
			<line class="st11" x1="36.8" y1="-21.1" x2="40.7" y2="-23"/>
			<line class="st11" x1="32" y1="-40.4" x2="28.7" y2="-43.1"/>
			<line class="st11" x1="23.7" y1="-48.2" x2="19.7" y2="-49.8"/>
			<line class="st11" x1="23.5" y1="-53.6" x2="25.5" y2="-57.9"/>
			<line class="st11" x1="39.8" y1="-50.9" x2="43.8" y2="-52.4"/>
			<line class="st11" x1="40.5" y1="-6.6" x2="40.1" y2="-11"/>
			<line class="st11" x1="44.4" y1="-45.2" x2="43.3" y2="-49.3"/>
			<line class="st11" x1="39.7" y1="-53.2" x2="35.6" y2="-54.5"/>
			<line class="st11" x1="36" y1="-27.1" x2="32.2" y2="-31.3"/>
			<line class="st11" x1="53.5" y1="-54.9" x2="55.2" y2="-58.8"/>
			<line class="st11" x1="59.7" y1="-40.1" x2="63" y2="-42.8"/>
			<line class="st11" x1="60.5" y1="-49.8" x2="63.8" y2="-52.5"/>
			<line class="st11" x1="57.7" y1="-35.7" x2="61.8" y2="-34.5"/>
			<line class="st11" x1="60" y1="-25" x2="62.1" y2="-28.6"/>
			<line class="st11" x1="62.5" y1="-55.1" x2="59.2" y2="-57.9"/>
			<line class="st11" x1="54.7" y1="-18.1" x2="56.4" y2="-22"/>
			<line class="st11" x1="63.8" y1="-46.5" x2="59.7" y2="-47.4"/>
			<line class="st11" x1="6.2" y1="-46.5" x2="2.1" y2="-47.4"/>
			<line class="st11" x1="54.4" y1="-29.7" x2="49.3" y2="-30.9"/>
			<line class="st11" x1="9.6" y1="-14.8" x2="13.1" y2="-12.3"/>
			<line class="st11" x1="48.6" y1="-46" x2="51.6" y2="-49"/>
			<line class="st11" x1="56.6" y1="-12.2" x2="58.6" y2="-16"/>
			<line class="st11" x1="5" y1="-21.5" x2="0.7" y2="-21.1"/>
			<line class="st11" x1="62.6" y1="-21.5" x2="58.3" y2="-21.1"/>
			<line class="st11" x1="29.9" y1="-23.4" x2="31" y2="-28.4"/>
			<line class="st11" x1="45.7" y1="-40" x2="46.5" y2="-44.1"/>
			<line class="st11" x1="50.7" y1="-21.5" x2="54.5" y2="-23.6"/>
			<line class="st11" x1="38.5" y1="-57.9" x2="35.5" y2="-56.9"/>
			<line class="st11" x1="24.2" y1="-5.4" x2="23.7" y2="-9.6"/>
			<line class="st11" x1="5.5" y1="-9.1" x2="6.5" y2="-14.4"/>
			<line class="st11" x1="59.8" y1="-11.6" x2="61.3" y2="-7.6"/>
			<line class="st11" x1="2.2" y1="-11.6" x2="3.7" y2="-7.6"/>
			<line class="st11" x1="51.3" y1="-56.3" x2="49.5" y2="-60.1"/>
			<line class="st11" x1="47.9" y1="-63.3" x2="44.2" y2="-61.1"/>
			<line class="st11" x1="33" y1="-58.7" x2="31.2" y2="-64.2"/>
			<line class="st11" x1="25" y1="-60" x2="28" y2="-64.2"/>
			<line class="st11" x1="54.5" y1="-60.9" x2="51.2" y2="-63.6"/>
			<line class="st11" x1="12.1" y1="-59.4" x2="11.1" y2="-63.5"/>
			<line class="st11" x1="18.5" y1="-59.1" x2="15.3" y2="-61.5"/>
			<line class="st11" x1="5.1" y1="-58.9" x2="5.9" y2="-63.1"/>
			<line class="st11" x1="57.5" y1="-63.9" x2="59.7" y2="-60.3"/>
			<line class="st11" x1="37.5" y1="-64.2" x2="37.5" y2="-61"/>
			<line class="st11" x1="20.4" y1="-57.7" x2="21.1" y2="-61.9"/>
			<line class="st11" x1="40.7" y1="-59.3" x2="42.5" y2="-62.6"/>
			<line class="st11" x1="47.9" y1="-5.7" x2="44.2" y2="-3.5"/>
			<line class="st11" x1="33" y1="-1.1" x2="31.2" y2="-6.6"/>
			<line class="st11" x1="25" y1="-2.4" x2="28" y2="-6.6"/>
			<line class="st11" x1="54.5" y1="-3.3" x2="51.2" y2="-6"/>
			<line class="st11" x1="12.1" y1="-1.8" x2="11.1" y2="-5.9"/>
			<line class="st11" x1="18.5" y1="-1.5" x2="15.3" y2="-3.9"/>
			<line class="st11" x1="5.1" y1="-1.4" x2="5.9" y2="-5.5"/>
			<line class="st11" x1="57.5" y1="-6.3" x2="59.7" y2="-2.7"/>
			<line class="st11" x1="37.5" y1="-6.6" x2="37.5" y2="-3.4"/>
			<line class="st11" x1="20.4" y1="-0.1" x2="21.1" y2="-4.3"/>
			<line class="st11" x1="40.7" y1="-1.7" x2="42.5" y2="-5"/>
		</g>
	</g>
</pattern>
<pattern  x="-406.9" y="-248.7" width="72" height="72" patternUnits="userSpaceOnUse" id="Unnamed_Pattern_6" viewBox="10.1 -84.2 72 72" style="overflow:visible;">
	<g>
		<rect x="10.1" y="-84.2" class="st0" width="72" height="72"/>
		<g>
			<defs>
				<rect id="SVGID_5_" x="10.1" y="-84.2" width="72" height="72"/>
			</defs>
			<clipPath id="SVGID_6_">
				<use xlink:href="#SVGID_5_"  style="overflow:visible;"/>
			</clipPath>
			<path class="st12" d="M23.4-27.7c0,0,3.8,1.7,4.5-2.1c0.7-3.8,2.6-3.5,4.8-2.2c2.2,1.3,4.6,0.7,5.1-2.4"/>
			<path class="st12" d="M76.1-40.9c0,0-2.6-3.3-5-0.2c-2.4,3.1-3.9,1.9-5.3-0.2c-1.4-2.1-3.7-2.7-5.7-0.2"/>
			<path class="st12" d="M49.1-41.3c0,0-3.8,1.7-1.5,4.7c2.4,3.1,0.9,4.3-1.6,5.1c-2.4,0.8-3.6,2.9-1.7,5.4"/>
			<path class="st12" d="M51.2-37c0,0,4.1,0.9,2.4,4.4c-1.7,3.5,0,4.4,2.5,4.7c2.5,0.3,4.1,2.1,2.7,5"/>
			<path class="st12" d="M65.2-27.1c0,0,4.1,0.9,2.4,4.4c-1.7,3.5,0,4.4,2.5,4.7c2.5,0.3,4.1,2.1,2.7,5"/>
			<path class="st12" d="M37.5-46.4c0,0,3.7,2,1.1,4.8c-2.6,2.9-1.2,4.2,1.1,5.2c2.4,1,3.4,3.2,1.2,5.5"/>
			<path class="st12" d="M20.5-35.1c0,0,1.3-4-2.6-4.2c-3.9-0.3-3.8-2.2-2.8-4.5c1-2.3,0.2-4.6-2.9-4.8"/>
			<path class="st12" d="M17.6-53.4c0,0-2,3.6,1.7,4.6c3.8,1,3.3,2.9,1.8,5c-1.4,2.1-1.1,4.5,2,5.3"/>
			<path class="st12" d="M30.5-29.2c0,0,1.3,3.9,4.6,1.8c3.3-2.1,4.3-0.5,4.9,2c0.6,2.5,2.6,3.8,5.3,2.1"/>
			<path class="st12" d="M22.4-56.7c0,0-1.8,3.8,2,4.5c3.8,0.7,3.5,2.6,2.2,4.8c-1.3,2.2-0.8,4.6,2.3,5.2"/>
			<path class="st12" d="M34.1-50.9c0,0-3.4,2.4-0.5,4.9c2.9,2.6,1.7,4-0.5,5.3c-2.2,1.3-3,3.5-0.6,5.6"/>
			<path class="st12" d="M21.1-71.8c0,0,0.3,4.2,4,2.9c3.7-1.2,4.3,0.6,4.3,3.1c-0.1,2.6,1.6,4.4,4.6,3.4"/>
			<path class="st12" d="M39.6-65.1c0,0-0.4-4.2-4-2.9c-3.7,1.3-4.3-0.5-4.3-3.1c0-2.6-1.6-4.3-4.6-3.3"/>
			<path class="st12" d="M29.8-39.5c0,0-4.2-0.2-3.4,3.6s-1.1,4.2-3.6,3.9c-2.5-0.3-4.5,1-3.9,4.1"/>
			<path class="st12" d="M42.8-40.2c0,0-1.5-3.9,2.4-4.4c3.9-0.5,3.7-2.4,2.5-4.7c-1.1-2.3-0.4-4.6,2.7-5"/>
			<path class="st12" d="M13.4-57.9c0,0,1.9-3.7,4.8-1.1c2.9,2.6,4.2,1.2,5.2-1.2c1-2.4,3.1-3.4,5.5-1.3"/>
			<path class="st12" d="M61.1-23.6c0,0-1.9,3.7,1.9,4.6c3.8,0.8,3.4,2.7,2.1,4.9c-1.3,2.2-0.9,4.5,2.2,5.2"/>
			<path class="st12" d="M61.1-95.6c0,0-1.9,3.7,1.9,4.6c3.8,0.8,3.4,2.7,2.1,4.9c-1.3,2.2-0.9,4.5,2.2,5.2"/>
			<path class="st12" d="M74.7-22.2c0,0,2.5-3.4-1.1-4.8c-3.6-1.5-2.9-3.3-1.2-5.2c1.7-1.9,1.6-4.3-1.3-5.5"/>
			<path class="st12" d="M70-26.5c0,0-4.1-0.8-2.4-4.3c1.7-3.5,0-4.4-2.6-4.6c-2.5-0.3-4.1-2.1-2.7-5"/>
			<path class="st12" d="M27.2-12.9c0,0,4.2-0.2,3-3.9c-1.1-3.7,0.7-4.3,3.3-4.2c2.5,0.1,4.4-1.4,3.5-4.5"/>
			<path class="st12" d="M49.5-27.9c0,0-4.1,1-2.2,4.4c1.8,3.4,0.1,4.4-2.4,4.7c-2.5,0.4-4,2.3-2.6,5.1"/>
			<path class="st12" d="M28.1-20.1c0,0-4,1.3-4.2-2.6c-0.2-3.9-2.2-3.8-4.5-2.8c-2.3,1-4.6,0.2-4.8-3"/>
			<path class="st12" d="M18.5-76.3c0,0,1-4.1-2.9-4c-3.9,0.1-3.9-1.9-3.1-4.3c0.8-2.4-0.2-4.6-3.3-4.6"/>
			<path class="st12" d="M18.5-4.3c0,0,1-4.1-2.9-4c-3.9,0.1-3.9-1.9-3.1-4.3c0.8-2.4-0.2-4.6-3.3-4.6"/>
			<path class="st12" d="M80.4-45.7c0,0-2.3-3.5-4.9-0.7c-2.6,2.8-4.1,1.6-5.3-0.7c-1.2-2.3-3.5-3.1-5.6-0.7"/>
			<path class="st12" d="M60.5-13.8c0,0,1-4.1-2.9-4c-3.9,0.1-3.9-1.9-3.1-4.3c0.8-2.4-0.2-4.6-3.3-4.6"/>
			<path class="st12" d="M54-44c0,0-1.6,3.8,2.2,4.4c3.8,0.6,3.6,2.5,2.4,4.8c-1.2,2.2-0.6,4.6,2.5,5.1"/>
			<path class="st12" d="M85-45.8c0,0-4.1,0.4-2.8,4.1c1.3,3.6-0.5,4.3-3,4.4c-2.6,0-4.3,1.7-3.2,4.7"/>
			<path class="st12" d="M13-45.8c0,0-4.1,0.4-2.8,4.1c1.3,3.6-0.5,4.3-3,4.4c-2.6,0-4.3,1.7-3.2,4.7"/>
			<path class="st12" d="M72.2-50.4c0,0,3.5,2.3,4.8-1.3c1.3-3.7,3.1-3,5.1-1.4c2,1.6,4.4,1.5,5.5-1.5"/>
			<path class="st12" d="M0.2-50.4c0,0,3.5,2.3,4.8-1.3c1.3-3.7,3.1-3,5.1-1.4c2,1.6,4.4,1.5,5.5-1.5"/>
			<path class="st12" d="M81.8-74.9c0,0-0.8-4.1-4.3-2.5c-3.5,1.6-4.4-0.1-4.6-2.7c-0.2-2.5-2-4.2-4.9-2.8"/>
			<path class="st12" d="M38.9-56.2c0,0,4.1-0.6,2.7-4.2c-1.4-3.6,0.3-4.4,2.9-4.5c2.6-0.1,4.3-1.8,3.1-4.8"/>
			<path class="st12" d="M24.9-55.6c0,0,1.2-4,4.5-2c3.3,2,4.3,0.4,4.9-2.1c0.5-2.5,2.5-3.9,5.2-2.3"/>
			<path class="st12" d="M11.9-72.2c0,0,1.2-4,4.5-2c3.3,2,4.3,0.4,4.9-2.1c0.5-2.5,2.5-3.9,5.2-2.3"/>
			<path class="st12" d="M48-81.2c0,0,4.2,0.4,2.9,4c-1.3,3.7,0.5,4.3,3.1,4.3c2.6,0,4.3,1.6,3.3,4.6"/>
			<path class="st12" d="M44.6-72.3c0,0,3.2-2.7,0.1-5c-3.1-2.3-2-3.9,0.1-5.3c2.1-1.4,2.6-3.8,0.1-5.7"/>
			<path class="st12" d="M60.9-75.8c0,0-3.4,2.5-0.4,4.9c3,2.5,1.8,4-0.4,5.3c-2.2,1.3-2.9,3.6-0.4,5.6"/>
			<path class="st12" d="M66-71.6c0,0,2.8,3.1,5-0.2c2.1-3.2,3.8-2.2,5.3-0.2c1.5,2,3.9,2.5,5.7-0.2"/>
			<path class="st12" d="M50.3-44.7c0,0,4.2-0.2,3-3.9c-1.2-3.7,0.7-4.3,3.2-4.2c2.6,0.1,4.4-1.5,3.4-4.5"/>
			<path class="st12" d="M41.8-52.6c0,0-0.4-4.2,3.4-3.6c3.8,0.6,4.2-1.3,3.7-3.8c-0.5-2.5,0.8-4.6,3.9-4.1"/>
			<path class="st12" d="M29.6-54.9c0,0,1.1,4,4.5,2.2c3.4-1.9,4.4-0.2,4.8,2.3c0.4,2.5,2.3,4,5.1,2.5"/>
			<path class="st12" d="M11.3-25.4c0,0,4.2,0.2,3,3.9c-1.1,3.7,0.7,4.3,3.2,4.2c2.6-0.1,4.4,1.5,3.5,4.5"/>
			<path class="st12" d="M45.8-69.9c0,0-3.8,1.7-4.5-2.2c-0.6-3.8-2.5-3.5-4.8-2.3c-2.2,1.2-4.6,0.7-5.1-2.5"/>
			<path class="st12" d="M21.9-65c0,0-1.6,3.9-4.7,1.5c-3.1-2.3-4.3-0.8-5,1.7c-0.7,2.4-2.8,3.7-5.4,1.8"/>
			<path class="st12" d="M93.9-65c0,0-1.6,3.9-4.7,1.5c-3.1-2.3-4.3-0.8-5,1.7c-0.7,2.4-2.8,3.7-5.4,1.8"/>
			<path class="st12" d="M77.8-61c0,0-1-4-4.4-2.2c-3.4,1.8-4.4,0.2-4.8-2.4c-0.4-2.5-2.3-4-5.1-2.5"/>
			<path class="st12" d="M69.7-73c0,0-0.1-4.2-3.9-3.1c-3.7,1.1-4.3-0.8-4.1-3.3c0.2-2.5-1.4-4.4-4.4-3.6"/>
			<path class="st12" d="M61.4-60.1c0,0,2,3.6,4.9,1c2.8-2.6,4.2-1.3,5.2,1.1c1,2.3,3.2,3.3,5.5,1.1"/>
			<path class="st12" d="M51.4-71.3c0,0-2,3.7,1.8,4.6c3.8,0.9,3.3,2.8,1.9,4.9c-1.4,2.1-1,4.5,2.1,5.3"/>
			<path class="st12" d="M72.1-95.7c0,0-1.3,4,2.6,4.2c3.9,0.3,3.8,2.2,2.8,4.5c-1,2.3-0.2,4.6,2.9,4.8"/>
			<path class="st12" d="M72.1-23.7c0,0-1.3,4,2.6,4.2c3.9,0.3,3.8,2.2,2.8,4.5c-1,2.3-0.2,4.6,2.9,4.8"/>
			<path class="st12" d="M56.5-46.2c0,0,4.1,0.8,3.9-3.1c-0.2-3.9,1.7-4,4.2-3.3c2.4,0.7,4.6-0.3,4.4-3.5"/>
			<path class="st12" d="M76.7-25c0,0,4.1,0.5,3.7-3.3c-0.5-3.9,1.4-4.1,3.9-3.6c2.5,0.6,4.6-0.7,4.2-3.8"/>
			<path class="st12" d="M4.7-25c0,0,4.1,0.5,3.7-3.3c-0.5-3.9,1.4-4.1,3.9-3.6c2.5,0.6,4.6-0.7,4.2-3.8"/>
			<path class="st12" d="M75.2-66c0,0,2.4-3.4,4.9-0.5c2.5,3,4,1.7,5.3-0.5c1.3-2.2,3.6-2.9,5.6-0.5"/>
			<path class="st12" d="M3.2-66c0,0,2.4-3.4,4.9-0.5c2.5,3,4,1.7,5.3-0.5c1.3-2.2,3.6-2.9,5.6-0.5"/>
			<path class="st12" d="M90.5-4.3c0,0,1-4.1-2.9-4c-3.9,0.1-3.9-1.9-3.1-4.3c0.8-2.4-0.2-4.6-3.3-4.6"/>
			<path class="st12" d="M55.6-75c0,0-3.7-1.9-1.2-4.8c2.5-2.9,1.1-4.2-1.3-5.2c-2.4-0.9-3.4-3.1-1.4-5.5"/>
			<path class="st12" d="M38.3-92.5c0,0-3.6,2.2-0.8,4.9c2.8,2.7,1.4,4.1-0.9,5.2c-2.3,1.1-3.2,3.4-0.9,5.6"/>
			<path class="st12" d="M44.6-0.3c0,0,3.2-2.7,0.1-5c-3.1-2.3-2-3.9,0.1-5.3c2.1-1.4,2.6-3.8,0.1-5.7"/>
			<path class="st12" d="M55.6-3c0,0-3.7-1.9-1.2-4.8c2.5-2.9,1.1-4.2-1.3-5.2c-2.4-0.9-3.4-3.1-1.4-5.5"/>
			<path class="st12" d="M30.1-5.9c0,0,1.2-4-2.7-4.2c-3.9-0.2-3.8-2.1-2.9-4.5c1-2.4,0.1-4.6-3.1-4.8"/>
			<path class="st12" d="M38.3-20.5c0,0-3.6,2.2-0.8,4.9c2.8,2.7,1.4,4.1-0.9,5.2c-2.3,1.1-3.2,3.4-0.9,5.6"/>
			<path class="st12" d="M30.1-77.9c0,0,1.2-4-2.7-4.2c-3.9-0.2-3.8-2.1-2.9-4.5c1-2.4,0.1-4.6-3.1-4.8"/>
		</g>
	</g>
</pattern>
<pattern  id="SVGID_7_" xlink:href="#Unnamed_Pattern" patternTransform="matrix(2.5559 4.4032 4.4032 -2.5559 -2137.8442 29934.7285)">
</pattern>
<polygon class="st13" points="29.6,123.6 207.3,18.5 32.5,-73.6 -158.2,46.8 "/>
<pattern  id="SVGID_8_" xlink:href="#Unnamed_Pattern_5" patternTransform="matrix(-2.295 -0.3479 0.3479 -2.295 -21698.0762 8303.1992)">
</pattern>
<path class="st14" d="M43.9-105.8c70.5,7.2,87.3,42.2,96.4,51.1c38.6,37.5,37.4-1,88,19.5c38.4,15.5,19.2,49.6,48.8,53.6
	c60.3,8.1,66.9,54.8,66.9,54.8L41.7,72.6L43.9-105.8z"/>
<pattern  id="SVGID_9_" xlink:href="#Unnamed_Pattern_6" patternTransform="matrix(2.2862 0.1158 0.1158 -2.2862 6807.9272 10482.4063)">
</pattern>
<path class="st15" d="M123.9,143.5c-22.1-16.8-54.7-17-89.4-2.3c-60.3,25.5-155.3,37-150-9.4c5.3-46.5,42.2-20.4,100.3-60.1
	C41.1,33.1,86.4,41.3,155,70C253.9,111.2,208.5,207.7,123.9,143.5"/>
</svg>
