<?xml version="1.0" encoding="utf-8"?>
<!-- Generator: Adobe Illustrator 22.0.0, SVG Export Plug-In . SVG Version: 6.00 Build 0)  -->
<svg version="1.1" id="Layer_1" xmlns="http://www.w3.org/2000/svg" xmlns:xlink="http://www.w3.org/1999/xlink" x="0px" y="0px"
	 viewBox="0 0 1920 1080" style="enable-background:new 0 0 1920 1080;" xml:space="preserve">
<style type="text/css">
	.st0{opacity:0.23;}
	.st1{clip-path:url(#SVGID_2_);fill:#36A9E1;}
	.st2{fill:#4F266B;}
	.st3{fill:#009FE3;}
	.st4{fill:#E6007E;}
	.st5{fill:#FDC300;}
	.st6{fill:#FFFFFF;}
	.st7{fill:#64ACE0;}
</style>
<g>
	<g class="st0">
		<g>
			<defs>
				<rect id="SVGID_1_" x="272.3" y="-2787.3" width="1957.2" height="3798.8"/>
			</defs>
			<clipPath id="SVGID_2_">
				<use xlink:href="#SVGID_1_"  style="overflow:visible;"/>
			</clipPath>
			<path class="st1" d="M2190-2576.5c34-25.9,44.1-68.5,37.6-109.4c-5.9-37-26.2-79.7-63-94.6c-19.1-7.7-42.8-7.1-63.1-6.6
				c-19.1,0.5-38.4,3-56.7,8.9c-38.7,12.3-69.5,38.9-94,70.6c-15.9,20.5-29.3,42.7-41.7,65.5c-13.6,25.1-28.2,51.3-36.9,78.6
				c-16.8,52.8-15.3,109.9-28.4,163.6c-14,57.7-60,100.5-116.8,115.8c-50.1,13.5-102.9,9.7-153.5,20.5
				c-115.4,24.5-184.7,138.5-220.4,242.4c-46.5,135.1-52.3,286.9-23.6,426.3c28.8,140.2,95.8,266.8,145.2,400
				c52.3,141.2,78.9,291.1,87.5,441.1c4.4,76.2,4,152.8-1.3,228.9c-4.1,59.3-7.4,115.1,2.1,174.1c19.6,121.4,65.9,236.9,103.6,353.4
				c18.4,56.8,35.6,114.3,45.6,173.3c9.3,55.1,8.6,108.4-1.4,163.4c-16.5,90.9-53.6,179.1-123.1,242.1
				c-53.2,48.2-119.6,77-187.9,96.7c-55,15.9-112.5,24.5-166.3,44.2c-19,7-38.2,15.7-53.1,29.7c-13.4,12.7-15.8,27.5-24.3,42.7
				c-8.5,15.2-26.3,24.8-41.4,32.2c-23.7,11.8-49.3,19.9-74.7,27.1c-149,42.3-306.4,57.1-459.6,76.6c-67.4,8.6-135,16.7-201.9,28.3
				c-22.8,4-45.6,8.1-67.9,14.6c-11,3.2-26.6,6.9-34.6,16c-6,6.8-5.1,14.6,1.6,20.6c4.8,4.3,11.9-2.8,7.1-7.1
				c-6-5.4-0.5-8.2,6.6-11.9c14.8-7.7,32.4-11,48.6-14.6c58.9-12.9,119.2-20.2,179-28c151.8-19.8,304.9-35.5,454.7-67.9
				c52.6-11.4,109-23.6,156.3-50.5c13.5-7.7,27.8-17.5,35.4-31.5c8.4-15.4,10.5-29.6,24.6-41.9c35.1-30.6,89.7-38.5,133.4-49
				c61.3-14.7,122.8-30.1,179.7-58c64.9-31.8,120.1-79.8,157.7-141.9c48.5-80.1,73.9-183.4,68-276.8c-7-112.6-49-221.5-84.7-327.4
				c-36.8-109.2-78.1-223.6-78.9-340.3c-0.2-31.8,4-63.5,6.1-95.3c2.4-36.9,3.6-74,3.8-111c0.3-74.9-4-149.9-13.1-224.3
				c-17-139.8-52.9-274-106.8-404c-54-130.5-112.7-259.3-127.9-401.5c-15.1-141.7,1.5-296.8,69-424.1
				c28-52.9,66.5-104.2,119.1-134.6c46.5-26.9,99.8-28.3,151.9-33.2c47-4.4,93.8-13.7,131-44.8c41.8-34.9,55.6-79.6,63.2-131.5
				c4-27.4,6.9-55,11.7-82.3c5.1-28.8,14.5-53.8,27.3-80.1c22.9-47.1,49.2-96.2,88.8-131.6c31.4-28.1,70.4-41.2,112.2-42.3
				c20.9-0.5,46.4-1.5,65.3,8.7c19.8,10.7,33.5,31.1,41.8,51.4c17.8,43.4,16.4,101.3-23.7,131.9
				C2179.9-2581.2,2184.9-2572.5,2190-2576.5"/>
		</g>
	</g>
	<path class="st2" d="M202,987.3c2.7,6.4,7.9,6.5,13.7,4.2c2-0.8,5.5-2.1,7-3.8c1.4-1.7,0.6-5,2.8-5.9c7.7-2.9,2.2,14.2-0.2,16.7
		c-4.6,5-12.3,4.4-17.9,7.8c-7.9,4.8-10,3.6-13.8-5c-0.4-0.9-0.7-1.4-0.9-2.3"/>
	<path class="st2" d="M86.5,947.7c0-1.1,0.2-2.2,0.6-3.4c3.3-10.2,23.3-11.4,27.9-12.9c4.6-1.5,20.1-9.7,24.9-24
		c4.9-14.2,19.9,33.8,19.9,33.8s-9.5,7.2-19,8c-9.6,0.8-5.5,16.9-35.7,22c-0.6,0.1-1.2,0.2-1.7,0.3c-0.5,4.7,7.1,10.5,6.4,14
		c-1.9,8.9-14.5-4-16.3-6.9c-3.6-5.9-4.1-13-8.3-18.4C80.3,953.9,78.3,951.7,86.5,947.7"/>
	<path class="st3" d="M158.1,874.9c0,0,26.3,31.4,23.6,56.2c0,0-0.2,3.6,2,5.5c2.2,1.9,21.1,27.1,27.8,53.3c0,0-9.4,13.5-23.1,15.9
		c-13.7,2.4-8.9-11.8-14-25.3c-5.1-13.4-15.3-33.5-21.2-41.6c-5.9-8-22.7-31.2-25.8-41.4c-3.1-10.1-24.6,1.8-24.2-28.6
		c0.4-30.4,53.2,5.3,53.2,5.3"/>
	<path class="st4" d="M192.6,850.9c0.5,1.8,1.9,1.9,2.8,1.7c2.2-0.5,3.8-0.4,4.3-3c0.3-1.7,2-3.9,3.3-1.5c1,2-0.9,4.7-2.1,6.2
		c-1.1,1.3-3,2.8-1.1,4.4c1.4,1.2,3.7,0.7,5.1,2.3c0.6,0.7,0.6,1.9,0,2.6c0.1,0,0.1,0,0.2,0c1.1,0.1,2,0.9,2,1.8
		c0,0.6-0.4,1-0.9,1.3c0.1,0,0.2,0,0.3,0c1.1,0.1,2,0.9,2,1.8c-0.1,1-1,1.7-2.2,1.6c-1.1-0.1-2-0.9-2-1.8c0-0.6-1.4-2.2-1.3-3.2
		c0-0.5-0.9-2-1.7-2.1c-1-0.2-2,0-3,0c-2.2,0-4.3-0.4-6.5-0.5c-1.1-2.1-13.3-31.6-12.2-33.8c0.2-0.5,6.2-6.9,9.6-0.6
		C189.8,829.5,192,849.1,192.6,850.9"/>
	<path class="st5" d="M167.9,837.8l25.8-7.6c0,0-3.2-16.1-8.2-23.6c-5-7.5-0.7-7.2-3.5-10.6c-2.4-3.1-38.4-26.7-49-23.7
		c-10.6,3-34,15.3-34,15.3s8.3,21.3,15.8,25.8c0,0-25.1,41.9-10.5,70.5c0.3,0.6,2.5,3.5,3.1,2.5c0,0,1.1-1.2,3.3-1.4
		c7.9-0.7,42-3.8,59,6.6c6.3,3.9,0.1-32.4-5-37.7L167.9,837.8z"/>
	<path class="st2" d="M192.5,718.5c-1.8-3.7,0.1-7.7-2.6-11.5c-2.4-3.3-6.2-4.6-10-5.1c-3.5-0.5-7.7-0.4-10.6,1.5
		c-3.3,2.3-3.3,5.6-8.2,4.1c-7-2.1-9.1-13.2-18.6-8.1c-3.6,2-3.2,5.9-8,5.7c-2.6-0.1-6-5.2-9.1-1.8c-3.4,3.7,2,6.1,3.2,8.4
		c0.9,1.6,2,2,1.1,4.2c-1.1,2.8-3.5,1.3-4.7,2.4c-7.7,7,5.1,8.7,4.6,15.7c-0.3,3.9-5.8,4.2-3.6,8.8c1.8,3.8,6.8,1.1,8.7,3.7
		c2.4,3.4-2.9,5.5,1.4,8.8c4.5,3.4,5.1-0.2,7.4,5.7c2.4,6.2,6.7,18.6,14.9,14.9c13.9-6.3,16-27,32-13.8c2.1,1.7,2.2,4.9,6.2,4.5
		c4.4-0.4,1.9-3.3,3.7-4c5.1-1.9,0.6-0.6,4.8,0.3c3.2,0.7,5.6,5.2,9.5,2.5c4.9-3.5-3.9-7.9,1-12.5c8.3,4.9,15-8.7,7-10.2
		c0.1-5.1,4-14.3-1-17.4c-3.3-2.1-10.9-0.8-12.9,2.5c-3.3,0.2-3.2-2.5-3.3-5.1c-0.1-4.4,2.6-4.1-1.8-6.8c-7-4.2-11.2,3.2-15.9,6.7"
		/>
	<path class="st2" d="M189.1,762.1c-0.2,3.9,3.5,7.2,8.3,7.5c4.8,0.3,8.9-2.6,9.1-6.5c0.2-3.9-3.5-7.2-8.3-7.5
		C193.4,755.4,189.3,758.3,189.1,762.1"/>
	<path class="st4" d="M174.5,780.5c0,0-4.2,9.3-3.4,11.6c0,0-8.8,4-13.2,0.2c-4.3-3.9-8.7-14.1-6.4-15.3s5.2-4.2,5.8-6.9
		C158,767.3,174.5,780.5,174.5,780.5"/>
	<path class="st2" d="M149.8,724.5c-0.2,3.3,5,9.9,10.8,10.3c5.8,0.3,10.1-5.8,10.2-9.1c0.2-3.3-4.4-6.2-10.2-6.5
		C154.8,718.8,150,721.2,149.8,724.5"/>
	<path class="st4" d="M155.2,732.4c1.6-3.1,3.7-6.7,6.8-10.6c12.2-16.1,30.6-4.2,30.6-4.2s17.4,12.3,11.7,25.6
		c-5.7,13.3-7.9,18.6-5.9,23.7c2,5.1-12.1,23.4-29.5,15.6c-19.1-8.7-19.3-24.6-18.3-31.8c-0.2-0.1-0.4-0.2-0.6-0.3
		c-2.7-1.5,0-2.3-1.1-4c-1.8-2.9-4.3-3.4-4.8-7.3C143.1,730.7,153.4,727,155.2,732.4"/>
	<path class="st6" d="M189.2,768.7c0,0,0.2-1.2-1.8-1.2c-2,0-7.9,0-13-3.9c-2-1.5-3.7-0.4-3,3C172.9,773.8,182.7,780.3,189.2,768.7"
		/>
	<path class="st2" d="M155.9,715.2c-0.6,9.1,7.7,17,18.4,17.7c10.8,0.7,19.9-6.2,20.5-15.2c0.6-9.1-7.7-17-18.5-17.7
		C165.7,699.3,156.5,706.1,155.9,715.2"/>
	<path class="st2" d="M183,721.2c-0.3,4.5,4.9,8.6,11.6,9c6.7,0.4,12.3-2.9,12.6-7.5c0.3-4.5-4.9-8.5-11.6-9
		C188.9,713.3,183.2,716.7,183,721.2"/>
	<path class="st2" d="M276.8,992c0.5-0.1,1-0.2,1.4-0.4l3.3,15l-12-7.6C270.4,995.6,272.4,992.8,276.8,992"/>
	<path class="st5" d="M276.8,992c-4.4,0.8-6.4,3.6-7.4,6.9l-21.2-13.5l-3.8-29.6l28.7,12.3l5.1,23.4
		C277.7,991.8,277.2,991.9,276.8,992"/>
	<path class="st7" d="M246.1,982.1c3.9,5.8,3.5-4.9,9.3-8.9l4.1-2.8c5.8-3.9,15.6,0.4,11.7-5.4L163.5,807.1
		c-3.9-5.8-11.8-7.3-17.6-3.4l-4.1,2.8c-5.8,3.9-7.3,11.8-3.3,17.6L246.1,982.1z"/>
	<path class="st5" d="M258.6,962.9c0.5,0.8,1.6,1,2.4,0.5c0.8-0.5,1-1.6,0.5-2.4L156.7,807c-0.6-0.8-1.6-1-2.5-0.5
		c-0.8,0.5-1,1.6-0.5,2.4L258.6,962.9z"/>
	<path class="st5" d="M249.3,969.2c0.5,0.8,1.6,1,2.4,0.5c0.8-0.5,1-1.6,0.5-2.4L147.4,813.4c-0.5-0.8-1.6-1-2.4-0.5
		c-0.8,0.6-1,1.6-0.5,2.4L249.3,969.2z"/>
	<path class="st4" d="M105.9,810.1c4.2-0.5,9.7,5.6,13.4,8.6c0.4,0.3,0.8,0.6,1.2,0.9c6.8,4.4,19.8,10.5,28.4,10.4
		c3.2-1.7,5.1-4.6,6.3-8.8c0.4-1.2,0.2-7.6,2.8-4.6c2.2,2.5,0.1,5.6-0.4,8.3c-0.6,2.9,1.4,3.4,3.9,3c2.7-0.5,4.9-1.9,7.4-2.8
		c1.6-0.6,3.5-2.5,5.2-2.4c2.3,0.2,0.6,2.6-0.5,3.3c-1.9,1.2-4.1,1.7-6,2.7c-0.3,0.2-4.9,3.4-3.7,4c2,1,4,0.5,6,0.5
		c2.1,0,4.4-0.3,6.6-0.1c1.6,0.1,2.4,1.5,1.4,2.8c-1.1,1.3-4.1,0.7-5.7,0.6c-2.7-0.1-9.9-0.2-5.9,3.4c1.5,1.4,3.6,1.7,5.6,2.1
		c0.9,0.2,2.1-0.1,2.9,0.3c1.1,0.5,1.2,1.7,0.3,2.5c-1.4,1.3-4.1,0-5.8-0.1c-2.3-0.2-4.5-1.4-6.8-1.5c-0.5,1.6,1.7,5.3,3.1,6.2
		c0.6,0.4,2,1,1.8,1.9c-0.7,2.6-7-2.3-7.8-3c-2.4-2-4.6-4.6-7.4-6c-0.9-0.4-2-0.8-3.2-1.2c-10.8,0.9-37.3,1.8-47.6-9.2
		C97,827.1,98.8,810.9,105.9,810.1"/>
</g>
</svg>
