<?xml version="1.0" encoding="utf-8"?>
<!-- Generator: Adobe Illustrator 22.0.0, SVG Export Plug-In . SVG Version: 6.00 Build 0)  -->
<svg version="1.1" id="Layer_1" xmlns="http://www.w3.org/2000/svg" xmlns:xlink="http://www.w3.org/1999/xlink" x="0px" y="0px"
	 viewBox="0 0 508 413" style="enable-background:new 0 0 508 413;" xml:space="preserve">
<style type="text/css">
	.st0{fill:none;}
	.st1{clip-path:url(#SVGID_2_);fill:none;stroke:#FFEA00;stroke-width:5;stroke-linecap:round;stroke-dasharray:0,6.5;}
	.st2{clip-path:url(#SVGID_2_);fill:none;stroke:#FFEA00;stroke-width:4.694;stroke-linecap:round;stroke-dasharray:0,6.5;}
	.st3{clip-path:url(#SVGID_2_);fill:none;stroke:#FFEA00;stroke-width:4.388;stroke-linecap:round;stroke-dasharray:0,6.5;}
	.st4{clip-path:url(#SVGID_2_);fill:none;stroke:#FFEA00;stroke-width:4.083;stroke-linecap:round;stroke-dasharray:0,6.5;}
	.st5{clip-path:url(#SVGID_2_);fill:none;stroke:#FFEA00;stroke-width:3.777;stroke-linecap:round;stroke-dasharray:0,6.5;}
	.st6{clip-path:url(#SVGID_2_);fill:none;stroke:#FFEA00;stroke-width:3.472;stroke-linecap:round;stroke-dasharray:0,6.5;}
	.st7{clip-path:url(#SVGID_2_);fill:none;stroke:#FFEA00;stroke-width:3.166;stroke-linecap:round;stroke-dasharray:0,6.5;}
	.st8{clip-path:url(#SVGID_2_);fill:none;stroke:#FFEA00;stroke-width:2.861;stroke-linecap:round;stroke-dasharray:0,6.5;}
	.st9{clip-path:url(#SVGID_2_);fill:none;stroke:#FFEA00;stroke-width:2.555;stroke-linecap:round;stroke-dasharray:0,6.5;}
	.st10{clip-path:url(#SVGID_2_);fill:none;stroke:#FFEA00;stroke-width:2.25;stroke-linecap:round;stroke-dasharray:0,6.5;}
	.st11{clip-path:url(#SVGID_4_);fill:#64ACE0;}
	.st12{fill:url(#SVGID_5_);}
	.st13{fill:#4F266B;}
	.st14{fill:#F9B418;}
	.st15{fill:#FDC300;}
	.st16{fill:#E6007E;}
	.st17{fill:none;stroke:#E6007E;stroke-width:10.582;stroke-linecap:round;}
	.st18{fill:#64ACE0;}
	.st19{fill:#FFFFFF;}
	.st20{fill:none;stroke:#64ACE0;stroke-width:7;}
	.st21{fill:url(#SVGID_6_);}
</style>
<pattern  x="-1412" y="413" width="83" height="65" patternUnits="userSpaceOnUse" id="Unnamed_Pattern" viewBox="2.5 -70.6 83 65" style="overflow:visible;">
	<g>
		<rect x="2.5" y="-70.6" class="st0" width="83" height="65"/>
		<g>
			<defs>
				<rect id="SVGID_1_" x="2.5" y="-70.6" width="83" height="65"/>
			</defs>
			<clipPath id="SVGID_2_">
				<use xlink:href="#SVGID_1_"  style="overflow:visible;"/>
			</clipPath>
			<line class="st1" x1="2.5" y1="-5.6" x2="2.5" y2="-71.1"/>
			<line class="st2" x1="7.1" y1="-2.3" x2="7.1" y2="-71.1"/>
			<line class="st3" x1="11.7" y1="-5.6" x2="11.7" y2="-71.1"/>
			<line class="st4" x1="16.3" y1="-2.3" x2="16.3" y2="-71.1"/>
			<line class="st5" x1="20.9" y1="-5.6" x2="20.9" y2="-71.1"/>
			<line class="st6" x1="25.6" y1="-2.3" x2="25.6" y2="-71.1"/>
			<line class="st7" x1="30.2" y1="-5.6" x2="30.2" y2="-71.1"/>
			<line class="st8" x1="34.8" y1="-2.3" x2="34.8" y2="-71.1"/>
			<line class="st9" x1="39.4" y1="-5.6" x2="39.4" y2="-71.1"/>
			<line class="st10" x1="44" y1="-2.3" x2="44" y2="-71.1"/>
			<line class="st1" x1="85.5" y1="-5.6" x2="85.5" y2="-71.1"/>
			<line class="st2" x1="80.9" y1="-2.3" x2="80.9" y2="-71.1"/>
			<line class="st3" x1="76.3" y1="-5.6" x2="76.3" y2="-71.1"/>
			<line class="st4" x1="71.7" y1="-2.3" x2="71.7" y2="-71.1"/>
			<line class="st5" x1="67.1" y1="-5.6" x2="67.1" y2="-71.1"/>
			<line class="st6" x1="62.4" y1="-2.3" x2="62.4" y2="-71.1"/>
			<line class="st7" x1="57.8" y1="-5.6" x2="57.8" y2="-71.1"/>
			<line class="st8" x1="53.2" y1="-2.3" x2="53.2" y2="-71.1"/>
			<line class="st9" x1="48.6" y1="-5.6" x2="48.6" y2="-71.1"/>
		</g>
	</g>
</pattern>
<pattern  x="-1412" y="413" width="48" height="48" patternUnits="userSpaceOnUse" id="Unnamed_Pattern_2" viewBox="8.4 -56.4 48 48" style="overflow:visible;">
	<g>
		<rect x="8.4" y="-56.4" class="st0" width="48" height="48"/>
		<g>
			<defs>
				<rect id="SVGID_3_" x="8.4" y="-56.4" width="48" height="48"/>
			</defs>
			<clipPath id="SVGID_4_">
				<use xlink:href="#SVGID_3_"  style="overflow:visible;"/>
			</clipPath>
			<path class="st11" d="M8.4-64.8c4.6,0,8.4,3.8,8.4,8.4S13-48,8.4-48C3.8-48,0-51.8,0-56.4S3.8-64.8,8.4-64.8"/>
			<path class="st11" d="M32.4-64.8c4.6,0,8.4,3.8,8.4,8.4S37-48,32.4-48c-4.6,0-8.4-3.8-8.4-8.4S27.8-64.8,32.4-64.8"/>
			<path class="st11" d="M56.4-64.8c4.6,0,8.4,3.8,8.4,8.4S61-48,56.4-48c-4.6,0-8.4-3.8-8.4-8.4S51.8-64.8,56.4-64.8"/>
			<path class="st11" d="M8.4-40.8c4.6,0,8.4,3.8,8.4,8.4S13-24,8.4-24C3.8-24,0-27.8,0-32.4S3.8-40.8,8.4-40.8"/>
			<path class="st11" d="M32.4-40.8c4.6,0,8.4,3.8,8.4,8.4S37-24,32.4-24c-4.6,0-8.4-3.8-8.4-8.4S27.8-40.8,32.4-40.8"/>
			<path class="st11" d="M56.4-40.8c4.6,0,8.4,3.8,8.4,8.4S61-24,56.4-24c-4.6,0-8.4-3.8-8.4-8.4S51.8-40.8,56.4-40.8"/>
			<path class="st11" d="M8.4-16.8c4.6,0,8.4,3.8,8.4,8.4S13,0,8.4,0C3.8,0,0-3.8,0-8.4S3.8-16.8,8.4-16.8"/>
			<path class="st11" d="M32.4-16.8c4.6,0,8.4,3.8,8.4,8.4S37,0,32.4,0C27.8,0,24-3.8,24-8.4S27.8-16.8,32.4-16.8"/>
			<path class="st11" d="M56.4-16.8c4.6,0,8.4,3.8,8.4,8.4S61,0,56.4,0C51.8,0,48-3.8,48-8.4S51.8-16.8,56.4-16.8"/>
			<path class="st11" d="M44.4-52.8c4.6,0,8.4,3.8,8.4,8.4S49-36,44.4-36c-4.6,0-8.4-3.8-8.4-8.4S39.8-52.8,44.4-52.8"/>
			<path class="st11" d="M20.4-52.8c4.6,0,8.4,3.8,8.4,8.4S25-36,20.4-36c-4.6,0-8.4-3.8-8.4-8.4S15.8-52.8,20.4-52.8"/>
			<path class="st11" d="M44.4-28.8c4.6,0,8.4,3.8,8.4,8.4S49-12,44.4-12c-4.6,0-8.4-3.8-8.4-8.4S39.8-28.8,44.4-28.8"/>
			<path class="st11" d="M20.4-28.8c4.6,0,8.4,3.8,8.4,8.4S25-12,20.4-12c-4.6,0-8.4-3.8-8.4-8.4S15.8-28.8,20.4-28.8"/>
		</g>
	</g>
</pattern>
<g>
	<g>
		
			<pattern  id="SVGID_5_" xlink:href="#Unnamed_Pattern" patternTransform="matrix(-5.6831 -0.5125 -0.5125 5.6831 9021.6553 -14332.0195)">
		</pattern>
		<path class="st12" d="M51.3,244.3l155.7-117L41.4,15.4c0,0-22.2,34.9-21.6,102.1C20.6,206.3,51.3,244.3,51.3,244.3"/>
		<path class="st13" d="M214,155c0,2-24.9,106-4,106.9c20.9,0.9,51.7-46.2,51.7-46.2s-28.9,4.6-31.6,5.3l-4-65.2"/>
		<path class="st14" d="M268.7,207.2C270.9,207.8,265.6,206.9,268.7,207.2"/>
		<path class="st14" d="M289.3,206.8c0.2,0,0.4,0,0.6-0.1C289.6,206.8,289.4,206.8,289.3,206.8"/>
		<path class="st14" d="M262.1,205.2c0.4,0.2,0.8,0.3,1.2,0.4C263.3,205.6,263,205.5,262.1,205.2"/>
		<path class="st15" d="M245,216.6c0.9,5.9,3.1,14.6,6.2,24.6c0.4,1.3,0.8,2.7,1.2,4c2.4,7.7,5.3,16,8.3,24.2
			c0.5,1.4,1.1,2.8,1.6,4.2c3.3,8.7-21.4,63.3-17.9,70.9c3.3,7.1,124,12.9,132.1,0.8c8.1-12.1-46.3-145.3-46.3-145.3
			c-5.8,0.6-11.5,1.6-17.2,2.7c-4.6,0.9-9.2,1.8-13.9,2.6c-2,0.4-11.6,1.8-9.9,1.7c0.2,0,0.4,0,0.6-0.1c-0.3,0-0.5,0.1-0.6,0.1
			c-4.5,0.5-20.3,0.4-20.5,0.3c2.2,0.7-4.1-1.1-5.5-1.6c0.1,0.1-5.7-3.7-7-5.7c-0.4-0.7-0.9-1.3-1.4-1.9c-4.4,4-8.6,8-10,11.3
			C244.3,210.5,244.5,213,245,216.6"/>
		<path class="st16" d="M258,282.6L258,282.6L258,282.6z"/>
		<path class="st17" d="M203.1,108.2c0.5,0.3,9.5,17.6,9.5,17.6"/>
		<path class="st17" d="M202.5,117.3c0.5,0.3,8.6,15.9,8.6,15.9"/>
		
			<rect x="205.6" y="105.1" transform="matrix(0.9926 -0.1211 0.1211 0.9926 -14.1771 27.1703)" class="st13" width="21.5" height="50.2"/>
		<path class="st18" d="M192.8,126.4c0-2.8,0.4-4.6,0.4-4.6l4.1-0.3l2.3,17.9l-4.2,0.4c0,0-1.1-2.6-1.5-3.8
			C193.5,134.8,192.8,129.2,192.8,126.4"/>
		
			<rect x="196.4" y="119.6" transform="matrix(0.9926 -0.1213 0.1213 0.9926 -14.2509 25.5622)" class="st13" width="12.7" height="20.5"/>
		<polygon class="st19" points="199.8,140.5 198.9,140.6 196.4,120.3 197.4,120.2 		"/>
		<path class="st16" d="M211.9,106c0,0,1.1-5.8,2.8-5.9c1.7-0.1,5.3-2.2,5.9,4.4l-2.5,0.4C218,104.9,214.3,109.3,211.9,106"/>
		<path class="st16" d="M344.4,199.7c-4.4-19.8-23-21.1-33.6-5c-7.2,10.9-44.5,61.4-48.3,68c-0.2-0.4,4.6,0.8,4.4,0.3
			c-1.6-9.8-12.6-36.7-22.2-59.1c-3.9-10.7-7.5-20.8-10.3-28.9c0-7.3-1.8-17.4-3.3-20.6c-2.3-4.7-1-9.9-1.6-11
			c-1.1-1.8-2.5,2.2-3.1,5.1c-0.8-1.9-1.5-3.3-1.7-3.6c-0.5-0.7-1.6-9.5-1.6-12.4c0-2.9-7.5-12.7-7.5-12.7c-1.3-1.7-3.6-0.8-3.3,1.4
			c0.3,2.2,3,3.1,5.3,11.2c0.4,1.3,1.9,12.3,1.4,13.2c-0.6,1-1.8-0.9-3-3.4c-2.6-5.5-5.8-14.5-9-13.1c-3.6,1.5,0.6,7.9,4.1,16.1
			c0.5,1.1,0.5,2,0.1,2.2c-1,0.5-5.7-13.5-8.2-12.5c-4,1.7,1.7,12.2,2.6,14.4c1,2.7-0.9,2.1-1.7,2.5c-2.3,1.3-0.6,5.9,0.1,7.1
			c0.7,1.2,1.5,2.7,1.5,2.7c7.6,14.7,13,17,15.8,18.7c4.4,2.7,6.1,79.6,19.9,103.2c2.7,6.2,5.8,11.3,9.1,14.7
			C261.7,310.1,351.8,233.2,344.4,199.7"/>
		<path class="st16" d="M246.9,88.3c-3.8,2.4-5.5,6.4-5.9,10.7c-0.7,8.3,2.3,16.3,2.9,24.5c0.2,3.1,0.1,6.6-1.8,9.2
			c-1.1,1.5-2.5,2.3-4.3,2.5c-1.8,0.2-5.1-0.4-5.5,2.2c-0.6,4.1,4.2,4.2,6.6,3.8c1.3-0.2,6.8-1.3,6.8,1.2c0,1.2-1.1,1.3-1.2,2.2
			c-0.1,2.2,2.8,2,4,1.4c-1.3,0.5-2.5,2.2-1.3,3.5c0.9,1.1,2.3,0.3,3.2,1.3c1.9,2.1-0.6,5.8,1.2,7.8c2.7,3.1,7.2,1,10.1-0.4
			c4.4-2,10.5-3.8,15.2-1.7c7,3,10,9.3,6.9,14.5c-10.6,17.9,26-2.6,35.2,2.7c-8.2-4.8-7.3-16.2-6.6-24.3c1.3-13.5,11-22.1,14.1-34.1
			c3.2-12.3,0.1-28.1-4-39.9"/>
		<path class="st20" d="M306.8,137.4c-0.1,6.5-5.4,11.7-11.8,11.6c-6.5-0.1-11.7-5.4-11.6-11.8c0.1-6.5,5.4-11.7,11.8-11.6
			C301.6,125.6,306.8,130.9,306.8,137.4z"/>
		<path class="st13" d="M315.4,116l-79.7-0.8c0,0,1,17,12.7,17.7c11.7,0.7,10.7-12.8,21.2-12.7C279.8,120.3,279.6,120.4,315.4,116"
			/>
		
			<pattern  id="SVGID_6_" xlink:href="#Unnamed_Pattern_2" patternTransform="matrix(0.9319 9.884400e-03 9.884400e-03 -0.9319 -671.6875 -2668.689)">
		</pattern>
		<path class="st21" d="M288.5,69c12.1,0.2,9.2-16.3,25.6-20c21.6-4.9,28.7,8.3,40.2,0.2c4.9-3.4,7.7-14.4,33.4-19
			c20.6-3.6,45.4,3.6,63.6,16.3c17.4,12.2,35.3,43.3,22.4,62.4c-11.5,17-32.4,21-49.6,17c-18.2-4.2-24.8-27.8-45.4-28.5
			c-16.6-0.5-29.3,16.5-42.3,16.4c-2.6,0-5.1-0.4-7.5-0.9c-3.1,18-14.8,29.8-14.8,29.8c1.7-7,1.3-26.6-15.6-25.3
			c-13.9,1.1-18.8-16.1-20.2-22.2l-42.8-0.5C235.6,94.7,240.1,68,288.5,69"/>
		<path class="st16" d="M298.9,125c0,3.6-1.7,6.5-3.7,6.5c-2,0-3.6-3-3.5-6.6c0-3.6,1.7-6.5,3.7-6.5
			C297.4,118.5,299,121.4,298.9,125"/>
	</g>
</g>
</svg>
