<?xml version="1.0" encoding="utf-8"?>
<!-- Generator: Adobe Illustrator 22.0.0, SVG Export Plug-In . SVG Version: 6.00 Build 0)  -->
<svg version="1.1" id="Layer_1" xmlns="http://www.w3.org/2000/svg" xmlns:xlink="http://www.w3.org/1999/xlink" x="0px" y="0px"
	 viewBox="0 0 438 439" style="enable-background:new 0 0 438 439;" xml:space="preserve">
<style type="text/css">
	.st0{opacity:0.3;fill:#36A9E1;}
</style>
<path class="st0" d="M708,94.1c34-25.9,44.1-68.5,37.6-109.4c-5.9-37-26.2-79.7-63-94.6c-19.1-7.7-42.8-7.1-63.1-6.6
	c-19.1,0.5-38.4,3-56.7,8.9c-38.7,12.3-69.5,38.9-94,70.6C453-16.6,439.5,5.7,427.2,28.5C413.7,53.5,399,79.7,390.3,107
	C373.5,159.9,375,216.9,362,270.6c-14,57.7-60,100.5-116.8,115.8c-50.1,13.5-102.9,9.7-153.5,20.5C-23.8,431.3-93,545.4-128.8,649.3
	c-46.5,135.1-52.3,286.9-23.6,426.3c28.8,140.2,95.8,266.8,145.2,400c52.3,141.2,78.9,291.1,87.5,441.1c4.4,76.2,4,152.8-1.3,228.9
	c-4.1,59.3-7.4,115.1,2.1,174.1c19.6,121.4,65.9,236.9,103.6,353.4c18.4,56.8,35.6,114.3,45.6,173.3c9.3,55.1,8.6,108.4-1.4,163.4
	c-16.5,90.9-53.6,179.1-123.1,242.1c-53.2,48.2-119.6,77-187.9,96.7c-55,15.9-112.5,24.5-166.3,44.2c-19,7-38.2,15.7-53.1,29.7
	c-13.4,12.7-15.8,27.5-24.3,42.7c-8.5,15.2-26.3,24.8-41.4,32.2c-23.7,11.8-49.3,19.9-74.7,27.1c-149,42.3-306.4,57.1-459.6,76.6
	c-67.4,8.6-135,16.7-201.9,28.3c-22.8,4-45.6,8.1-67.9,14.6c-11,3.2-26.6,6.9-34.6,16c-6,6.8-5.1,14.6,1.6,20.6
	c4.8,4.3,11.9-2.8,7.1-7.1c-6-5.4-0.5-8.2,6.6-11.9c14.8-7.7,32.4-11,48.6-14.6c58.9-12.9,119.2-20.2,179-28
	c151.8-19.8,304.9-35.5,454.7-67.9c52.6-11.4,109-23.6,156.3-50.5c13.5-7.7,27.8-17.5,35.4-31.5c8.4-15.4,10.5-29.6,24.6-41.9
	c35.1-30.6,89.7-38.5,133.4-49c61.3-14.7,122.8-30.1,179.7-58c64.9-31.8,120.1-79.8,157.7-141.9c48.5-80.1,73.9-183.4,68-276.8
	c-7-112.6-49-221.5-84.7-327.4c-36.8-109.2-78.1-223.6-78.9-340.3c-0.2-31.8,4-63.5,6.1-95.3c2.4-36.9,3.6-74,3.8-111
	c0.3-74.9-4-149.9-13.1-224.3c-17-139.8-52.9-274-106.8-404c-54-130.5-112.7-259.3-127.9-401.5c-15.1-141.7,1.5-296.8,69-424.1
	C-57.5,521-19,469.7,33.5,439.3c46.5-26.9,99.8-28.3,151.9-33.2c47-4.4,93.8-13.7,131-44.8c41.8-34.9,55.6-79.6,63.2-131.5
	c4-27.4,6.9-55,11.7-82.3c5.1-28.8,14.5-53.8,27.3-80.1c22.9-47.1,49.2-96.2,88.8-131.6c31.4-28.1,70.4-41.2,112.2-42.3
	c20.9-0.5,46.4-1.5,65.3,8.7c19.8,10.7,33.5,31.1,41.8,51.4C744.5-3.1,743,54.9,702.9,85.4C697.9,89.3,702.9,98,708,94.1"/>
</svg>
