<?xml version="1.0" encoding="utf-8"?>
<!-- Generator: Adobe Illustrator 22.0.0, SVG Export Plug-In . SVG Version: 6.00 Build 0)  -->
<svg version="1.1" id="Layer_2" xmlns="http://www.w3.org/2000/svg" xmlns:xlink="http://www.w3.org/1999/xlink" x="0px" y="0px"
	 viewBox="0 0 324.1 217.5" style="enable-background:new 0 0 324.1 217.5;" xml:space="preserve">
<style type="text/css">
	.st0{fill:none;}
	.st1{clip-path:url(#SVGID_2_);fill:none;stroke:#FDC300;stroke-width:4.8;}
	.st2{fill:#007334;}
	.st3{fill:url(#SVGID_3_);}
</style>
<pattern  x="-1595.9" y="217.5" width="72" height="72" patternUnits="userSpaceOnUse" id="Unnamed_Pattern" viewBox="0.3 -72 72 72" style="overflow:visible;">
	<g>
		<rect x="0.3" y="-72" class="st0" width="72" height="72"/>
		<g>
			<defs>
				<rect id="SVGID_1_" x="0.3" y="-72" width="72" height="72"/>
			</defs>
			<clipPath id="SVGID_2_">
				<use xlink:href="#SVGID_1_"  style="overflow:visible;"/>
			</clipPath>
			<line class="st1" x1="0" y1="-66" x2="72.5" y2="-66"/>
			<line class="st1" x1="0" y1="-42" x2="72.5" y2="-42"/>
			<line class="st1" x1="0" y1="-18" x2="72.5" y2="-18"/>
			<line class="st1" x1="0" y1="-54" x2="72.5" y2="-54"/>
			<line class="st1" x1="0" y1="-30" x2="72.5" y2="-30"/>
			<line class="st1" x1="0" y1="-6" x2="72.5" y2="-6"/>
		</g>
	</g>
</pattern>
<path class="st2" d="M206.9,129.6c4.6-53.3,46.5-36.9,46.5-69.9c0-29.3,33.8-44.4,70.6-27.8V218l-163.4-0.4
	C160.7,139.6,203.9,164.7,206.9,129.6"/>
<pattern  id="SVGID_3_" xlink:href="#Unnamed_Pattern" patternTransform="matrix(2.4669 0 0 -1.1565 7078.0903 -3240.5669)">
</pattern>
<polygon class="st3" points="184.7,42.3 50.1,106.6 17.8,130.6 279.8,184.8 271.7,135.7 247.1,95.8 "/>
</svg>
