<?xml version="1.0" encoding="utf-8"?>
<!-- Generator: Adobe Illustrator 22.0.0, SVG Export Plug-In . SVG Version: 6.00 Build 0)  -->
<svg version="1.1" id="Layer_4" xmlns="http://www.w3.org/2000/svg" xmlns:xlink="http://www.w3.org/1999/xlink" x="0px" y="0px"
	 viewBox="0 0 664.6 392.5" style="enable-background:new 0 0 664.6 392.5;" xml:space="preserve">
<style type="text/css">
	.st0{fill:none;}
	.st1{clip-path:url(#SVGID_2_);fill:#64ACE0;}
	.st2{fill:url(#SVGID_3_);}
	.st3{opacity:0.52;}
	.st4{clip-path:url(#SVGID_5_);fill:#5BACDD;}
	.st5{fill:#5BACDD;}
</style>
<pattern  x="-1255.4" y="392.5" width="48" height="48" patternUnits="userSpaceOnUse" id="Unnamed_Pattern_6" viewBox="8.4 -56.4 48 48" style="overflow:visible;">
	<g>
		<rect x="8.4" y="-56.4" class="st0" width="48" height="48"/>
		<g>
			<defs>
				<rect id="SVGID_1_" x="8.4" y="-56.4" width="48" height="48"/>
			</defs>
			<clipPath id="SVGID_2_">
				<use xlink:href="#SVGID_1_"  style="overflow:visible;"/>
			</clipPath>
			<path class="st1" d="M8.4-64.8c4.6,0,8.4,3.8,8.4,8.4S13-48,8.4-48C3.8-48,0-51.8,0-56.4S3.8-64.8,8.4-64.8"/>
			<path class="st1" d="M32.4-64.8c4.6,0,8.4,3.8,8.4,8.4S37-48,32.4-48c-4.6,0-8.4-3.8-8.4-8.4S27.8-64.8,32.4-64.8"/>
			<path class="st1" d="M56.4-64.8c4.6,0,8.4,3.8,8.4,8.4S61-48,56.4-48c-4.6,0-8.4-3.8-8.4-8.4S51.8-64.8,56.4-64.8"/>
			<path class="st1" d="M8.4-40.8c4.6,0,8.4,3.8,8.4,8.4S13-24,8.4-24C3.8-24,0-27.8,0-32.4S3.8-40.8,8.4-40.8"/>
			<path class="st1" d="M32.4-40.8c4.6,0,8.4,3.8,8.4,8.4S37-24,32.4-24c-4.6,0-8.4-3.8-8.4-8.4S27.8-40.8,32.4-40.8"/>
			<path class="st1" d="M56.4-40.8c4.6,0,8.4,3.8,8.4,8.4S61-24,56.4-24c-4.6,0-8.4-3.8-8.4-8.4S51.8-40.8,56.4-40.8"/>
			<path class="st1" d="M8.4-16.8c4.6,0,8.4,3.8,8.4,8.4S13,0,8.4,0C3.8,0,0-3.8,0-8.4S3.8-16.8,8.4-16.8"/>
			<path class="st1" d="M32.4-16.8c4.6,0,8.4,3.8,8.4,8.4S37,0,32.4,0C27.8,0,24-3.8,24-8.4S27.8-16.8,32.4-16.8"/>
			<path class="st1" d="M56.4-16.8c4.6,0,8.4,3.8,8.4,8.4S61,0,56.4,0C51.8,0,48-3.8,48-8.4S51.8-16.8,56.4-16.8"/>
			<path class="st1" d="M44.4-52.8c4.6,0,8.4,3.8,8.4,8.4S49-36,44.4-36c-4.6,0-8.4-3.8-8.4-8.4S39.8-52.8,44.4-52.8"/>
			<path class="st1" d="M20.4-52.8c4.6,0,8.4,3.8,8.4,8.4S25-36,20.4-36c-4.6,0-8.4-3.8-8.4-8.4S15.8-52.8,20.4-52.8"/>
			<path class="st1" d="M44.4-28.8c4.6,0,8.4,3.8,8.4,8.4S49-12,44.4-12c-4.6,0-8.4-3.8-8.4-8.4S39.8-28.8,44.4-28.8"/>
			<path class="st1" d="M20.4-28.8c4.6,0,8.4,3.8,8.4,8.4S25-12,20.4-12c-4.6,0-8.4-3.8-8.4-8.4S15.8-28.8,20.4-28.8"/>
		</g>
	</g>
</pattern>
<pattern  id="SVGID_3_" xlink:href="#Unnamed_Pattern_6" patternTransform="matrix(-2.1955 -3.308020e-03 3.308020e-03 -2.1955 -17760.4453 7937.2861)">
</pattern>
<path class="st2" d="M663.6,152.9l1,239.6l-700,2.1c0,0,493.7-0.6,605.7-84.1C634.8,262.5,663.6,152.9,663.6,152.9"/>
<g class="st3">
	<g>
		<defs>
			<rect id="SVGID_4_" x="472.4" y="17" width="193.6" height="307.1"/>
		</defs>
		<clipPath id="SVGID_5_">
			<use xlink:href="#SVGID_4_"  style="overflow:visible;"/>
		</clipPath>
		<path class="st4" d="M573.4,319.8c-22.3-21.6-44.9-43.3-62.9-68.8c-17.4-24.5-30.4-52.9-32.8-83.1c-1.2-14.7,0.2-29.6,4.9-43.7
			c4.1-12.5,10.7-24.2,18.9-34.5c16.8-21.1,39.9-36.9,64.9-46.7c27.7-10.9,57.5-15.9,86.9-19.8c3.4-0.4,6.8-0.9,10.2-1.3
			c1.3-0.2,2.5-1,2.5-2.5c0-1.2-1.2-2.7-2.5-2.5c-30,3.7-60.2,8.1-88.9,17.8c-26.6,9-51.4,23.6-70.5,44.4c-9.2,10-17,21.4-22.4,33.9
			c-5.9,13.6-9,28.2-9.2,43c-0.5,31,10.6,61.3,27.1,87.3c17,26.8,39.4,49.7,62,71.8c2.8,2.7,5.6,5.5,8.4,8.2
			C572.2,325.6,575.7,322.1,573.4,319.8"/>
	</g>
</g>
<path class="st5" d="M603.7,19.2c6.9,3.4,14.2,5.8,21.8,7.2c-0.4-1.4-0.7-2.8-1.1-4.2c-5.9,4.8-11.8,9.7-17.7,14.5
	c-1,0.9-0.9,2.6,0,3.5c1,1,2.5,0.9,3.5,0c5.9-4.8,11.8-9.7,17.7-14.5c1.4-1.2,0.7-3.8-1.1-4.2c-7.1-1.3-14.1-3.6-20.6-6.7
	c-1.2-0.6-2.7-0.3-3.4,0.9C602.1,16.9,602.5,18.6,603.7,19.2"/>
</svg>
