<?xml version="1.0" encoding="utf-8"?>
<!-- Generator: Adobe Illustrator 22.0.0, SVG Export Plug-In . SVG Version: 6.00 Build 0)  -->
<svg version="1.1" id="Layer_2" xmlns="http://www.w3.org/2000/svg" xmlns:xlink="http://www.w3.org/1999/xlink" x="0px" y="0px"
	 viewBox="0 0 538.6 166.1" style="enable-background:new 0 0 538.6 166.1;" xml:space="preserve">
<style type="text/css">
	.st0{fill:none;}
	.st1{clip-path:url(#SVGID_2_);fill:none;stroke:#FFEA00;stroke-width:5;stroke-linecap:round;stroke-dasharray:0,6.5;}
	.st2{clip-path:url(#SVGID_2_);fill:none;stroke:#FFEA00;stroke-width:4.694;stroke-linecap:round;stroke-dasharray:0,6.5;}
	.st3{clip-path:url(#SVGID_2_);fill:none;stroke:#FFEA00;stroke-width:4.388;stroke-linecap:round;stroke-dasharray:0,6.5;}
	.st4{clip-path:url(#SVGID_2_);fill:none;stroke:#FFEA00;stroke-width:4.083;stroke-linecap:round;stroke-dasharray:0,6.5;}
	.st5{clip-path:url(#SVGID_2_);fill:none;stroke:#FFEA00;stroke-width:3.777;stroke-linecap:round;stroke-dasharray:0,6.5;}
	.st6{clip-path:url(#SVGID_2_);fill:none;stroke:#FFEA00;stroke-width:3.472;stroke-linecap:round;stroke-dasharray:0,6.5;}
	.st7{clip-path:url(#SVGID_2_);fill:none;stroke:#FFEA00;stroke-width:3.166;stroke-linecap:round;stroke-dasharray:0,6.5;}
	.st8{clip-path:url(#SVGID_2_);fill:none;stroke:#FFEA00;stroke-width:2.861;stroke-linecap:round;stroke-dasharray:0,6.5;}
	.st9{clip-path:url(#SVGID_2_);fill:none;stroke:#FFEA00;stroke-width:2.555;stroke-linecap:round;stroke-dasharray:0,6.5;}
	.st10{clip-path:url(#SVGID_2_);fill:none;stroke:#FFEA00;stroke-width:2.25;stroke-linecap:round;stroke-dasharray:0,6.5;}
	.st11{clip-path:url(#SVGID_4_);fill:#E51D6F;}
	.st12{fill:url(#SVGID_5_);}
</style>
<pattern  y="1080" width="83" height="65" patternUnits="userSpaceOnUse" id="Unnamed_Pattern_5" viewBox="2.5 -70.6 83 65" style="overflow:visible;">
	<g>
		<rect x="2.5" y="-70.6" class="st0" width="83" height="65"/>
		<g>
			<defs>
				<rect id="SVGID_1_" x="2.5" y="-70.6" width="83" height="65"/>
			</defs>
			<clipPath id="SVGID_2_">
				<use xlink:href="#SVGID_1_"  style="overflow:visible;"/>
			</clipPath>
			<line class="st1" x1="2.5" y1="-5.6" x2="2.5" y2="-71.1"/>
			<line class="st2" x1="7.1" y1="-2.3" x2="7.1" y2="-71.1"/>
			<line class="st3" x1="11.7" y1="-5.6" x2="11.7" y2="-71.1"/>
			<line class="st4" x1="16.3" y1="-2.3" x2="16.3" y2="-71.1"/>
			<line class="st5" x1="20.9" y1="-5.6" x2="20.9" y2="-71.1"/>
			<line class="st6" x1="25.6" y1="-2.3" x2="25.6" y2="-71.1"/>
			<line class="st7" x1="30.2" y1="-5.6" x2="30.2" y2="-71.1"/>
			<line class="st8" x1="34.8" y1="-2.3" x2="34.8" y2="-71.1"/>
			<line class="st9" x1="39.4" y1="-5.6" x2="39.4" y2="-71.1"/>
			<line class="st10" x1="44" y1="-2.3" x2="44" y2="-71.1"/>
			<line class="st1" x1="85.5" y1="-5.6" x2="85.5" y2="-71.1"/>
			<line class="st2" x1="80.9" y1="-2.3" x2="80.9" y2="-71.1"/>
			<line class="st3" x1="76.3" y1="-5.6" x2="76.3" y2="-71.1"/>
			<line class="st4" x1="71.7" y1="-2.3" x2="71.7" y2="-71.1"/>
			<line class="st5" x1="67.1" y1="-5.6" x2="67.1" y2="-71.1"/>
			<line class="st6" x1="62.4" y1="-2.3" x2="62.4" y2="-71.1"/>
			<line class="st7" x1="57.8" y1="-5.6" x2="57.8" y2="-71.1"/>
			<line class="st8" x1="53.2" y1="-2.3" x2="53.2" y2="-71.1"/>
			<line class="st9" x1="48.6" y1="-5.6" x2="48.6" y2="-71.1"/>
		</g>
	</g>
</pattern>
<g>
	<g>
		<defs>
			<rect id="SVGID_3_" x="147.6" y="0.5" width="302" height="159.8"/>
		</defs>
		<clipPath id="SVGID_4_">
			<use xlink:href="#SVGID_3_"  style="overflow:visible;"/>
		</clipPath>
		<polygon class="st11" points="449.5,0.9 259.1,0.5 147.6,57.3 415.7,160.3 		"/>
	</g>
</g>
<pattern  id="SVGID_5_" xlink:href="#Unnamed_Pattern_5" patternTransform="matrix(-1.540260e-02 -2.3328 2.3328 -1.540260e-02 -22685.4336 -23117.9023)">
</pattern>
<path class="st12" d="M500.8,0.5c18.9,61.4-49.1,72.6-94.5,66.3c-46.1-6.4-37.5,52.1-71.7,51.3c-38.9,0.3-26.1-57.2-57.9-58.2
	c-39.9-1.3-19.4-29.9-69.3-59.7L500.8,0.5z"/>
</svg>
