<?xml version="1.0" encoding="utf-8"?>
<!-- Generator: Adobe Illustrator 22.0.0, SVG Export Plug-In . SVG Version: 6.00 Build 0)  -->
<svg version="1.1" id="Layer_5" xmlns="http://www.w3.org/2000/svg" xmlns:xlink="http://www.w3.org/1999/xlink" x="0px" y="0px"
	 viewBox="0 0 310.6 568.5" style="enable-background:new 0 0 310.6 568.5;" xml:space="preserve">
<style type="text/css">
	.st0{fill:none;}
	.st1{clip-path:url(#SVGID_2_);fill:none;stroke:#64ACE0;}
	.st2{opacity:0.23;}
	.st3{clip-path:url(#SVGID_4_);fill:#36A9E1;}
	.st4{fill:#4F266B;}
	.st5{fill:#009FE3;}
	.st6{fill:#EA504C;}
	.st7{fill:#E6007E;}
	.st8{fill:#FFFFFF;}
	.st9{fill:url(#SVGID_5_);}
	.st10{fill:#FDC300;}
</style>
<pattern  y="568.5" width="57.6" height="57.6" patternUnits="userSpaceOnUse" id="Unnamed_Pattern_2" viewBox="3.5 -61.1 57.6 57.6" style="overflow:visible;">
	<g>
		<rect x="3.5" y="-61.1" class="st0" width="57.6" height="57.6"/>
		<g>
			<defs>
				<rect id="SVGID_1_" x="3.5" y="-61.1" width="57.6" height="57.6"/>
			</defs>
			<clipPath id="SVGID_2_">
				<use xlink:href="#SVGID_1_"  style="overflow:visible;"/>
			</clipPath>
			<line class="st1" x1="29.3" y1="-35.3" x2="27.1" y2="-39"/>
			<line class="st1" x1="26.8" y1="-28.5" x2="28.5" y2="-31.7"/>
			<line class="st1" x1="25.3" y1="-30.9" x2="25.5" y2="-35.7"/>
			<line class="st1" x1="34.3" y1="-47.7" x2="35.1" y2="-51.9"/>
			<line class="st1" x1="21" y1="-42.2" x2="20.2" y2="-46.4"/>
			<line class="st1" x1="13.4" y1="-42.7" x2="16.7" y2="-45.4"/>
			<line class="st1" x1="2.1" y1="-40.1" x2="5.4" y2="-42.8"/>
			<line class="st1" x1="21" y1="-37" x2="24.3" y2="-39.7"/>
			<line class="st1" x1="25.2" y1="-46.9" x2="23.7" y2="-42.9"/>
			<line class="st1" x1="13" y1="-45.6" x2="8.8" y2="-49.1"/>
			<line class="st1" x1="18.6" y1="-34.8" x2="22.8" y2="-33.7"/>
			<line class="st1" x1="27.3" y1="-54.4" x2="30.8" y2="-51.9"/>
			<line class="st1" x1="18.6" y1="-56.3" x2="20.8" y2="-52.7"/>
			<line class="st1" x1="37.3" y1="-37.7" x2="39" y2="-41.6"/>
			<line class="st1" x1="45.3" y1="-28.4" x2="44.7" y2="-34.1"/>
			<line class="st1" x1="34.1" y1="-42.4" x2="32" y2="-46.2"/>
			<line class="st1" x1="43.2" y1="-42.3" x2="39.9" y2="-45"/>
			<line class="st1" x1="42.1" y1="-55.6" x2="45.4" y2="-58.3"/>
			<line class="st1" x1="40.4" y1="-36" x2="43.7" y2="-38.7"/>
			<line class="st1" x1="33.6" y1="-38.1" x2="35.1" y2="-34.1"/>
			<line class="st1" x1="37.8" y1="-34" x2="41.4" y2="-31.8"/>
			<line class="st1" x1="13.5" y1="-51.5" x2="16" y2="-48"/>
			<line class="st1" x1="44.5" y1="-23.9" x2="42.1" y2="-27.5"/>
			<line class="st1" x1="17.5" y1="-41.4" x2="15.8" y2="-36.2"/>
			<line class="st1" x1="16.7" y1="-20.7" x2="19.4" y2="-17.4"/>
			<line class="st1" x1="38.2" y1="-25.4" x2="37.8" y2="-30.9"/>
			<line class="st1" x1="25" y1="-26.9" x2="26.9" y2="-22.3"/>
			<line class="st1" x1="29.2" y1="-45.6" x2="27.8" y2="-49.6"/>
			<line class="st1" x1="35.2" y1="-45.2" x2="38.5" y2="-47.9"/>
			<line class="st1" x1="19.9" y1="-25.5" x2="22.5" y2="-30.1"/>
			<line class="st1" x1="28.7" y1="-58.7" x2="32.3" y2="-56.4"/>
			<line class="st1" x1="18.5" y1="-32.5" x2="14.4" y2="-31.4"/>
			<line class="st1" x1="17.9" y1="-23.9" x2="16.3" y2="-26.9"/>
			<line class="st1" x1="49.3" y1="-9.4" x2="49.5" y2="-14.5"/>
			<line class="st1" x1="34" y1="-6.9" x2="37.3" y2="-9.6"/>
			<line class="st1" x1="28.8" y1="-8.9" x2="24.5" y2="-11.9"/>
			<line class="st1" x1="17.3" y1="-5.8" x2="21" y2="-8.4"/>
			<line class="st1" x1="31.4" y1="-20.1" x2="33.5" y2="-23.7"/>
			<line class="st1" x1="33.5" y1="-12.6" x2="33" y2="-16"/>
			<line class="st1" x1="36.8" y1="-12.2" x2="40.8" y2="-13.9"/>
			<line class="st1" x1="29" y1="-13.3" x2="31.2" y2="-9.7"/>
			<line class="st1" x1="51.8" y1="-24.6" x2="47.9" y2="-28"/>
			<line class="st1" x1="21.3" y1="-23.1" x2="23.2" y2="-18.2"/>
			<line class="st1" x1="20.2" y1="-12.1" x2="23.2" y2="-15.1"/>
			<line class="st1" x1="45.7" y1="-8.3" x2="43.5" y2="-12.1"/>
			<line class="st1" x1="48" y1="-18.6" x2="48.1" y2="-22.9"/>
			<line class="st1" x1="44.1" y1="-15.9" x2="48.4" y2="-16.1"/>
			<line class="st1" x1="29.4" y1="-16.5" x2="26.1" y2="-19.2"/>
			<line class="st1" x1="48.8" y1="-34.2" x2="47.1" y2="-38.2"/>
			<line class="st1" x1="53.6" y1="-42.1" x2="54.3" y2="-46.3"/>
			<line class="st1" x1="54.2" y1="-37.1" x2="55.8" y2="-41.1"/>
			<line class="st1" x1="54.3" y1="-50.2" x2="51" y2="-53"/>
			<line class="st1" x1="56.1" y1="-53.8" x2="58.3" y2="-50.1"/>
			<line class="st1" x1="47" y1="-48.8" x2="48" y2="-53.9"/>
			<line class="st1" x1="58.1" y1="-26.9" x2="53.9" y2="-26.6"/>
			<line class="st1" x1="59.9" y1="-43.8" x2="56.6" y2="-46.5"/>
			<line class="st1" x1="51.2" y1="-40" x2="49.4" y2="-43.9"/>
			<line class="st1" x1="57" y1="-29.7" x2="60.1" y2="-32.6"/>
			<line class="st1" x1="11.3" y1="-8.9" x2="8.6" y2="-11.9"/>
			<line class="st1" x1="17.5" y1="-13.8" x2="14.2" y2="-16.5"/>
			<line class="st1" x1="14.7" y1="-6.1" x2="15.9" y2="-10.2"/>
			<line class="st1" x1="51.3" y1="-34.3" x2="55.5" y2="-34.8"/>
			<line class="st1" x1="10.3" y1="-51.4" x2="8.6" y2="-55.3"/>
			<line class="st1" x1="11.8" y1="-56.5" x2="8.5" y2="-59.2"/>
			<line class="st1" x1="9.7" y1="-33.5" x2="12.9" y2="-36.2"/>
			<line class="st1" x1="52.5" y1="-10.7" x2="56.1" y2="-8.4"/>
			<line class="st1" x1="53.7" y1="-13.2" x2="52.3" y2="-17.2"/>
			<line class="st1" x1="2.9" y1="-49.8" x2="6.2" y2="-52.5"/>
			<line class="st1" x1="0.1" y1="-35.7" x2="4.2" y2="-34.5"/>
			<line class="st1" x1="2.4" y1="-25" x2="4.5" y2="-28.6"/>
			<line class="st1" x1="4" y1="-18" x2="8.2" y2="-17"/>
			<line class="st1" x1="6" y1="-32.5" x2="8.2" y2="-28.8"/>
			<line class="st1" x1="9.1" y1="-21.9" x2="5.8" y2="-24.6"/>
			<line class="st1" x1="10.9" y1="-18.5" x2="13" y2="-22.1"/>
			<line class="st1" x1="9.3" y1="-24.6" x2="12" y2="-29.2"/>
			<line class="st1" x1="7.5" y1="-35.9" x2="6.7" y2="-40.1"/>
			<line class="st1" x1="13" y1="-39.1" x2="9" y2="-42.2"/>
			<line class="st1" x1="15" y1="-53.5" x2="15.3" y2="-57.7"/>
			<line class="st1" x1="4.9" y1="-55.1" x2="1.6" y2="-57.9"/>
			<line class="st1" x1="38.3" y1="-16.1" x2="34.3" y2="-19.4"/>
			<line class="st1" x1="40.9" y1="-16.8" x2="43.1" y2="-20.5"/>
			<line class="st1" x1="36.8" y1="-21.1" x2="40.7" y2="-23"/>
			<line class="st1" x1="32" y1="-40.4" x2="28.7" y2="-43.1"/>
			<line class="st1" x1="23.7" y1="-48.2" x2="19.7" y2="-49.8"/>
			<line class="st1" x1="23.5" y1="-53.6" x2="25.5" y2="-57.9"/>
			<line class="st1" x1="39.8" y1="-50.9" x2="43.8" y2="-52.4"/>
			<line class="st1" x1="40.5" y1="-6.6" x2="40.1" y2="-11"/>
			<line class="st1" x1="44.4" y1="-45.2" x2="43.3" y2="-49.3"/>
			<line class="st1" x1="39.7" y1="-53.2" x2="35.6" y2="-54.5"/>
			<line class="st1" x1="36" y1="-27.1" x2="32.2" y2="-31.3"/>
			<line class="st1" x1="53.5" y1="-54.9" x2="55.2" y2="-58.8"/>
			<line class="st1" x1="59.7" y1="-40.1" x2="63" y2="-42.8"/>
			<line class="st1" x1="60.5" y1="-49.8" x2="63.8" y2="-52.5"/>
			<line class="st1" x1="57.7" y1="-35.7" x2="61.8" y2="-34.5"/>
			<line class="st1" x1="60" y1="-25" x2="62.1" y2="-28.6"/>
			<line class="st1" x1="62.5" y1="-55.1" x2="59.2" y2="-57.9"/>
			<line class="st1" x1="54.7" y1="-18.1" x2="56.4" y2="-22"/>
			<line class="st1" x1="63.8" y1="-46.5" x2="59.7" y2="-47.4"/>
			<line class="st1" x1="6.2" y1="-46.5" x2="2.1" y2="-47.4"/>
			<line class="st1" x1="54.4" y1="-29.7" x2="49.3" y2="-30.9"/>
			<line class="st1" x1="9.6" y1="-14.8" x2="13.1" y2="-12.3"/>
			<line class="st1" x1="48.6" y1="-46" x2="51.6" y2="-49"/>
			<line class="st1" x1="56.6" y1="-12.2" x2="58.6" y2="-16"/>
			<line class="st1" x1="5" y1="-21.5" x2="0.7" y2="-21.1"/>
			<line class="st1" x1="62.6" y1="-21.5" x2="58.3" y2="-21.1"/>
			<line class="st1" x1="29.9" y1="-23.4" x2="31" y2="-28.4"/>
			<line class="st1" x1="45.7" y1="-40" x2="46.5" y2="-44.1"/>
			<line class="st1" x1="50.7" y1="-21.5" x2="54.5" y2="-23.6"/>
			<line class="st1" x1="38.5" y1="-57.9" x2="35.5" y2="-56.9"/>
			<line class="st1" x1="24.2" y1="-5.4" x2="23.7" y2="-9.6"/>
			<line class="st1" x1="5.5" y1="-9.1" x2="6.5" y2="-14.4"/>
			<line class="st1" x1="59.8" y1="-11.6" x2="61.3" y2="-7.6"/>
			<line class="st1" x1="2.2" y1="-11.6" x2="3.7" y2="-7.6"/>
			<line class="st1" x1="51.3" y1="-56.3" x2="49.5" y2="-60.1"/>
			<line class="st1" x1="47.9" y1="-63.3" x2="44.2" y2="-61.1"/>
			<line class="st1" x1="33" y1="-58.7" x2="31.2" y2="-64.2"/>
			<line class="st1" x1="25" y1="-60" x2="28" y2="-64.2"/>
			<line class="st1" x1="54.5" y1="-60.9" x2="51.2" y2="-63.6"/>
			<line class="st1" x1="12.1" y1="-59.4" x2="11.1" y2="-63.5"/>
			<line class="st1" x1="18.5" y1="-59.1" x2="15.3" y2="-61.5"/>
			<line class="st1" x1="5.1" y1="-58.9" x2="5.9" y2="-63.1"/>
			<line class="st1" x1="57.5" y1="-63.9" x2="59.7" y2="-60.3"/>
			<line class="st1" x1="37.5" y1="-64.2" x2="37.5" y2="-61"/>
			<line class="st1" x1="20.4" y1="-57.7" x2="21.1" y2="-61.9"/>
			<line class="st1" x1="40.7" y1="-59.3" x2="42.5" y2="-62.6"/>
			<line class="st1" x1="47.9" y1="-5.7" x2="44.2" y2="-3.5"/>
			<line class="st1" x1="33" y1="-1.1" x2="31.2" y2="-6.6"/>
			<line class="st1" x1="25" y1="-2.4" x2="28" y2="-6.6"/>
			<line class="st1" x1="54.5" y1="-3.3" x2="51.2" y2="-6"/>
			<line class="st1" x1="12.1" y1="-1.8" x2="11.1" y2="-5.9"/>
			<line class="st1" x1="18.5" y1="-1.5" x2="15.3" y2="-3.9"/>
			<line class="st1" x1="5.1" y1="-1.4" x2="5.9" y2="-5.5"/>
			<line class="st1" x1="57.5" y1="-6.3" x2="59.7" y2="-2.7"/>
			<line class="st1" x1="37.5" y1="-6.6" x2="37.5" y2="-3.4"/>
			<line class="st1" x1="20.4" y1="-0.1" x2="21.1" y2="-4.3"/>
			<line class="st1" x1="40.7" y1="-1.7" x2="42.5" y2="-5"/>
		</g>
	</g>
</pattern>
<g class="st2">
	<g>
		<defs>
			<rect id="SVGID_3_" x="-1657.7" y="14.7" width="1957.2" height="3798.8"/>
		</defs>
		<clipPath id="SVGID_4_">
			<use xlink:href="#SVGID_3_"  style="overflow:visible;"/>
		</clipPath>
		<path class="st3" d="M260,225.6c34-25.9,44.1-68.5,37.6-109.4c-5.9-37-26.2-79.7-63-94.6c-19.1-7.7-42.8-7.1-63.1-6.6
			c-19.1,0.5-38.4,3-56.7,8.9c-38.7,12.3-69.5,38.9-94,70.6C5,115-8.5,137.2-20.8,160c-13.6,25.1-28.2,51.3-36.9,78.6
			C-74.5,291.4-73,348.4-86,402.1c-14,57.7-60,100.5-116.8,115.8c-50.1,13.5-102.9,9.7-153.5,20.5
			C-471.8,562.9-541,676.9-576.8,780.8c-46.5,135.1-52.3,286.9-23.6,426.3c28.8,140.2,95.8,266.8,145.2,400
			c52.3,141.2,78.9,291.1,87.5,441.1c4.4,76.2,4,152.8-1.3,228.9c-4.1,59.3-7.4,115.1,2.1,174.1c19.6,121.4,65.9,236.9,103.6,353.4
			c18.4,56.8,35.6,114.3,45.6,173.3c9.3,55.1,8.6,108.4-1.4,163.4c-16.5,90.9-53.6,179.1-123.1,242.1
			c-53.2,48.2-119.6,77-187.9,96.7c-55,15.9-112.5,24.5-166.3,44.2c-19,7-38.2,15.7-53.1,29.7c-13.4,12.7-15.8,27.5-24.3,42.7
			c-8.5,15.2-26.3,24.8-41.4,32.2c-23.7,11.8-49.3,19.9-74.7,27.1c-149,42.3-306.4,57.1-459.6,76.6c-67.4,8.6-135,16.7-201.9,28.3
			c-22.8,4-45.6,8.1-67.9,14.6c-11,3.2-26.6,6.9-34.6,16c-6,6.8-5.1,14.6,1.6,20.6c4.8,4.3,11.9-2.8,7.1-7.1
			c-6-5.4-0.5-8.2,6.6-11.9c14.8-7.7,32.4-11,48.6-14.6c58.9-12.9,119.2-20.2,179-28c151.8-19.8,304.9-35.5,454.7-67.9
			c52.6-11.4,109-23.6,156.3-50.5c13.5-7.7,27.8-17.5,35.4-31.5c8.4-15.4,10.5-29.6,24.6-41.9c35.1-30.6,89.7-38.5,133.4-49
			c61.3-14.7,122.8-30.1,179.7-58c64.9-31.8,120.1-79.8,157.7-141.9c48.5-80.1,73.9-183.4,68-276.8c-7-112.6-49-221.5-84.7-327.4
			c-36.8-109.2-78.1-223.6-78.9-340.3c-0.2-31.8,4-63.5,6.1-95.3c2.4-36.9,3.6-74,3.8-111c0.3-74.9-4-149.9-13.1-224.3
			c-17-139.8-52.9-274-106.8-404c-54-130.5-112.7-259.3-127.9-401.5c-15.1-141.7,1.5-296.8,69-424.1c28-52.9,66.5-104.2,119.1-134.6
			c46.5-27,99.8-28.3,151.9-33.2c47-4.4,93.8-13.7,131-44.8c41.8-34.9,55.6-79.6,63.2-131.5c4-27.4,6.9-55,11.7-82.3
			c5.1-28.8,14.5-53.8,27.3-80.1c22.9-47.1,49.2-96.2,88.8-131.6C90.7,39.2,129.7,26.1,171.5,25c20.9-0.5,46.4-1.5,65.3,8.7
			c19.8,10.7,33.5,31.1,41.8,51.4c17.8,43.4,16.4,101.3-23.7,131.9C249.9,220.8,254.9,229.5,260,225.6"/>
	</g>
</g>
<path class="st4" d="M134.1,419.7c5.2,7.9,10.3,16.6,19.1,19.6c0.7,0.4,1.4,0.7,2.1,1c-5.6,7.4-7.2,15.4,3,23.8
	c-13.4-0.4-25.1,3.3-28.8-12.1c-3.2-13.2-8.5-20.6-8.6-30C125.6,419.2,128.7,418.9,134.1,419.7"/>
<path class="st4" d="M261.4,224.4c-10.7,32.7-20.4,18.1-25.5,2c-3-9.5,4.7-14.3,12.7-15.6c6.9-1.1,23,5.7,12.4,12.9"/>
<path class="st4" d="M209.3,220.4c-0.1,4.7,3.6,8.6,8.3,8.6l31.2,0.6c4.7,0.1,8.6-3.6,8.6-8.3c0.1-4.7-3.6-8.6-8.3-8.6l-31.2-0.6
	C213.3,212,209.4,215.7,209.3,220.4"/>
<path class="st4" d="M254.6,240c0,0,4,81.6-12.7,74.6c-29.2-12.3-48.5-66.6-48.5-66.6l-4.7-14.9l43.3,44c0,0,14.7-29.4,11.4-43.6
	C240.1,219.2,254.6,240,254.6,240"/>
<path class="st5" d="M108.9,357.9c-7.9-15.3,9.7-32.1,13.2-46.4c4-16.4-1.5-33.4,1.3-49.9c1.6-9.6,10.6-30,23.4-28.9
	c15.4,1.4,41.9-1.8,52.8,11.1c10.2,12.1,10.8,36.6,5.8,51c-3.4,9.9-13.1,24.1-13,35.9c0.1,10.6,8.6,12.4,7.9,22.8
	c0.4-6.2-46-7.4-50.8-7.6c-16.1-0.8-27.4,2.4-39.7,13.4C109.4,358.8,109.1,358.4,108.9,357.9"/>
<path class="st4" d="M141.8,213.4c3.8-6.1,26.7-3.2,33.3-3.6c5.5-0.3,24.5-2.5,24.5-2.4l25.9,0.4l-0.6,31.8l-25.9,3.5v0.1
	c-0.1,0-0.3,0-0.4,0l-0.1,0v0c-15.4-0.5-28.7-10.6-43.8-10.4c-8.1,0.1-12.9,2.1-13.9-7.7C140.6,222.1,140.2,216,141.8,213.4"/>
<path class="st6" d="M177,193.4c-0.1,4.3,1.9,7.8,4.5,7.9c2.5,0,4.7-3.4,4.7-7.7c0.1-4.3-1.9-7.8-4.5-7.8
	C179.2,185.6,177.1,189.1,177,193.4"/>
<path class="st7" d="M170.6,230.7c-8.1-3.6-16.2-10.6-19.1-16.7c-3.4-7.2-9.8-21.7-10-29.7c-0.2-7.5,2.9-16.7,10-20.3
	c9.4-4.8,22.4-0.1,30.2,6.1c8.8,7.1,7,17.8,9.6,27.9c1.8,6.9-3.2,8.9-5.3,14.8c-2.2,6.1,1.9,12.6-4.5,17.1
	C177.9,232.4,174.2,232.3,170.6,230.7"/>
<path class="st5" d="M132.3,246.2c4.7-5.9,39,14.3,37.7,20.7c-8.8,4.8-18.9,25.2-21.4,35.4C113.8,281.4,126.5,253.5,132.3,246.2"/>
<path class="st7" d="M178.8,216.8c1.4,4.7-0.8,12.1-0.4,17c0.5,5,2.9,6.2,4.8,10.6c2.8,6.6,3.8,19.6,0.1,26.2
	c-6.1-5-13.5-28.9-35.7-37.6c3.9-2.5,6.1-9.7,3.7-17.8c-0.4-1.4-1.9-4.3-1.5-5.6c-0.3,0.6-1,0.9-1.7,0.9c-1.1-0.1-1.7-0.7-2-1.5
	c-0.4-1.1-0.4-1.2-1.3-2c-1.7-1.5-3.2-3.4-4.2-5.5c-0.6-1.4-1.1-2.5-0.8-4.1c0.1-0.7,0.4-2.4,1.1-2.8c2-1.2,5.3,1.5,6.8,2.6
	c2.3,1.7,4.8,4.7,3.7,7.7"/>
<path class="st8" d="M183,212.4c-5.6-1.4-11.8,2.3-17.2-0.8c4.3,5,15.6,13.5,17.2,1.9"/>
<path class="st4" d="M231.4,225.1c0.3,4.2,5.7,7.4,12,7l10.7-0.7c6.4-0.4,11.3-4.2,11.1-8.5l-0.7-11c-0.3-4.2-5.7-7.4-12-7
	l-10.7,0.7c-6,0.4-11.2,5.7-11.1,8.5L231.4,225.1z"/>
<path class="st4" d="M240.1,180.7c-0.1,3.7,2.9,6.8,6.6,6.8l21.9,0.4c3.7,0.1,6.8-2.9,6.8-6.6c0.1-3.7-2.9-6.8-6.6-6.8l-21.9-0.4
	C243.2,174.1,240.2,177,240.1,180.7 M182.1,185.7l-0.3,16.9l23-2.3c1.3,0.6,2.9,0.8,4.4,0.4l24.6-6.4c3.6-0.9,5.7-4.6,4.8-8.2
	c-0.3-1.1-0.9-2.1-1.6-2.9c1.4-0.8,4.4-2.2,4.4-3.9c0-2.5-4-4.7-6.6-4.7l-5.4-0.1c0.1-0.2,0.1-0.5,0.1-0.7l0.1-6.4
	c0-0.2,0-0.4-0.1-0.6l16-3.1c4.4-0.9,7.3-5.1,6.4-9.5c-0.9-4.4-5.1-7.3-9.5-6.4l-22.9,4.5c-4.4,0.9-7.3,5.1-6.4,9.5
	c0.9,4.4,5.1,7.3,9.5,6.4l1.2-0.2l-0.1,5.8c0,0.2,0,0.5,0.1,0.7l-0.5,0c-2.5,0-4.6,2-4.7,4.5c0,2.2,1.5,4,3.5,4.5l-16.5,4.3
	c-1.8,0.5-3.2,1.6-4.1,3C194.1,188.7,182.1,185.7,182.1,185.7"/>
<path class="st5" d="M245,147.8c3.1-0.6,6.3,2.2,7.2,6.3l2.9,0.1l-0.8-5.7l9.3-4.1l2.8,1.5l2.5,17.7l-12.7-0.9l-0.6-4.3l-3.5-0.1
	c-0.6,2.4-2.1,4.3-4.2,4.7c-3.2,0.6-6.4-2.3-7.2-6.5C239.9,152.3,241.8,148.4,245,147.8"/>
<path class="st5" d="M245.8,218.6c0.4,5.5,3.6,9.8,7.3,9.6c3.7-0.2,6.4-4.9,6.1-10.5c-0.3-5.5-3.6-9.8-7.3-9.6
	C248.2,208.4,245.5,213.1,245.8,218.6"/>
<pattern  id="SVGID_5_" xlink:href="#Unnamed_Pattern_2" patternTransform="matrix(2.6147 -0.5466 -0.5466 -2.6147 12948.6904 6671.4609)">
</pattern>
<path class="st9" d="M141,345.5c41.9,3.1,66.5-0.8,70.6,22.6c0.2,1.2-0.4,2.4-0.6,3.6c8.6,8.2,60.5,59.8,34.8,80.1
	c-15.9,12.5-41.3,5.8-58.6,0.3c-9.5-3-19.4-6.4-28.2-11.2c-8.3-4.5-18-8.1-17.1-19.5c0.3-4.3,2.4-4.1,6.1-6.2
	c5.3-3,6.7-10.5,9.8-15.7c4.1-6.8,8.2-13.7,11-21.2c-8.4,14.5-28.4,31.3-46.6,27.5c-14.5-3-19.9-10.4-22.1-24.5
	C97.4,362.5,116.7,343.7,141,345.5"/>
<path class="st10" d="M151.3,437.4c9.9,4.6,19.9,8.2,30,12.2c-0.2,1.4,0,2.4,0.1,3.1c1.3,7.2,8.1,18.7,12.4,18.6
	c7.4-0.2,22.5,8.6,6.2,8.3c-16.2-0.3-27.6,3.3-34.5-5.3c-6.9-8.6-11.8-14.2-15.3-15.8C140.5,453.9,151.3,438.4,151.3,437.4"/>
<path class="st7" d="M141.3,283.2c8.7,5.2,33.6,30.1,51.1,28.7c10.2-0.9,36.9-39.2,41.9-66.6l0,0c8.9-9.9-11.8-34.1,7.3-39.2
	c1.3,0.2,2.5-0.7,2.8-1.9c0.3-1.4-0.5-2.7-1.9-3c-0.6-0.1-1.1-0.2-1.7-0.2c0,0,0,0-0.1,0c-0.2-0.3-0.4-0.6-0.6-1
	c-1-1.4-2.9-3.1-5.7-3.2c-1.8,0-3.7,0.7-5.5,2.1c-0.3,0.2-0.9,0.5-1.6,0.9c-0.1-0.1-0.2-0.2-0.3-0.3c-0.9-0.7-2.1-1.7-4.1-1.8
	c-0.9,0-1.8,0.2-2.6,0.8c-0.8,0.5-1.4,1.3-1.9,2.2c-0.9,1.6-1.4,3.7-1.8,6.6c-2.3,11.5,2.7,15.6,3.9,37.8
	c-2.9,5.1-23.5,41.3-37,38.8c-7.9-1.5-20-16.7-23.4-25.5C151.6,263.2,143.8,273,141.3,283.2"/>
</svg>
