<?xml version="1.0" encoding="utf-8"?>
<!-- Generator: Adobe Illustrator 22.0.0, SVG Export Plug-In . SVG Version: 6.00 Build 0)  -->
<svg version="1.1" id="Layer_2" xmlns="http://www.w3.org/2000/svg" xmlns:xlink="http://www.w3.org/1999/xlink" x="0px" y="0px"
	 viewBox="0 0 544 204" style="enable-background:new 0 0 544 204;" xml:space="preserve">
<style type="text/css">
	.st0{fill:none;}
	.st1{clip-path:url(#SVGID_2_);fill:none;stroke:#FDC300;stroke-width:4.8;}
	.st2{fill:url(#SVGID_3_);}
</style>
<pattern  y="204" width="72" height="72" patternUnits="userSpaceOnUse" id="Unnamed_Pattern" viewBox="0.3 -72 72 72" style="overflow:visible;">
	<g>
		<rect x="0.3" y="-72" class="st0" width="72" height="72"/>
		<g>
			<defs>
				<rect id="SVGID_1_" x="0.3" y="-72" width="72" height="72"/>
			</defs>
			<clipPath id="SVGID_2_">
				<use xlink:href="#SVGID_1_"  style="overflow:visible;"/>
			</clipPath>
			<line class="st1" x1="0" y1="-66" x2="72.5" y2="-66"/>
			<line class="st1" x1="0" y1="-42" x2="72.5" y2="-42"/>
			<line class="st1" x1="0" y1="-18" x2="72.5" y2="-18"/>
			<line class="st1" x1="0" y1="-54" x2="72.5" y2="-54"/>
			<line class="st1" x1="0" y1="-30" x2="72.5" y2="-30"/>
			<line class="st1" x1="0" y1="-6" x2="72.5" y2="-6"/>
		</g>
	</g>
</pattern>
<pattern  id="SVGID_3_" xlink:href="#Unnamed_Pattern" patternTransform="matrix(-6.3231 0 0 2.9643 -450.8537 29.115)">
</pattern>
<path class="st2" d="M437.7,197.8l166.7,6.2c0,0-222-33.4-236.6-117c-11.1-63.5-151.9-66.3-284.4,0C-12.9,135.1,77.8,54.9,0,25v164
	L437.7,197.8z"/>
</svg>
