<?xml version="1.0" encoding="utf-8"?>
<!-- Generator: Adobe Illustrator 22.0.0, SVG Export Plug-In . SVG Version: 6.00 Build 0)  -->
<svg version="1.1" id="Layer_1" xmlns="http://www.w3.org/2000/svg" xmlns:xlink="http://www.w3.org/1999/xlink" x="0px" y="0px"
	 viewBox="0 0 235 147" style="enable-background:new 0 0 235 147;" xml:space="preserve">
<style type="text/css">
	.st0{fill:none;}
	.st1{clip-path:url(#SVGID_2_);fill:none;stroke:#58A9DD;}
	.st2{fill:url(#SVGID_3_);}
</style>
<pattern  x="-580.5" y="602.5" width="57.6" height="57.6" patternUnits="userSpaceOnUse" id="Unnamed_Pattern" viewBox="3.5 -61.1 57.6 57.6" style="overflow:visible;">
	<g>
		<rect x="3.5" y="-61.1" class="st0" width="57.6" height="57.6"/>
		<g>
			<defs>
				<rect id="SVGID_1_" x="3.5" y="-61.1" width="57.6" height="57.6"/>
			</defs>
			<clipPath id="SVGID_2_">
				<use xlink:href="#SVGID_1_"  style="overflow:visible;"/>
			</clipPath>
			<line class="st1" x1="29.3" y1="-35.3" x2="27.1" y2="-39"/>
			<line class="st1" x1="26.8" y1="-28.5" x2="28.5" y2="-31.7"/>
			<line class="st1" x1="25.3" y1="-30.9" x2="25.5" y2="-35.7"/>
			<line class="st1" x1="34.3" y1="-47.7" x2="35.1" y2="-51.9"/>
			<line class="st1" x1="21" y1="-42.2" x2="20.2" y2="-46.4"/>
			<line class="st1" x1="13.4" y1="-42.7" x2="16.7" y2="-45.4"/>
			<line class="st1" x1="2.1" y1="-40.1" x2="5.4" y2="-42.8"/>
			<line class="st1" x1="21" y1="-37" x2="24.3" y2="-39.7"/>
			<line class="st1" x1="25.2" y1="-46.9" x2="23.7" y2="-42.9"/>
			<line class="st1" x1="13" y1="-45.6" x2="8.8" y2="-49.1"/>
			<line class="st1" x1="18.6" y1="-34.8" x2="22.8" y2="-33.7"/>
			<line class="st1" x1="27.3" y1="-54.4" x2="30.8" y2="-51.9"/>
			<line class="st1" x1="18.6" y1="-56.3" x2="20.8" y2="-52.7"/>
			<line class="st1" x1="37.3" y1="-37.7" x2="39" y2="-41.6"/>
			<line class="st1" x1="45.3" y1="-28.4" x2="44.7" y2="-34.1"/>
			<line class="st1" x1="34.1" y1="-42.4" x2="32" y2="-46.2"/>
			<line class="st1" x1="43.2" y1="-42.3" x2="39.9" y2="-45"/>
			<line class="st1" x1="42.1" y1="-55.6" x2="45.4" y2="-58.3"/>
			<line class="st1" x1="40.4" y1="-36" x2="43.7" y2="-38.7"/>
			<line class="st1" x1="33.6" y1="-38.1" x2="35.1" y2="-34.1"/>
			<line class="st1" x1="37.8" y1="-34" x2="41.4" y2="-31.8"/>
			<line class="st1" x1="13.5" y1="-51.5" x2="16" y2="-48"/>
			<line class="st1" x1="44.5" y1="-23.9" x2="42.1" y2="-27.5"/>
			<line class="st1" x1="17.5" y1="-41.4" x2="15.8" y2="-36.2"/>
			<line class="st1" x1="16.7" y1="-20.7" x2="19.4" y2="-17.4"/>
			<line class="st1" x1="38.2" y1="-25.4" x2="37.8" y2="-30.9"/>
			<line class="st1" x1="25" y1="-26.9" x2="26.9" y2="-22.3"/>
			<line class="st1" x1="29.2" y1="-45.6" x2="27.8" y2="-49.6"/>
			<line class="st1" x1="35.2" y1="-45.2" x2="38.5" y2="-47.9"/>
			<line class="st1" x1="19.9" y1="-25.5" x2="22.5" y2="-30.1"/>
			<line class="st1" x1="28.7" y1="-58.7" x2="32.3" y2="-56.4"/>
			<line class="st1" x1="18.5" y1="-32.5" x2="14.4" y2="-31.4"/>
			<line class="st1" x1="17.9" y1="-23.9" x2="16.3" y2="-26.9"/>
			<line class="st1" x1="49.3" y1="-9.4" x2="49.5" y2="-14.5"/>
			<line class="st1" x1="34" y1="-6.9" x2="37.3" y2="-9.6"/>
			<line class="st1" x1="28.8" y1="-8.9" x2="24.5" y2="-11.9"/>
			<line class="st1" x1="17.3" y1="-5.8" x2="21" y2="-8.4"/>
			<line class="st1" x1="31.4" y1="-20.1" x2="33.5" y2="-23.7"/>
			<line class="st1" x1="33.5" y1="-12.6" x2="33" y2="-16"/>
			<line class="st1" x1="36.8" y1="-12.2" x2="40.8" y2="-13.9"/>
			<line class="st1" x1="29" y1="-13.3" x2="31.2" y2="-9.7"/>
			<line class="st1" x1="51.8" y1="-24.6" x2="47.9" y2="-28"/>
			<line class="st1" x1="21.3" y1="-23.1" x2="23.2" y2="-18.2"/>
			<line class="st1" x1="20.2" y1="-12.1" x2="23.2" y2="-15.1"/>
			<line class="st1" x1="45.7" y1="-8.3" x2="43.5" y2="-12.1"/>
			<line class="st1" x1="48" y1="-18.6" x2="48.1" y2="-22.9"/>
			<line class="st1" x1="44.1" y1="-15.9" x2="48.4" y2="-16.1"/>
			<line class="st1" x1="29.4" y1="-16.5" x2="26.1" y2="-19.2"/>
			<line class="st1" x1="48.8" y1="-34.2" x2="47.1" y2="-38.2"/>
			<line class="st1" x1="53.6" y1="-42.1" x2="54.3" y2="-46.3"/>
			<line class="st1" x1="54.2" y1="-37.1" x2="55.8" y2="-41.1"/>
			<line class="st1" x1="54.3" y1="-50.2" x2="51" y2="-53"/>
			<line class="st1" x1="56.1" y1="-53.8" x2="58.3" y2="-50.1"/>
			<line class="st1" x1="47" y1="-48.8" x2="48" y2="-53.9"/>
			<line class="st1" x1="58.1" y1="-26.9" x2="53.9" y2="-26.6"/>
			<line class="st1" x1="59.9" y1="-43.8" x2="56.6" y2="-46.5"/>
			<line class="st1" x1="51.2" y1="-40" x2="49.4" y2="-43.9"/>
			<line class="st1" x1="57" y1="-29.7" x2="60.1" y2="-32.6"/>
			<line class="st1" x1="11.3" y1="-8.9" x2="8.6" y2="-11.9"/>
			<line class="st1" x1="17.5" y1="-13.8" x2="14.2" y2="-16.5"/>
			<line class="st1" x1="14.7" y1="-6.1" x2="15.9" y2="-10.2"/>
			<line class="st1" x1="51.3" y1="-34.3" x2="55.5" y2="-34.8"/>
			<line class="st1" x1="10.3" y1="-51.4" x2="8.6" y2="-55.3"/>
			<line class="st1" x1="11.8" y1="-56.5" x2="8.5" y2="-59.2"/>
			<line class="st1" x1="9.7" y1="-33.5" x2="12.9" y2="-36.2"/>
			<line class="st1" x1="52.5" y1="-10.7" x2="56.1" y2="-8.4"/>
			<line class="st1" x1="53.7" y1="-13.2" x2="52.3" y2="-17.2"/>
			<line class="st1" x1="2.9" y1="-49.8" x2="6.2" y2="-52.5"/>
			<line class="st1" x1="0.1" y1="-35.7" x2="4.2" y2="-34.5"/>
			<line class="st1" x1="2.4" y1="-25" x2="4.5" y2="-28.6"/>
			<line class="st1" x1="4" y1="-18" x2="8.2" y2="-17"/>
			<line class="st1" x1="6" y1="-32.5" x2="8.2" y2="-28.8"/>
			<line class="st1" x1="9.1" y1="-21.9" x2="5.8" y2="-24.6"/>
			<line class="st1" x1="10.9" y1="-18.5" x2="13" y2="-22.1"/>
			<line class="st1" x1="9.3" y1="-24.6" x2="12" y2="-29.2"/>
			<line class="st1" x1="7.5" y1="-35.9" x2="6.7" y2="-40.1"/>
			<line class="st1" x1="13" y1="-39.1" x2="9" y2="-42.2"/>
			<line class="st1" x1="15" y1="-53.5" x2="15.3" y2="-57.7"/>
			<line class="st1" x1="4.9" y1="-55.1" x2="1.6" y2="-57.9"/>
			<line class="st1" x1="38.3" y1="-16.1" x2="34.3" y2="-19.4"/>
			<line class="st1" x1="40.9" y1="-16.8" x2="43.1" y2="-20.5"/>
			<line class="st1" x1="36.8" y1="-21.1" x2="40.7" y2="-23"/>
			<line class="st1" x1="32" y1="-40.4" x2="28.7" y2="-43.1"/>
			<line class="st1" x1="23.7" y1="-48.2" x2="19.7" y2="-49.8"/>
			<line class="st1" x1="23.5" y1="-53.6" x2="25.5" y2="-57.9"/>
			<line class="st1" x1="39.8" y1="-50.9" x2="43.8" y2="-52.4"/>
			<line class="st1" x1="40.5" y1="-6.6" x2="40.1" y2="-11"/>
			<line class="st1" x1="44.4" y1="-45.2" x2="43.3" y2="-49.3"/>
			<line class="st1" x1="39.7" y1="-53.2" x2="35.6" y2="-54.5"/>
			<line class="st1" x1="36" y1="-27.1" x2="32.2" y2="-31.3"/>
			<line class="st1" x1="53.5" y1="-54.9" x2="55.2" y2="-58.8"/>
			<line class="st1" x1="59.7" y1="-40.1" x2="63" y2="-42.8"/>
			<line class="st1" x1="60.5" y1="-49.8" x2="63.8" y2="-52.5"/>
			<line class="st1" x1="57.7" y1="-35.7" x2="61.8" y2="-34.5"/>
			<line class="st1" x1="60" y1="-25" x2="62.1" y2="-28.6"/>
			<line class="st1" x1="62.5" y1="-55.1" x2="59.2" y2="-57.9"/>
			<line class="st1" x1="54.7" y1="-18.1" x2="56.4" y2="-22"/>
			<line class="st1" x1="63.8" y1="-46.5" x2="59.7" y2="-47.4"/>
			<line class="st1" x1="6.2" y1="-46.5" x2="2.1" y2="-47.4"/>
			<line class="st1" x1="54.4" y1="-29.7" x2="49.3" y2="-30.9"/>
			<line class="st1" x1="9.6" y1="-14.8" x2="13.1" y2="-12.3"/>
			<line class="st1" x1="48.6" y1="-46" x2="51.6" y2="-49"/>
			<line class="st1" x1="56.6" y1="-12.2" x2="58.6" y2="-16"/>
			<line class="st1" x1="5" y1="-21.5" x2="0.7" y2="-21.1"/>
			<line class="st1" x1="62.6" y1="-21.5" x2="58.3" y2="-21.1"/>
			<line class="st1" x1="29.9" y1="-23.4" x2="31" y2="-28.4"/>
			<line class="st1" x1="45.7" y1="-40" x2="46.5" y2="-44.1"/>
			<line class="st1" x1="50.7" y1="-21.5" x2="54.5" y2="-23.6"/>
			<line class="st1" x1="38.5" y1="-57.9" x2="35.5" y2="-56.9"/>
			<line class="st1" x1="24.2" y1="-5.4" x2="23.7" y2="-9.6"/>
			<line class="st1" x1="5.5" y1="-9.1" x2="6.5" y2="-14.4"/>
			<line class="st1" x1="59.8" y1="-11.6" x2="61.3" y2="-7.6"/>
			<line class="st1" x1="2.2" y1="-11.6" x2="3.7" y2="-7.6"/>
			<line class="st1" x1="51.3" y1="-56.3" x2="49.5" y2="-60.1"/>
			<line class="st1" x1="47.9" y1="-63.3" x2="44.2" y2="-61.1"/>
			<line class="st1" x1="33" y1="-58.7" x2="31.2" y2="-64.2"/>
			<line class="st1" x1="25" y1="-60" x2="28" y2="-64.2"/>
			<line class="st1" x1="54.5" y1="-60.9" x2="51.2" y2="-63.6"/>
			<line class="st1" x1="12.1" y1="-59.4" x2="11.1" y2="-63.5"/>
			<line class="st1" x1="18.5" y1="-59.1" x2="15.3" y2="-61.5"/>
			<line class="st1" x1="5.1" y1="-58.9" x2="5.9" y2="-63.1"/>
			<line class="st1" x1="57.5" y1="-63.9" x2="59.7" y2="-60.3"/>
			<line class="st1" x1="37.5" y1="-64.2" x2="37.5" y2="-61"/>
			<line class="st1" x1="20.4" y1="-57.7" x2="21.1" y2="-61.9"/>
			<line class="st1" x1="40.7" y1="-59.3" x2="42.5" y2="-62.6"/>
			<line class="st1" x1="47.9" y1="-5.7" x2="44.2" y2="-3.5"/>
			<line class="st1" x1="33" y1="-1.1" x2="31.2" y2="-6.6"/>
			<line class="st1" x1="25" y1="-2.4" x2="28" y2="-6.6"/>
			<line class="st1" x1="54.5" y1="-3.3" x2="51.2" y2="-6"/>
			<line class="st1" x1="12.1" y1="-1.8" x2="11.1" y2="-5.9"/>
			<line class="st1" x1="18.5" y1="-1.5" x2="15.3" y2="-3.9"/>
			<line class="st1" x1="5.1" y1="-1.4" x2="5.9" y2="-5.5"/>
			<line class="st1" x1="57.5" y1="-6.3" x2="59.7" y2="-2.7"/>
			<line class="st1" x1="37.5" y1="-6.6" x2="37.5" y2="-3.4"/>
			<line class="st1" x1="20.4" y1="-0.1" x2="21.1" y2="-4.3"/>
			<line class="st1" x1="40.7" y1="-1.7" x2="42.5" y2="-5"/>
		</g>
	</g>
</pattern>
<pattern  id="SVGID_3_" xlink:href="#Unnamed_Pattern" patternTransform="matrix(1.7264 0.2617 -0.2617 1.7264 6246.2822 -20226.6172)">
</pattern>
<path class="st2" d="M235,132.5c-69.1-88.7-90,17-140.5-24C70.4,88.9,135.5,28,94,32C0.1,41.1,7.4-2.4,7.4-2.4L234.8-2L235,132.5z"
	/>
</svg>
