<?xml version="1.0" encoding="utf-8"?>
<!-- Generator: Adobe Illustrator 22.0.0, SVG Export Plug-In . SVG Version: 6.00 Build 0)  -->
<svg version="1.1" id="Layer_1" xmlns="http://www.w3.org/2000/svg" xmlns:xlink="http://www.w3.org/1999/xlink" x="0px" y="0px"
	 viewBox="0 0 368 92" style="enable-background:new 0 0 368 92;" xml:space="preserve">
<style type="text/css">
	.st0{fill:none;}
	.st1{clip-path:url(#SVGID_2_);fill:none;stroke:#FCED00;stroke-width:5;stroke-linecap:round;stroke-dasharray:0,6.5;}
	.st2{clip-path:url(#SVGID_2_);fill:none;stroke:#FCED00;stroke-width:4.694;stroke-linecap:round;stroke-dasharray:0,6.5;}
	.st3{clip-path:url(#SVGID_2_);fill:none;stroke:#FCED00;stroke-width:4.388;stroke-linecap:round;stroke-dasharray:0,6.5;}
	.st4{clip-path:url(#SVGID_2_);fill:none;stroke:#FCED00;stroke-width:4.083;stroke-linecap:round;stroke-dasharray:0,6.5;}
	.st5{clip-path:url(#SVGID_2_);fill:none;stroke:#FCED00;stroke-width:3.777;stroke-linecap:round;stroke-dasharray:0,6.5;}
	.st6{clip-path:url(#SVGID_2_);fill:none;stroke:#FCED00;stroke-width:3.472;stroke-linecap:round;stroke-dasharray:0,6.5;}
	.st7{clip-path:url(#SVGID_2_);fill:none;stroke:#FCED00;stroke-width:3.166;stroke-linecap:round;stroke-dasharray:0,6.5;}
	.st8{clip-path:url(#SVGID_2_);fill:none;stroke:#FCED00;stroke-width:2.861;stroke-linecap:round;stroke-dasharray:0,6.5;}
	.st9{clip-path:url(#SVGID_2_);fill:none;stroke:#FCED00;stroke-width:2.555;stroke-linecap:round;stroke-dasharray:0,6.5;}
	.st10{clip-path:url(#SVGID_2_);fill:none;stroke:#FCED00;stroke-width:2.25;stroke-linecap:round;stroke-dasharray:0,6.5;}
	.st11{fill:url(#SVGID_3_);}
</style>
<pattern  x="-182.5" y="287.5" width="83" height="65" patternUnits="userSpaceOnUse" id="Unnamed_Pattern_2" viewBox="2.5 -70.6 83 65" style="overflow:visible;">
	<g>
		<rect x="2.5" y="-70.6" class="st0" width="83" height="65"/>
		<g>
			<defs>
				<rect id="SVGID_1_" x="2.5" y="-70.6" width="83" height="65"/>
			</defs>
			<clipPath id="SVGID_2_">
				<use xlink:href="#SVGID_1_"  style="overflow:visible;"/>
			</clipPath>
			<line class="st1" x1="2.5" y1="-5.6" x2="2.5" y2="-71.1"/>
			<line class="st2" x1="7.1" y1="-2.3" x2="7.1" y2="-71.1"/>
			<line class="st3" x1="11.7" y1="-5.6" x2="11.7" y2="-71.1"/>
			<line class="st4" x1="16.3" y1="-2.3" x2="16.3" y2="-71.1"/>
			<line class="st5" x1="20.9" y1="-5.6" x2="20.9" y2="-71.1"/>
			<line class="st6" x1="25.6" y1="-2.3" x2="25.6" y2="-71.1"/>
			<line class="st7" x1="30.2" y1="-5.6" x2="30.2" y2="-71.1"/>
			<line class="st8" x1="34.8" y1="-2.3" x2="34.8" y2="-71.1"/>
			<line class="st9" x1="39.4" y1="-5.6" x2="39.4" y2="-71.1"/>
			<line class="st10" x1="44" y1="-2.3" x2="44" y2="-71.1"/>
			<line class="st1" x1="85.5" y1="-5.6" x2="85.5" y2="-71.1"/>
			<line class="st2" x1="80.9" y1="-2.3" x2="80.9" y2="-71.1"/>
			<line class="st3" x1="76.3" y1="-5.6" x2="76.3" y2="-71.1"/>
			<line class="st4" x1="71.7" y1="-2.3" x2="71.7" y2="-71.1"/>
			<line class="st5" x1="67.1" y1="-5.6" x2="67.1" y2="-71.1"/>
			<line class="st6" x1="62.4" y1="-2.3" x2="62.4" y2="-71.1"/>
			<line class="st7" x1="57.8" y1="-5.6" x2="57.8" y2="-71.1"/>
			<line class="st8" x1="53.2" y1="-2.3" x2="53.2" y2="-71.1"/>
			<line class="st9" x1="48.6" y1="-5.6" x2="48.6" y2="-71.1"/>
		</g>
	</g>
</pattern>
<pattern  id="SVGID_3_" xlink:href="#Unnamed_Pattern_2" patternTransform="matrix(-0.9963 3.3655 -3.3655 -0.9963 9009.8887 26992.1602)">
</pattern>
<polygon class="st11" points="362.3,92 1.8,92.5 2.3,58 75.3,4.5 "/>
</svg>
