<?xml version="1.0" encoding="utf-8"?>
<!-- Generator: Adobe Illustrator 22.0.0, SVG Export Plug-In . SVG Version: 6.00 Build 0)  -->
<svg version="1.1" id="Layer_1" xmlns="http://www.w3.org/2000/svg" xmlns:xlink="http://www.w3.org/1999/xlink" x="0px" y="0px"
	 viewBox="0 0 255 92" style="enable-background:new 0 0 255 92;" xml:space="preserve">
<style type="text/css">
	.st0{fill:none;}
	.st1{clip-path:url(#SVGID_2_);fill:none;stroke:#F05B55;stroke-width:0.75;}
	.st2{fill:url(#SVGID_3_);}
</style>
<pattern  x="-560.5" y="287.5" width="72" height="72" patternUnits="userSpaceOnUse" id="Unnamed_Pattern_4" viewBox="10.1 -84.2 72 72" style="overflow:visible;">
	<g>
		<rect x="10.1" y="-84.2" class="st0" width="72" height="72"/>
		<g>
			<defs>
				<rect id="SVGID_1_" x="10.1" y="-84.2" width="72" height="72"/>
			</defs>
			<clipPath id="SVGID_2_">
				<use xlink:href="#SVGID_1_"  style="overflow:visible;"/>
			</clipPath>
			<path class="st1" d="M23.4-27.7c0,0,3.8,1.7,4.5-2.1c0.7-3.8,2.6-3.5,4.8-2.2c2.2,1.3,4.6,0.7,5.1-2.4"/>
			<path class="st1" d="M76.1-40.9c0,0-2.6-3.3-5-0.2c-2.4,3.1-3.9,1.9-5.3-0.2c-1.4-2.1-3.7-2.7-5.7-0.2"/>
			<path class="st1" d="M49.1-41.3c0,0-3.8,1.7-1.5,4.7c2.4,3.1,0.9,4.3-1.6,5.1c-2.4,0.8-3.6,2.9-1.7,5.4"/>
			<path class="st1" d="M51.2-37c0,0,4.1,0.9,2.4,4.4c-1.7,3.5,0,4.4,2.5,4.7c2.5,0.3,4.1,2.1,2.7,5"/>
			<path class="st1" d="M65.2-27.1c0,0,4.1,0.9,2.4,4.4c-1.7,3.5,0,4.4,2.5,4.7c2.5,0.3,4.1,2.1,2.7,5"/>
			<path class="st1" d="M37.5-46.4c0,0,3.7,2,1.1,4.8c-2.6,2.9-1.2,4.2,1.1,5.2c2.4,1,3.4,3.2,1.2,5.5"/>
			<path class="st1" d="M20.5-35.1c0,0,1.3-4-2.6-4.2c-3.9-0.3-3.8-2.2-2.8-4.5c1-2.3,0.2-4.6-2.9-4.8"/>
			<path class="st1" d="M17.6-53.4c0,0-2,3.6,1.7,4.6c3.8,1,3.3,2.9,1.8,5c-1.4,2.1-1.1,4.5,2,5.3"/>
			<path class="st1" d="M30.5-29.2c0,0,1.3,3.9,4.6,1.8c3.3-2.1,4.3-0.5,4.9,2c0.6,2.5,2.6,3.8,5.3,2.1"/>
			<path class="st1" d="M22.4-56.7c0,0-1.8,3.8,2,4.5c3.8,0.7,3.5,2.6,2.2,4.8c-1.3,2.2-0.8,4.6,2.3,5.2"/>
			<path class="st1" d="M34.1-50.9c0,0-3.4,2.4-0.5,4.9c2.9,2.6,1.7,4-0.5,5.3c-2.2,1.3-3,3.5-0.6,5.6"/>
			<path class="st1" d="M21.1-71.8c0,0,0.3,4.2,4,2.9c3.7-1.2,4.3,0.6,4.3,3.1c-0.1,2.6,1.6,4.4,4.6,3.4"/>
			<path class="st1" d="M39.6-65.1c0,0-0.4-4.2-4-2.9c-3.7,1.3-4.3-0.5-4.3-3.1c0-2.6-1.6-4.3-4.6-3.3"/>
			<path class="st1" d="M29.8-39.5c0,0-4.2-0.2-3.4,3.6s-1.1,4.2-3.6,3.9c-2.5-0.3-4.5,1-3.9,4.1"/>
			<path class="st1" d="M42.8-40.2c0,0-1.5-3.9,2.4-4.4c3.9-0.5,3.7-2.4,2.5-4.7c-1.1-2.3-0.4-4.6,2.7-5"/>
			<path class="st1" d="M13.4-57.9c0,0,1.9-3.7,4.8-1.1c2.9,2.6,4.2,1.2,5.2-1.2c1-2.4,3.1-3.4,5.5-1.3"/>
			<path class="st1" d="M61.1-23.6c0,0-1.9,3.7,1.9,4.6c3.8,0.8,3.4,2.7,2.1,4.9c-1.3,2.2-0.9,4.5,2.2,5.2"/>
			<path class="st1" d="M61.1-95.6c0,0-1.9,3.7,1.9,4.6c3.8,0.8,3.4,2.7,2.1,4.9c-1.3,2.2-0.9,4.5,2.2,5.2"/>
			<path class="st1" d="M74.7-22.2c0,0,2.5-3.4-1.1-4.8c-3.6-1.5-2.9-3.3-1.2-5.2c1.7-1.9,1.6-4.3-1.3-5.5"/>
			<path class="st1" d="M70-26.5c0,0-4.1-0.8-2.4-4.3c1.7-3.5,0-4.4-2.6-4.6c-2.5-0.3-4.1-2.1-2.7-5"/>
			<path class="st1" d="M27.2-12.9c0,0,4.2-0.2,3-3.9c-1.1-3.7,0.7-4.3,3.3-4.2c2.5,0.1,4.4-1.4,3.5-4.5"/>
			<path class="st1" d="M49.5-27.9c0,0-4.1,1-2.2,4.4c1.8,3.4,0.1,4.4-2.4,4.7c-2.5,0.4-4,2.3-2.6,5.1"/>
			<path class="st1" d="M28.1-20.1c0,0-4,1.3-4.2-2.6c-0.2-3.9-2.2-3.8-4.5-2.8c-2.3,1-4.6,0.2-4.8-3"/>
			<path class="st1" d="M18.5-76.3c0,0,1-4.1-2.9-4c-3.9,0.1-3.9-1.9-3.1-4.3c0.8-2.4-0.2-4.6-3.3-4.6"/>
			<path class="st1" d="M18.5-4.3c0,0,1-4.1-2.9-4c-3.9,0.1-3.9-1.9-3.1-4.3c0.8-2.4-0.2-4.6-3.3-4.6"/>
			<path class="st1" d="M80.4-45.7c0,0-2.3-3.5-4.9-0.7c-2.6,2.8-4.1,1.6-5.3-0.7c-1.2-2.3-3.5-3.1-5.6-0.7"/>
			<path class="st1" d="M60.5-13.8c0,0,1-4.1-2.9-4c-3.9,0.1-3.9-1.9-3.1-4.3c0.8-2.4-0.2-4.6-3.3-4.6"/>
			<path class="st1" d="M54-44c0,0-1.6,3.8,2.2,4.4c3.8,0.6,3.6,2.5,2.4,4.8c-1.2,2.2-0.6,4.6,2.5,5.1"/>
			<path class="st1" d="M85-45.8c0,0-4.1,0.4-2.8,4.1c1.3,3.6-0.5,4.3-3,4.4c-2.6,0-4.3,1.7-3.2,4.7"/>
			<path class="st1" d="M13-45.8c0,0-4.1,0.4-2.8,4.1c1.3,3.6-0.5,4.3-3,4.4c-2.6,0-4.3,1.7-3.2,4.7"/>
			<path class="st1" d="M72.2-50.4c0,0,3.5,2.3,4.8-1.3c1.3-3.7,3.1-3,5.1-1.4c2,1.6,4.4,1.5,5.5-1.5"/>
			<path class="st1" d="M0.2-50.4c0,0,3.5,2.3,4.8-1.3c1.3-3.7,3.1-3,5.1-1.4c2,1.6,4.4,1.5,5.5-1.5"/>
			<path class="st1" d="M81.8-74.9c0,0-0.8-4.1-4.3-2.5c-3.5,1.6-4.4-0.1-4.6-2.7c-0.2-2.5-2-4.2-4.9-2.8"/>
			<path class="st1" d="M38.9-56.2c0,0,4.1-0.6,2.7-4.2c-1.4-3.6,0.3-4.4,2.9-4.5c2.6-0.1,4.3-1.8,3.1-4.8"/>
			<path class="st1" d="M24.9-55.6c0,0,1.2-4,4.5-2c3.3,2,4.3,0.4,4.9-2.1c0.5-2.5,2.5-3.9,5.2-2.3"/>
			<path class="st1" d="M11.9-72.2c0,0,1.2-4,4.5-2c3.3,2,4.3,0.4,4.9-2.1c0.5-2.5,2.5-3.9,5.2-2.3"/>
			<path class="st1" d="M48-81.2c0,0,4.2,0.4,2.9,4c-1.3,3.7,0.5,4.3,3.1,4.3c2.6,0,4.3,1.6,3.3,4.6"/>
			<path class="st1" d="M44.6-72.3c0,0,3.2-2.7,0.1-5c-3.1-2.3-2-3.9,0.1-5.3c2.1-1.4,2.6-3.8,0.1-5.7"/>
			<path class="st1" d="M60.9-75.8c0,0-3.4,2.5-0.4,4.9c3,2.5,1.8,4-0.4,5.3c-2.2,1.3-2.9,3.6-0.4,5.6"/>
			<path class="st1" d="M66-71.6c0,0,2.8,3.1,5-0.2c2.1-3.2,3.8-2.2,5.3-0.2c1.5,2,3.9,2.5,5.7-0.2"/>
			<path class="st1" d="M50.3-44.7c0,0,4.2-0.2,3-3.9c-1.2-3.7,0.7-4.3,3.2-4.2c2.6,0.1,4.4-1.5,3.4-4.5"/>
			<path class="st1" d="M41.8-52.6c0,0-0.4-4.2,3.4-3.6c3.8,0.6,4.2-1.3,3.7-3.8c-0.5-2.5,0.8-4.6,3.9-4.1"/>
			<path class="st1" d="M29.6-54.9c0,0,1.1,4,4.5,2.2c3.4-1.9,4.4-0.2,4.8,2.3c0.4,2.5,2.3,4,5.1,2.5"/>
			<path class="st1" d="M11.3-25.4c0,0,4.2,0.2,3,3.9c-1.1,3.7,0.7,4.3,3.2,4.2c2.6-0.1,4.4,1.5,3.5,4.5"/>
			<path class="st1" d="M45.8-69.9c0,0-3.8,1.7-4.5-2.2c-0.6-3.8-2.5-3.5-4.8-2.3c-2.2,1.2-4.6,0.7-5.1-2.5"/>
			<path class="st1" d="M21.9-65c0,0-1.6,3.9-4.7,1.5c-3.1-2.3-4.3-0.8-5,1.7c-0.7,2.4-2.8,3.7-5.4,1.8"/>
			<path class="st1" d="M93.9-65c0,0-1.6,3.9-4.7,1.5c-3.1-2.3-4.3-0.8-5,1.7c-0.7,2.4-2.8,3.7-5.4,1.8"/>
			<path class="st1" d="M77.8-61c0,0-1-4-4.4-2.2c-3.4,1.8-4.4,0.2-4.8-2.4c-0.4-2.5-2.3-4-5.1-2.5"/>
			<path class="st1" d="M69.7-73c0,0-0.1-4.2-3.9-3.1c-3.7,1.1-4.3-0.8-4.1-3.3c0.2-2.5-1.4-4.4-4.4-3.6"/>
			<path class="st1" d="M61.4-60.1c0,0,2,3.6,4.9,1c2.8-2.6,4.2-1.3,5.2,1.1c1,2.3,3.2,3.3,5.5,1.1"/>
			<path class="st1" d="M51.4-71.3c0,0-2,3.7,1.8,4.6c3.8,0.9,3.3,2.8,1.9,4.9c-1.4,2.1-1,4.5,2.1,5.3"/>
			<path class="st1" d="M72.1-95.7c0,0-1.3,4,2.6,4.2c3.9,0.3,3.8,2.2,2.8,4.5c-1,2.3-0.2,4.6,2.9,4.8"/>
			<path class="st1" d="M72.1-23.7c0,0-1.3,4,2.6,4.2c3.9,0.3,3.8,2.2,2.8,4.5c-1,2.3-0.2,4.6,2.9,4.8"/>
			<path class="st1" d="M56.5-46.2c0,0,4.1,0.8,3.9-3.1c-0.2-3.9,1.7-4,4.2-3.3c2.4,0.7,4.6-0.3,4.4-3.5"/>
			<path class="st1" d="M76.7-25c0,0,4.1,0.5,3.7-3.3c-0.5-3.9,1.4-4.1,3.9-3.6c2.5,0.6,4.6-0.7,4.2-3.8"/>
			<path class="st1" d="M4.7-25c0,0,4.1,0.5,3.7-3.3c-0.5-3.9,1.4-4.1,3.9-3.6c2.5,0.6,4.6-0.7,4.2-3.8"/>
			<path class="st1" d="M75.2-66c0,0,2.4-3.4,4.9-0.5c2.5,3,4,1.7,5.3-0.5c1.3-2.2,3.6-2.9,5.6-0.5"/>
			<path class="st1" d="M3.2-66c0,0,2.4-3.4,4.9-0.5c2.5,3,4,1.7,5.3-0.5c1.3-2.2,3.6-2.9,5.6-0.5"/>
			<path class="st1" d="M90.5-4.3c0,0,1-4.1-2.9-4c-3.9,0.1-3.9-1.9-3.1-4.3c0.8-2.4-0.2-4.6-3.3-4.6"/>
			<path class="st1" d="M55.6-75c0,0-3.7-1.9-1.2-4.8c2.5-2.9,1.1-4.2-1.3-5.2c-2.4-0.9-3.4-3.1-1.4-5.5"/>
			<path class="st1" d="M38.3-92.5c0,0-3.6,2.2-0.8,4.9c2.8,2.7,1.4,4.1-0.9,5.2c-2.3,1.1-3.2,3.4-0.9,5.6"/>
			<path class="st1" d="M44.6-0.3c0,0,3.2-2.7,0.1-5c-3.1-2.3-2-3.9,0.1-5.3c2.1-1.4,2.6-3.8,0.1-5.7"/>
			<path class="st1" d="M55.6-3c0,0-3.7-1.9-1.2-4.8c2.5-2.9,1.1-4.2-1.3-5.2c-2.4-0.9-3.4-3.1-1.4-5.5"/>
			<path class="st1" d="M30.1-5.9c0,0,1.2-4-2.7-4.2c-3.9-0.2-3.8-2.1-2.9-4.5c1-2.4,0.1-4.6-3.1-4.8"/>
			<path class="st1" d="M38.3-20.5c0,0-3.6,2.2-0.8,4.9c2.8,2.7,1.4,4.1-0.9,5.2c-2.3,1.1-3.2,3.4-0.9,5.6"/>
			<path class="st1" d="M30.1-77.9c0,0,1.2-4-2.7-4.2c-3.9-0.2-3.8-2.1-2.9-4.5c1-2.4,0.1-4.6-3.1-4.8"/>
		</g>
	</g>
</pattern>
<pattern  id="SVGID_3_" xlink:href="#Unnamed_Pattern_4" patternTransform="matrix(1.8762 0.4824 -0.4824 1.8762 9056.1748 -18967.8691)">
</pattern>
<path class="st2" d="M255.2,35.3c-8.1,0.5-17.4,2.6-27.9,6.6C146.3,73,26.8,11,11.3,43c-0.4,0.8,1.5,49,1.5,49
	c102.5,0,243,0.5,243,0.5S255.2,77,255.2,35.3"/>
</svg>
