<?xml version="1.0" encoding="utf-8"?>
<!-- Generator: Adobe Illustrator 22.0.0, SVG Export Plug-In . SVG Version: 6.00 Build 0)  -->
<svg version="1.1" xmlns="http://www.w3.org/2000/svg" xmlns:xlink="http://www.w3.org/1999/xlink" x="0px" y="0px"
	 viewBox="0 0 500 290" style="enable-background:new 0 0 500 290;" xml:space="preserve">
<style type="text/css">
	.st0{fill:none;}
	.st1{clip-path:url(#SVGID_2_);fill:none;stroke:#FFEA00;stroke-width:5;stroke-linecap:round;stroke-dasharray:0,6.5;}
	.st2{clip-path:url(#SVGID_2_);fill:none;stroke:#FFEA00;stroke-width:4.694;stroke-linecap:round;stroke-dasharray:0,6.5;}
	.st3{clip-path:url(#SVGID_2_);fill:none;stroke:#FFEA00;stroke-width:4.388;stroke-linecap:round;stroke-dasharray:0,6.5;}
	.st4{clip-path:url(#SVGID_2_);fill:none;stroke:#FFEA00;stroke-width:4.083;stroke-linecap:round;stroke-dasharray:0,6.5;}
	.st5{clip-path:url(#SVGID_2_);fill:none;stroke:#FFEA00;stroke-width:3.777;stroke-linecap:round;stroke-dasharray:0,6.5;}
	.st6{clip-path:url(#SVGID_2_);fill:none;stroke:#FFEA00;stroke-width:3.472;stroke-linecap:round;stroke-dasharray:0,6.5;}
	.st7{clip-path:url(#SVGID_2_);fill:none;stroke:#FFEA00;stroke-width:3.166;stroke-linecap:round;stroke-dasharray:0,6.5;}
	.st8{clip-path:url(#SVGID_2_);fill:none;stroke:#FFEA00;stroke-width:2.861;stroke-linecap:round;stroke-dasharray:0,6.5;}
	.st9{clip-path:url(#SVGID_2_);fill:none;stroke:#FFEA00;stroke-width:2.555;stroke-linecap:round;stroke-dasharray:0,6.5;}
	.st10{clip-path:url(#SVGID_2_);fill:none;stroke:#FFEA00;stroke-width:2.25;stroke-linecap:round;stroke-dasharray:0,6.5;}
	.st11{clip-path:url(#SVGID_4_);fill:none;stroke:#5BA9DD;}
	.st12{clip-path:url(#SVGID_6_);fill:none;stroke:#EA504C;stroke-width:0.75;}
	.st13{fill:url(#SVGID_7_);}
	.st14{fill:url(#SVGID_8_);}
	.st15{fill:url(#SVGID_9_);}
	.st16{fill:none;stroke:#FFFFFF;stroke-width:9;}
	.st17{display:none;}
	.st18{display:inline;fill:#020203;}
	.st19{font-family:'Migrena_Grotesque-Black';}
	.st20{font-size:50.8546px;}
	.st21{fill:#020203;}
</style>
<pattern  x="-256.7" y="-134.3" width="83" height="65" patternUnits="userSpaceOnUse" id="Unnamed_Pattern" viewBox="2.5 -70.6 83 65" style="overflow:visible;">
	<g>
		<rect x="2.5" y="-70.6" class="st0" width="83" height="65"/>
		<g>
			<defs>
				<rect id="SVGID_1_" x="2.5" y="-70.6" width="83" height="65"/>
			</defs>
			<clipPath id="SVGID_2_">
				<use xlink:href="#SVGID_1_"  style="overflow:visible;"/>
			</clipPath>
			<line class="st1" x1="2.5" y1="-5.6" x2="2.5" y2="-71.1"/>
			<line class="st2" x1="7.1" y1="-2.3" x2="7.1" y2="-71.1"/>
			<line class="st3" x1="11.7" y1="-5.6" x2="11.7" y2="-71.1"/>
			<line class="st4" x1="16.3" y1="-2.3" x2="16.3" y2="-71.1"/>
			<line class="st5" x1="20.9" y1="-5.6" x2="20.9" y2="-71.1"/>
			<line class="st6" x1="25.6" y1="-2.3" x2="25.6" y2="-71.1"/>
			<line class="st7" x1="30.2" y1="-5.6" x2="30.2" y2="-71.1"/>
			<line class="st8" x1="34.8" y1="-2.3" x2="34.8" y2="-71.1"/>
			<line class="st9" x1="39.4" y1="-5.6" x2="39.4" y2="-71.1"/>
			<line class="st10" x1="44" y1="-2.3" x2="44" y2="-71.1"/>
			<line class="st1" x1="85.5" y1="-5.6" x2="85.5" y2="-71.1"/>
			<line class="st2" x1="80.9" y1="-2.3" x2="80.9" y2="-71.1"/>
			<line class="st3" x1="76.3" y1="-5.6" x2="76.3" y2="-71.1"/>
			<line class="st4" x1="71.7" y1="-2.3" x2="71.7" y2="-71.1"/>
			<line class="st5" x1="67.1" y1="-5.6" x2="67.1" y2="-71.1"/>
			<line class="st6" x1="62.4" y1="-2.3" x2="62.4" y2="-71.1"/>
			<line class="st7" x1="57.8" y1="-5.6" x2="57.8" y2="-71.1"/>
			<line class="st8" x1="53.2" y1="-2.3" x2="53.2" y2="-71.1"/>
			<line class="st9" x1="48.6" y1="-5.6" x2="48.6" y2="-71.1"/>
		</g>
	</g>
</pattern>
<pattern  x="-256.7" y="-134.3" width="57.6" height="57.6" patternUnits="userSpaceOnUse" id="Unnamed_Pattern_5" viewBox="3.5 -61.1 57.6 57.6" style="overflow:visible;">
	<g>
		<rect x="3.5" y="-61.1" class="st0" width="57.6" height="57.6"/>
		<g>
			<defs>
				<rect id="SVGID_3_" x="3.5" y="-61.1" width="57.6" height="57.6"/>
			</defs>
			<clipPath id="SVGID_4_">
				<use xlink:href="#SVGID_3_"  style="overflow:visible;"/>
			</clipPath>
			<line class="st11" x1="29.3" y1="-35.3" x2="27.1" y2="-39"/>
			<line class="st11" x1="26.8" y1="-28.5" x2="28.5" y2="-31.7"/>
			<line class="st11" x1="25.3" y1="-30.9" x2="25.5" y2="-35.7"/>
			<line class="st11" x1="34.3" y1="-47.7" x2="35.1" y2="-51.9"/>
			<line class="st11" x1="21" y1="-42.2" x2="20.2" y2="-46.4"/>
			<line class="st11" x1="13.4" y1="-42.7" x2="16.7" y2="-45.4"/>
			<line class="st11" x1="2.1" y1="-40.1" x2="5.4" y2="-42.8"/>
			<line class="st11" x1="21" y1="-37" x2="24.3" y2="-39.7"/>
			<line class="st11" x1="25.2" y1="-46.9" x2="23.7" y2="-42.9"/>
			<line class="st11" x1="13" y1="-45.6" x2="8.8" y2="-49.1"/>
			<line class="st11" x1="18.6" y1="-34.8" x2="22.8" y2="-33.7"/>
			<line class="st11" x1="27.3" y1="-54.4" x2="30.8" y2="-51.9"/>
			<line class="st11" x1="18.6" y1="-56.3" x2="20.8" y2="-52.7"/>
			<line class="st11" x1="37.3" y1="-37.7" x2="39" y2="-41.6"/>
			<line class="st11" x1="45.3" y1="-28.4" x2="44.7" y2="-34.1"/>
			<line class="st11" x1="34.1" y1="-42.4" x2="32" y2="-46.2"/>
			<line class="st11" x1="43.2" y1="-42.3" x2="39.9" y2="-45"/>
			<line class="st11" x1="42.1" y1="-55.6" x2="45.4" y2="-58.3"/>
			<line class="st11" x1="40.4" y1="-36" x2="43.7" y2="-38.7"/>
			<line class="st11" x1="33.6" y1="-38.1" x2="35.1" y2="-34.1"/>
			<line class="st11" x1="37.8" y1="-34" x2="41.4" y2="-31.8"/>
			<line class="st11" x1="13.5" y1="-51.5" x2="16" y2="-48"/>
			<line class="st11" x1="44.5" y1="-23.9" x2="42.1" y2="-27.5"/>
			<line class="st11" x1="17.5" y1="-41.4" x2="15.8" y2="-36.2"/>
			<line class="st11" x1="16.7" y1="-20.7" x2="19.4" y2="-17.4"/>
			<line class="st11" x1="38.2" y1="-25.4" x2="37.8" y2="-30.9"/>
			<line class="st11" x1="25" y1="-26.9" x2="26.9" y2="-22.3"/>
			<line class="st11" x1="29.2" y1="-45.6" x2="27.8" y2="-49.6"/>
			<line class="st11" x1="35.2" y1="-45.2" x2="38.5" y2="-47.9"/>
			<line class="st11" x1="19.9" y1="-25.5" x2="22.5" y2="-30.1"/>
			<line class="st11" x1="28.7" y1="-58.7" x2="32.3" y2="-56.4"/>
			<line class="st11" x1="18.5" y1="-32.5" x2="14.4" y2="-31.4"/>
			<line class="st11" x1="17.9" y1="-23.9" x2="16.3" y2="-26.9"/>
			<line class="st11" x1="49.3" y1="-9.4" x2="49.5" y2="-14.5"/>
			<line class="st11" x1="34" y1="-6.9" x2="37.3" y2="-9.6"/>
			<line class="st11" x1="28.8" y1="-8.9" x2="24.5" y2="-11.9"/>
			<line class="st11" x1="17.3" y1="-5.8" x2="21" y2="-8.4"/>
			<line class="st11" x1="31.4" y1="-20.1" x2="33.5" y2="-23.7"/>
			<line class="st11" x1="33.5" y1="-12.6" x2="33" y2="-16"/>
			<line class="st11" x1="36.8" y1="-12.2" x2="40.8" y2="-13.9"/>
			<line class="st11" x1="29" y1="-13.3" x2="31.2" y2="-9.7"/>
			<line class="st11" x1="51.8" y1="-24.6" x2="47.9" y2="-28"/>
			<line class="st11" x1="21.3" y1="-23.1" x2="23.2" y2="-18.2"/>
			<line class="st11" x1="20.2" y1="-12.1" x2="23.2" y2="-15.1"/>
			<line class="st11" x1="45.7" y1="-8.3" x2="43.5" y2="-12.1"/>
			<line class="st11" x1="48" y1="-18.6" x2="48.1" y2="-22.9"/>
			<line class="st11" x1="44.1" y1="-15.9" x2="48.4" y2="-16.1"/>
			<line class="st11" x1="29.4" y1="-16.5" x2="26.1" y2="-19.2"/>
			<line class="st11" x1="48.8" y1="-34.2" x2="47.1" y2="-38.2"/>
			<line class="st11" x1="53.6" y1="-42.1" x2="54.3" y2="-46.3"/>
			<line class="st11" x1="54.2" y1="-37.1" x2="55.8" y2="-41.1"/>
			<line class="st11" x1="54.3" y1="-50.2" x2="51" y2="-53"/>
			<line class="st11" x1="56.1" y1="-53.8" x2="58.3" y2="-50.1"/>
			<line class="st11" x1="47" y1="-48.8" x2="48" y2="-53.9"/>
			<line class="st11" x1="58.1" y1="-26.9" x2="53.9" y2="-26.6"/>
			<line class="st11" x1="59.9" y1="-43.8" x2="56.6" y2="-46.5"/>
			<line class="st11" x1="51.2" y1="-40" x2="49.4" y2="-43.9"/>
			<line class="st11" x1="57" y1="-29.7" x2="60.1" y2="-32.6"/>
			<line class="st11" x1="11.3" y1="-8.9" x2="8.6" y2="-11.9"/>
			<line class="st11" x1="17.5" y1="-13.8" x2="14.2" y2="-16.5"/>
			<line class="st11" x1="14.7" y1="-6.1" x2="15.9" y2="-10.2"/>
			<line class="st11" x1="51.3" y1="-34.3" x2="55.5" y2="-34.8"/>
			<line class="st11" x1="10.3" y1="-51.4" x2="8.6" y2="-55.3"/>
			<line class="st11" x1="11.8" y1="-56.5" x2="8.5" y2="-59.2"/>
			<line class="st11" x1="9.7" y1="-33.5" x2="12.9" y2="-36.2"/>
			<line class="st11" x1="52.5" y1="-10.7" x2="56.1" y2="-8.4"/>
			<line class="st11" x1="53.7" y1="-13.2" x2="52.3" y2="-17.2"/>
			<line class="st11" x1="2.9" y1="-49.8" x2="6.2" y2="-52.5"/>
			<line class="st11" x1="0.1" y1="-35.7" x2="4.2" y2="-34.5"/>
			<line class="st11" x1="2.4" y1="-25" x2="4.5" y2="-28.6"/>
			<line class="st11" x1="4" y1="-18" x2="8.2" y2="-17"/>
			<line class="st11" x1="6" y1="-32.5" x2="8.2" y2="-28.8"/>
			<line class="st11" x1="9.1" y1="-21.9" x2="5.8" y2="-24.6"/>
			<line class="st11" x1="10.9" y1="-18.5" x2="13" y2="-22.1"/>
			<line class="st11" x1="9.3" y1="-24.6" x2="12" y2="-29.2"/>
			<line class="st11" x1="7.5" y1="-35.9" x2="6.7" y2="-40.1"/>
			<line class="st11" x1="13" y1="-39.1" x2="9" y2="-42.2"/>
			<line class="st11" x1="15" y1="-53.5" x2="15.3" y2="-57.7"/>
			<line class="st11" x1="4.9" y1="-55.1" x2="1.6" y2="-57.9"/>
			<line class="st11" x1="38.3" y1="-16.1" x2="34.3" y2="-19.4"/>
			<line class="st11" x1="40.9" y1="-16.8" x2="43.1" y2="-20.5"/>
			<line class="st11" x1="36.8" y1="-21.1" x2="40.7" y2="-23"/>
			<line class="st11" x1="32" y1="-40.4" x2="28.7" y2="-43.1"/>
			<line class="st11" x1="23.7" y1="-48.2" x2="19.7" y2="-49.8"/>
			<line class="st11" x1="23.5" y1="-53.6" x2="25.5" y2="-57.9"/>
			<line class="st11" x1="39.8" y1="-50.9" x2="43.8" y2="-52.4"/>
			<line class="st11" x1="40.5" y1="-6.6" x2="40.1" y2="-11"/>
			<line class="st11" x1="44.4" y1="-45.2" x2="43.3" y2="-49.3"/>
			<line class="st11" x1="39.7" y1="-53.2" x2="35.6" y2="-54.5"/>
			<line class="st11" x1="36" y1="-27.1" x2="32.2" y2="-31.3"/>
			<line class="st11" x1="53.5" y1="-54.9" x2="55.2" y2="-58.8"/>
			<line class="st11" x1="59.7" y1="-40.1" x2="63" y2="-42.8"/>
			<line class="st11" x1="60.5" y1="-49.8" x2="63.8" y2="-52.5"/>
			<line class="st11" x1="57.7" y1="-35.7" x2="61.8" y2="-34.5"/>
			<line class="st11" x1="60" y1="-25" x2="62.1" y2="-28.6"/>
			<line class="st11" x1="62.5" y1="-55.1" x2="59.2" y2="-57.9"/>
			<line class="st11" x1="54.7" y1="-18.1" x2="56.4" y2="-22"/>
			<line class="st11" x1="63.8" y1="-46.5" x2="59.7" y2="-47.4"/>
			<line class="st11" x1="6.2" y1="-46.5" x2="2.1" y2="-47.4"/>
			<line class="st11" x1="54.4" y1="-29.7" x2="49.3" y2="-30.9"/>
			<line class="st11" x1="9.6" y1="-14.8" x2="13.1" y2="-12.3"/>
			<line class="st11" x1="48.6" y1="-46" x2="51.6" y2="-49"/>
			<line class="st11" x1="56.6" y1="-12.2" x2="58.6" y2="-16"/>
			<line class="st11" x1="5" y1="-21.5" x2="0.7" y2="-21.1"/>
			<line class="st11" x1="62.6" y1="-21.5" x2="58.3" y2="-21.1"/>
			<line class="st11" x1="29.9" y1="-23.4" x2="31" y2="-28.4"/>
			<line class="st11" x1="45.7" y1="-40" x2="46.5" y2="-44.1"/>
			<line class="st11" x1="50.7" y1="-21.5" x2="54.5" y2="-23.6"/>
			<line class="st11" x1="38.5" y1="-57.9" x2="35.5" y2="-56.9"/>
			<line class="st11" x1="24.2" y1="-5.4" x2="23.7" y2="-9.6"/>
			<line class="st11" x1="5.5" y1="-9.1" x2="6.5" y2="-14.4"/>
			<line class="st11" x1="59.8" y1="-11.6" x2="61.3" y2="-7.6"/>
			<line class="st11" x1="2.2" y1="-11.6" x2="3.7" y2="-7.6"/>
			<line class="st11" x1="51.3" y1="-56.3" x2="49.5" y2="-60.1"/>
			<line class="st11" x1="47.9" y1="-63.3" x2="44.2" y2="-61.1"/>
			<line class="st11" x1="33" y1="-58.7" x2="31.2" y2="-64.2"/>
			<line class="st11" x1="25" y1="-60" x2="28" y2="-64.2"/>
			<line class="st11" x1="54.5" y1="-60.9" x2="51.2" y2="-63.6"/>
			<line class="st11" x1="12.1" y1="-59.4" x2="11.1" y2="-63.5"/>
			<line class="st11" x1="18.5" y1="-59.1" x2="15.3" y2="-61.5"/>
			<line class="st11" x1="5.1" y1="-58.9" x2="5.9" y2="-63.1"/>
			<line class="st11" x1="57.5" y1="-63.9" x2="59.7" y2="-60.3"/>
			<line class="st11" x1="37.5" y1="-64.2" x2="37.5" y2="-61"/>
			<line class="st11" x1="20.4" y1="-57.7" x2="21.1" y2="-61.9"/>
			<line class="st11" x1="40.7" y1="-59.3" x2="42.5" y2="-62.6"/>
			<line class="st11" x1="47.9" y1="-5.7" x2="44.2" y2="-3.5"/>
			<line class="st11" x1="33" y1="-1.1" x2="31.2" y2="-6.6"/>
			<line class="st11" x1="25" y1="-2.4" x2="28" y2="-6.6"/>
			<line class="st11" x1="54.5" y1="-3.3" x2="51.2" y2="-6"/>
			<line class="st11" x1="12.1" y1="-1.8" x2="11.1" y2="-5.9"/>
			<line class="st11" x1="18.5" y1="-1.5" x2="15.3" y2="-3.9"/>
			<line class="st11" x1="5.1" y1="-1.4" x2="5.9" y2="-5.5"/>
			<line class="st11" x1="57.5" y1="-6.3" x2="59.7" y2="-2.7"/>
			<line class="st11" x1="37.5" y1="-6.6" x2="37.5" y2="-3.4"/>
			<line class="st11" x1="20.4" y1="-0.1" x2="21.1" y2="-4.3"/>
			<line class="st11" x1="40.7" y1="-1.7" x2="42.5" y2="-5"/>
		</g>
	</g>
</pattern>
<pattern  x="-256.7" y="-134.3" width="72" height="72" patternUnits="userSpaceOnUse" id="Unnamed_Pattern_6" viewBox="10.1 -84.2 72 72" style="overflow:visible;">
	<g>
		<rect x="10.1" y="-84.2" class="st0" width="72" height="72"/>
		<g>
			<defs>
				<rect id="SVGID_5_" x="10.1" y="-84.2" width="72" height="72"/>
			</defs>
			<clipPath id="SVGID_6_">
				<use xlink:href="#SVGID_5_"  style="overflow:visible;"/>
			</clipPath>
			<path class="st12" d="M23.4-27.7c0,0,3.8,1.7,4.5-2.1c0.7-3.8,2.6-3.5,4.8-2.2c2.2,1.3,4.6,0.7,5.1-2.4"/>
			<path class="st12" d="M76.1-40.9c0,0-2.6-3.3-5-0.2c-2.4,3.1-3.9,1.9-5.3-0.2c-1.4-2.1-3.7-2.7-5.7-0.2"/>
			<path class="st12" d="M49.1-41.3c0,0-3.8,1.7-1.5,4.7c2.4,3.1,0.9,4.3-1.6,5.1c-2.4,0.8-3.6,2.9-1.7,5.4"/>
			<path class="st12" d="M51.2-37c0,0,4.1,0.9,2.4,4.4c-1.7,3.5,0,4.4,2.5,4.7c2.5,0.3,4.1,2.1,2.7,5"/>
			<path class="st12" d="M65.2-27.1c0,0,4.1,0.9,2.4,4.4c-1.7,3.5,0,4.4,2.5,4.7c2.5,0.3,4.1,2.1,2.7,5"/>
			<path class="st12" d="M37.5-46.4c0,0,3.7,2,1.1,4.8c-2.6,2.9-1.2,4.2,1.1,5.2c2.4,1,3.4,3.2,1.2,5.5"/>
			<path class="st12" d="M20.5-35.1c0,0,1.3-4-2.6-4.2c-3.9-0.3-3.8-2.2-2.8-4.5c1-2.3,0.2-4.6-2.9-4.8"/>
			<path class="st12" d="M17.6-53.4c0,0-2,3.6,1.7,4.6c3.8,1,3.3,2.9,1.8,5c-1.4,2.1-1.1,4.5,2,5.3"/>
			<path class="st12" d="M30.5-29.2c0,0,1.3,3.9,4.6,1.8c3.3-2.1,4.3-0.5,4.9,2c0.6,2.5,2.6,3.8,5.3,2.1"/>
			<path class="st12" d="M22.4-56.7c0,0-1.8,3.8,2,4.5c3.8,0.7,3.5,2.6,2.2,4.8c-1.3,2.2-0.8,4.6,2.3,5.2"/>
			<path class="st12" d="M34.1-50.9c0,0-3.4,2.4-0.5,4.9c2.9,2.6,1.7,4-0.5,5.3c-2.2,1.3-3,3.5-0.6,5.6"/>
			<path class="st12" d="M21.1-71.8c0,0,0.3,4.2,4,2.9c3.7-1.2,4.3,0.6,4.3,3.1c-0.1,2.6,1.6,4.4,4.6,3.4"/>
			<path class="st12" d="M39.6-65.1c0,0-0.4-4.2-4-2.9c-3.7,1.3-4.3-0.5-4.3-3.1c0-2.6-1.6-4.3-4.6-3.3"/>
			<path class="st12" d="M29.8-39.5c0,0-4.2-0.2-3.4,3.6s-1.1,4.2-3.6,3.9c-2.5-0.3-4.5,1-3.9,4.1"/>
			<path class="st12" d="M42.8-40.2c0,0-1.5-3.9,2.4-4.4c3.9-0.5,3.7-2.4,2.5-4.7c-1.1-2.3-0.4-4.6,2.7-5"/>
			<path class="st12" d="M13.4-57.9c0,0,1.9-3.7,4.8-1.1c2.9,2.6,4.2,1.2,5.2-1.2c1-2.4,3.1-3.4,5.5-1.3"/>
			<path class="st12" d="M61.1-23.6c0,0-1.9,3.7,1.9,4.6c3.8,0.8,3.4,2.7,2.1,4.9c-1.3,2.2-0.9,4.5,2.2,5.2"/>
			<path class="st12" d="M61.1-95.6c0,0-1.9,3.7,1.9,4.6c3.8,0.8,3.4,2.7,2.1,4.9c-1.3,2.2-0.9,4.5,2.2,5.2"/>
			<path class="st12" d="M74.7-22.2c0,0,2.5-3.4-1.1-4.8c-3.6-1.5-2.9-3.3-1.2-5.2c1.7-1.9,1.6-4.3-1.3-5.5"/>
			<path class="st12" d="M70-26.5c0,0-4.1-0.8-2.4-4.3c1.7-3.5,0-4.4-2.6-4.6c-2.5-0.3-4.1-2.1-2.7-5"/>
			<path class="st12" d="M27.2-12.9c0,0,4.2-0.2,3-3.9c-1.1-3.7,0.7-4.3,3.3-4.2c2.5,0.1,4.4-1.4,3.5-4.5"/>
			<path class="st12" d="M49.5-27.9c0,0-4.1,1-2.2,4.4c1.8,3.4,0.1,4.4-2.4,4.7c-2.5,0.4-4,2.3-2.6,5.1"/>
			<path class="st12" d="M28.1-20.1c0,0-4,1.3-4.2-2.6c-0.2-3.9-2.2-3.8-4.5-2.8c-2.3,1-4.6,0.2-4.8-3"/>
			<path class="st12" d="M18.5-76.3c0,0,1-4.1-2.9-4c-3.9,0.1-3.9-1.9-3.1-4.3c0.8-2.4-0.2-4.6-3.3-4.6"/>
			<path class="st12" d="M18.5-4.3c0,0,1-4.1-2.9-4c-3.9,0.1-3.9-1.9-3.1-4.3c0.8-2.4-0.2-4.6-3.3-4.6"/>
			<path class="st12" d="M80.4-45.7c0,0-2.3-3.5-4.9-0.7c-2.6,2.8-4.1,1.6-5.3-0.7c-1.2-2.3-3.5-3.1-5.6-0.7"/>
			<path class="st12" d="M60.5-13.8c0,0,1-4.1-2.9-4c-3.9,0.1-3.9-1.9-3.1-4.3c0.8-2.4-0.2-4.6-3.3-4.6"/>
			<path class="st12" d="M54-44c0,0-1.6,3.8,2.2,4.4c3.8,0.6,3.6,2.5,2.4,4.8c-1.2,2.2-0.6,4.6,2.5,5.1"/>
			<path class="st12" d="M85-45.8c0,0-4.1,0.4-2.8,4.1c1.3,3.6-0.5,4.3-3,4.4c-2.6,0-4.3,1.7-3.2,4.7"/>
			<path class="st12" d="M13-45.8c0,0-4.1,0.4-2.8,4.1c1.3,3.6-0.5,4.3-3,4.4c-2.6,0-4.3,1.7-3.2,4.7"/>
			<path class="st12" d="M72.2-50.4c0,0,3.5,2.3,4.8-1.3c1.3-3.7,3.1-3,5.1-1.4c2,1.6,4.4,1.5,5.5-1.5"/>
			<path class="st12" d="M0.2-50.4c0,0,3.5,2.3,4.8-1.3c1.3-3.7,3.1-3,5.1-1.4c2,1.6,4.4,1.5,5.5-1.5"/>
			<path class="st12" d="M81.8-74.9c0,0-0.8-4.1-4.3-2.5c-3.5,1.6-4.4-0.1-4.6-2.7c-0.2-2.5-2-4.2-4.9-2.8"/>
			<path class="st12" d="M38.9-56.2c0,0,4.1-0.6,2.7-4.2c-1.4-3.6,0.3-4.4,2.9-4.5c2.6-0.1,4.3-1.8,3.1-4.8"/>
			<path class="st12" d="M24.9-55.6c0,0,1.2-4,4.5-2c3.3,2,4.3,0.4,4.9-2.1c0.5-2.5,2.5-3.9,5.2-2.3"/>
			<path class="st12" d="M11.9-72.2c0,0,1.2-4,4.5-2c3.3,2,4.3,0.4,4.9-2.1c0.5-2.5,2.5-3.9,5.2-2.3"/>
			<path class="st12" d="M48-81.2c0,0,4.2,0.4,2.9,4c-1.3,3.7,0.5,4.3,3.1,4.3c2.6,0,4.3,1.6,3.3,4.6"/>
			<path class="st12" d="M44.6-72.3c0,0,3.2-2.7,0.1-5c-3.1-2.3-2-3.9,0.1-5.3c2.1-1.4,2.6-3.8,0.1-5.7"/>
			<path class="st12" d="M60.9-75.8c0,0-3.4,2.5-0.4,4.9c3,2.5,1.8,4-0.4,5.3c-2.2,1.3-2.9,3.6-0.4,5.6"/>
			<path class="st12" d="M66-71.6c0,0,2.8,3.1,5-0.2c2.1-3.2,3.8-2.2,5.3-0.2c1.5,2,3.9,2.5,5.7-0.2"/>
			<path class="st12" d="M50.3-44.7c0,0,4.2-0.2,3-3.9c-1.2-3.7,0.7-4.3,3.2-4.2c2.6,0.1,4.4-1.5,3.4-4.5"/>
			<path class="st12" d="M41.8-52.6c0,0-0.4-4.2,3.4-3.6c3.8,0.6,4.2-1.3,3.7-3.8c-0.5-2.5,0.8-4.6,3.9-4.1"/>
			<path class="st12" d="M29.6-54.9c0,0,1.1,4,4.5,2.2c3.4-1.9,4.4-0.2,4.8,2.3c0.4,2.5,2.3,4,5.1,2.5"/>
			<path class="st12" d="M11.3-25.4c0,0,4.2,0.2,3,3.9c-1.1,3.7,0.7,4.3,3.2,4.2c2.6-0.1,4.4,1.5,3.5,4.5"/>
			<path class="st12" d="M45.8-69.9c0,0-3.8,1.7-4.5-2.2c-0.6-3.8-2.5-3.5-4.8-2.3c-2.2,1.2-4.6,0.7-5.1-2.5"/>
			<path class="st12" d="M21.9-65c0,0-1.6,3.9-4.7,1.5c-3.1-2.3-4.3-0.8-5,1.7c-0.7,2.4-2.8,3.7-5.4,1.8"/>
			<path class="st12" d="M93.9-65c0,0-1.6,3.9-4.7,1.5c-3.1-2.3-4.3-0.8-5,1.7c-0.7,2.4-2.8,3.7-5.4,1.8"/>
			<path class="st12" d="M77.8-61c0,0-1-4-4.4-2.2c-3.4,1.8-4.4,0.2-4.8-2.4c-0.4-2.5-2.3-4-5.1-2.5"/>
			<path class="st12" d="M69.7-73c0,0-0.1-4.2-3.9-3.1c-3.7,1.1-4.3-0.8-4.1-3.3c0.2-2.5-1.4-4.4-4.4-3.6"/>
			<path class="st12" d="M61.4-60.1c0,0,2,3.6,4.9,1c2.8-2.6,4.2-1.3,5.2,1.1c1,2.3,3.2,3.3,5.5,1.1"/>
			<path class="st12" d="M51.4-71.3c0,0-2,3.7,1.8,4.6c3.8,0.9,3.3,2.8,1.9,4.9c-1.4,2.1-1,4.5,2.1,5.3"/>
			<path class="st12" d="M72.1-95.7c0,0-1.3,4,2.6,4.2c3.9,0.3,3.8,2.2,2.8,4.5c-1,2.3-0.2,4.6,2.9,4.8"/>
			<path class="st12" d="M72.1-23.7c0,0-1.3,4,2.6,4.2c3.9,0.3,3.8,2.2,2.8,4.5c-1,2.3-0.2,4.6,2.9,4.8"/>
			<path class="st12" d="M56.5-46.2c0,0,4.1,0.8,3.9-3.1c-0.2-3.9,1.7-4,4.2-3.3c2.4,0.7,4.6-0.3,4.4-3.5"/>
			<path class="st12" d="M76.7-25c0,0,4.1,0.5,3.7-3.3c-0.5-3.9,1.4-4.1,3.9-3.6c2.5,0.6,4.6-0.7,4.2-3.8"/>
			<path class="st12" d="M4.7-25c0,0,4.1,0.5,3.7-3.3c-0.5-3.9,1.4-4.1,3.9-3.6c2.5,0.6,4.6-0.7,4.2-3.8"/>
			<path class="st12" d="M75.2-66c0,0,2.4-3.4,4.9-0.5c2.5,3,4,1.7,5.3-0.5c1.3-2.2,3.6-2.9,5.6-0.5"/>
			<path class="st12" d="M3.2-66c0,0,2.4-3.4,4.9-0.5c2.5,3,4,1.7,5.3-0.5c1.3-2.2,3.6-2.9,5.6-0.5"/>
			<path class="st12" d="M90.5-4.3c0,0,1-4.1-2.9-4c-3.9,0.1-3.9-1.9-3.1-4.3c0.8-2.4-0.2-4.6-3.3-4.6"/>
			<path class="st12" d="M55.6-75c0,0-3.7-1.9-1.2-4.8c2.5-2.9,1.1-4.2-1.3-5.2c-2.4-0.9-3.4-3.1-1.4-5.5"/>
			<path class="st12" d="M38.3-92.5c0,0-3.6,2.2-0.8,4.9c2.8,2.7,1.4,4.1-0.9,5.2c-2.3,1.1-3.2,3.4-0.9,5.6"/>
			<path class="st12" d="M44.6-0.3c0,0,3.2-2.7,0.1-5c-3.1-2.3-2-3.9,0.1-5.3c2.1-1.4,2.6-3.8,0.1-5.7"/>
			<path class="st12" d="M55.6-3c0,0-3.7-1.9-1.2-4.8c2.5-2.9,1.1-4.2-1.3-5.2c-2.4-0.9-3.4-3.1-1.4-5.5"/>
			<path class="st12" d="M30.1-5.9c0,0,1.2-4-2.7-4.2c-3.9-0.2-3.8-2.1-2.9-4.5c1-2.4,0.1-4.6-3.1-4.8"/>
			<path class="st12" d="M38.3-20.5c0,0-3.6,2.2-0.8,4.9c2.8,2.7,1.4,4.1-0.9,5.2c-2.3,1.1-3.2,3.4-0.9,5.6"/>
			<path class="st12" d="M30.1-77.9c0,0,1.2-4-2.7-4.2c-3.9-0.2-3.8-2.1-2.9-4.5c1-2.4,0.1-4.6-3.1-4.8"/>
		</g>
	</g>
</pattern>
<g id="BG">
	
		<pattern  id="SVGID_7_" xlink:href="#Unnamed_Pattern" patternTransform="matrix(2.5559 4.4032 4.4032 -2.5559 -2203.1682 30837.6621)">
	</pattern>
	<polygon class="st13" points="179.8,238 357.5,132.8 182.7,40.7 -8,161.1 	"/>
	
		<pattern  id="SVGID_8_" xlink:href="#Unnamed_Pattern_5" patternTransform="matrix(-2.295 -0.3479 0.3479 -2.295 -22216.6621 8474.7295)">
	</pattern>
	<path class="st14" d="M194.1,8.6c70.5,7.2,87.3,42.2,96.4,51.1c38.6,37.5,37.4-1,88,19.5c38.4,15.5,19.2,49.6,48.8,53.6
		c60.3,8.1,66.9,54.8,66.9,54.8L192,186.9L194.1,8.6z"/>
	
		<pattern  id="SVGID_9_" xlink:href="#Unnamed_Pattern_6" patternTransform="matrix(2.2862 0.1158 0.1158 -2.2862 6993.2681 10722.9863)">
	</pattern>
	<path class="st15" d="M274.1,257.8c-22.1-16.8-54.7-17-89.4-2.3c-60.3,25.5-155.3,37-150-9.4c5.3-46.5,42.2-20.4,100.3-60.1
		c56.3-38.5,101.6-30.3,170.3-1.7C404.1,225.5,358.7,322,274.1,257.8"/>
	<path class="st16" d="M118,136.1l0.8,7.4c0.1,0.6-0.3,1.1-0.9,1.1l-8.4,0.9l2.3,20.5c0.1,0.6-0.3,1.1-0.9,1.1l-9.6,1.1
		c-0.6,0.1-1.1-0.3-1.1-0.9l-2.3-20.5l-8.4,0.9c-0.6,0.1-1.1-0.3-1.1-0.9l-0.8-7.4c-0.1-0.6,0.3-1.1,0.9-1.1l19-2.1l9.4-1.1
		C117.4,135.2,117.9,135.6,118,136.1z"/>
	<path class="st16" d="M152,162.6l-9.2,1c-0.4,0-0.9-0.2-1.1-0.5l-4.8-7.8l-2.6,0.3l0.9,7.9c0.1,0.6-0.3,1.1-0.9,1.1l-9.6,1.1
		c-0.6,0.1-1.1-0.3-1.1-0.9l-3.3-28.9c-0.1-0.6,0.3-1.1,0.9-1.1l9.6-1.1l5.3-0.6c8.5-1,13.7,3.3,14.4,9.5c0.4,3.4-0.7,6.6-3.2,8.9
		l5.7,8.7C153.8,161.2,153.2,162.4,152,162.6z M133.3,147.2l2-0.2c2.4-0.3,3.5-1.3,3.3-3c-0.2-1.8-1.5-2.5-3.8-2.2l-2,0.2
		L133.3,147.2z"/>
	<path class="st16" d="M153.3,131.1l9.6-1.1c0.6-0.1,1.1,0.3,1.1,0.9l3.3,28.9c0.1,0.6-0.3,1.1-0.9,1.1l-9.6,1.1
		c-0.6,0.1-1.1-0.3-1.1-0.9l-3.3-28.9C152.4,131.7,152.8,131.2,153.3,131.1z"/>
	<path class="st16" d="M200.6,148.6c0.6,5.4-3.2,8.8-11.7,9.8l-8.6,1l-8.7,1c-0.6,0.1-1.1-0.3-1.1-0.9l-3.3-28.9
		c-0.1-0.6,0.3-1.1,0.9-1.1l9.6-1.1l6.2-0.7c8.5-1,13,1.5,13.6,6.7c0.5,4.2-1.9,6.9-5.3,7.8C196.2,142.2,200.1,144.2,200.6,148.6z
		 M182.7,135.7l-3.2,0.4l0.5,4.1l3.2-0.4c2.6-0.3,2.9-1.6,2.8-2.4C185.9,136.7,185.4,135.4,182.7,135.7z M188.5,148.4
		c-0.1-0.8-0.6-2-3-1.7l-4.7,0.5l0.5,4.1l4.7-0.5C188.4,150.5,188.6,149.2,188.5,148.4z"/>
	<path class="st16" d="M233.9,123l1.9,16.7c1.1,9.4-5.6,14.5-14.9,15.5c-9.4,1.1-17-2.4-18-11.8l-1.9-16.7c-0.1-0.6,0.3-1.1,0.9-1.1
		l9.6-1.1c0.6-0.1,1.1,0.3,1.1,0.9l1.6,14.2c0.5,4.3,2.3,6.7,5.6,6.3c3.3-0.4,4.5-3.1,4-7.4l-1.6-14.2c-0.1-0.6,0.3-1.1,0.9-1.1
		l9.6-1.1C233.3,122.1,233.9,122.5,233.9,123z"/>
	<path class="st16" d="M270.4,119.2l3.2,28.4c0.1,0.8-0.3,1.3-1.1,1.4l-3.4,0.4c-0.6,0.1-1.1,0-1.6-0.3l-16.9-10.2l1.3,11.2
		c0.1,0.8-0.3,1.3-1.1,1.4l-9.1,1c-0.8,0.1-1.3-0.3-1.4-1.1l-3.2-28.4c-0.1-0.8,0.3-1.3,1.1-1.4l3.4-0.4c0.6-0.1,1.1,0,1.6,0.3
		l16.9,10.3l-1.3-11.3c-0.1-0.8,0.3-1.3,1.1-1.4l9.1-1C269.8,117.9,270.3,118.3,270.4,119.2z"/>
	<path class="st16" d="M310.8,144.6l-9.9,1.1c-0.7,0.1-1.2-0.2-1.5-0.9l-1.6-3.2l-10,1.1l-0.7,3.4c-0.2,0.7-0.6,1.1-1.4,1.2l-9.2,1
		c-0.9,0.1-1.4-0.4-1.1-1.4l8.4-29.8c0.2-0.7,0.6-1,1.4-1.1l10.2-1.1c0.7-0.1,1.3,0.2,1.6,0.8l14.7,27.2
		C312,143.9,311.7,144.5,310.8,144.6z M294.4,134.9l-3.5-7.1l-1.7,7.6L294.4,134.9z"/>
	<path class="st16" d="M338,133.1l0.8,7.4c0.1,0.7-0.2,1.1-0.9,1.1l-17.2,1.9l-6.4,0.7c-0.6,0.1-1.1-0.3-1.1-0.9l-3.3-28.9
		c-0.1-0.6,0.3-1.1,0.9-1.1l9.6-1.1c0.6-0.1,1.1,0.3,1.1,0.9l2.3,20.5l12.9-1.5C337.6,132.1,337.9,132.4,338,133.1z"/>
	<path class="st16" d="M81.3,216.5c1.1,9.9-6.1,16.4-16,17.5l-9.9,1.1l-4.3,0.5c-0.6,0.1-1.1-0.3-1.1-0.9l-3.3-28.9
		c-0.1-0.6,0.3-1.1,0.9-1.1l9.6-1.1l4.6-0.5C71.7,201.9,80.1,206.6,81.3,216.5z M69.1,217.9c-0.5-4.1-3.3-6.3-6.8-5.9l-3,0.3
		l1.5,13.2l3-0.3C67.3,224.7,69.6,221.9,69.1,217.9z"/>
	<path class="st16" d="M111.8,220.7l0.8,6.8c0.1,0.7-0.2,1.1-0.9,1.1l-18.5,2.1l-6.5,0.7c-0.6,0.1-1.1-0.3-1.1-0.9l-3.3-28.9
		c-0.1-0.6,0.3-1.1,0.9-1.1l9.6-1.1l14.8-1.7c0.7-0.1,1.1,0.2,1.1,0.9l0.8,6.8c0.1,0.7-0.2,1.1-0.9,1.1L95,208.3l0.3,2.5l11.7-1.3
		c0.7-0.1,1.1,0.2,1.1,0.9l0.7,5.8c0.1,0.7-0.2,1.1-0.9,1.1l-11.7,1.3l0.3,2.8l14.3-1.6C111.4,219.8,111.8,220.1,111.8,220.7z"/>
	<path class="st16" d="M141.1,214.8c0.9,7.7-6,11.7-13.8,12.6c-4.6,0.5-9-0.2-12-1.3c-0.7-0.3-0.9-1-0.7-1.7l1.9-5.9
		c0.2-0.7,0.7-1,1.5-0.8c2.9,0.9,4.9,1.4,7.8,1.1c1.9-0.2,3-0.7,2.9-1.4c-0.3-2.5-14.2,0.1-15.4-10.6c-0.7-6.4,3.9-11,12.3-11.9
		c5.2-0.6,9.9,0.5,11.6,1.2c0.4,0.2,1.1,0.6,0.7,1.6l-1.7,5.2c-0.3,0.8-0.9,1.1-1.7,0.8c-1.6-0.5-4.2-1.3-6.9-1
		c-2.1,0.2-2.8,0.8-2.7,1.4C125.3,206.5,139.9,203.9,141.1,214.8z"/>
	<path class="st16" d="M180.4,200.9c0.7,6.2-3.4,11.7-11.9,12.6l-4.6,0.5l0.9,7.6c0.1,0.6-0.3,1.1-0.9,1.1l-9.6,1.1
		c-0.6,0.1-1.1-0.3-1.1-0.9l-3.3-28.9c-0.1-0.6,0.3-1.1,0.9-1.1l9.6-1.1l5.6-0.6C174.5,190.3,179.7,194.7,180.4,200.9z M168.5,202.3
		c-0.1-1.3-1.2-2.7-3.6-2.4l-2.5,0.3l0.6,5.6l2.5-0.3C167.9,205.2,168.6,203.5,168.5,202.3z"/>
	<path class="st16" d="M212.8,217.3l-9.2,1c-0.4,0-0.9-0.2-1.1-0.5l-4.8-7.8l-2.6,0.3l0.9,7.9c0.1,0.6-0.3,1.1-0.9,1.1l-9.6,1.1
		c-0.6,0.1-1.1-0.3-1.1-0.9l-3.3-28.9c-0.1-0.6,0.3-1.1,0.9-1.1l9.6-1.1l5.3-0.6c8.5-1,13.7,3.3,14.4,9.5c0.4,3.4-0.7,6.6-3.2,8.9
		l5.7,8.7C214.7,215.9,214.1,217.1,212.8,217.3z M194.2,201.9l2-0.2c2.4-0.3,3.5-1.3,3.3-3c-0.2-1.8-1.5-2.5-3.8-2.2l-2,0.2
		L194.2,201.9z"/>
	<path class="st16" d="M242.7,206l0.8,6.8c0.1,0.7-0.2,1.1-0.9,1.1l-18.5,2.1l-6.5,0.7c-0.6,0.1-1.1-0.3-1.1-0.9l-3.3-28.9
		c-0.1-0.6,0.3-1.1,0.9-1.1l9.6-1.1l14.8-1.7c0.7-0.1,1.1,0.2,1.1,0.9l0.8,6.8c0.1,0.7-0.2,1.1-0.9,1.1l-13.8,1.6l0.3,2.5l11.7-1.3
		c0.7-0.1,1.1,0.2,1.1,0.9l0.7,5.8c0.1,0.7-0.2,1.1-0.9,1.1l-11.7,1.3l0.3,2.8l14.3-1.6C242.3,205,242.7,205.3,242.7,206z
		 M220.8,179.9c-0.4-0.6-0.1-1.4,0.5-1.8l9-6.6c0.6-0.4,1.4-0.2,1.7,0.4l2.4,3.8c0.4,0.7,0.3,1.5-0.4,1.8l-10.1,5
		c-0.7,0.3-1.4,0.2-1.8-0.4L220.8,179.9z"/>
	<path class="st16" d="M267.2,181.1l2.1,19c0.9,7.6-5.4,12.2-12.1,12.9c-6.8,0.8-11.3-2.6-12.4-4.4c-0.5-0.8-0.4-1.3,0.4-1.8
		l6.2-3.8c0.8-0.4,1.1-0.3,1.8,0.4c0.6,0.6,1.4,1.1,2.6,1c1.4-0.2,2.4-1.2,2.2-3.1l-2.1-19c-0.1-0.8,0.3-1.3,1.1-1.4l8.9-1
		C266.6,179.9,267.1,180.3,267.2,181.1z"/>
	<path class="st16" d="M303.2,176.8l1.9,16.7c1.1,9.4-5.6,14.5-14.9,15.6c-9.4,1.1-17-2.5-18-11.8l-1.9-16.7
		c-0.1-0.6,0.3-1.1,0.9-1.1l9.6-1.1c0.6-0.1,1.1,0.3,1.1,0.9l1.6,14.2c0.5,4.3,2.3,6.7,5.6,6.3c3.3-0.4,4.5-3.1,4-7.4l-1.6-14.2
		c-0.1-0.6,0.3-1.1,0.9-1.1l9.6-1.1C302.6,175.8,303.1,176.2,303.2,176.8z"/>
	<path class="st16" d="M340.6,189.5l1.1,9.7c-2.9,2.6-8,5.2-14.3,5.9c-10.1,1.1-18.7-4.1-19.8-14.2c-1.1-10.1,6-17.1,16.2-18.3
		c5.4-0.6,11.6,0.9,15.1,5.8c0.5,0.7,0.3,1.4-0.4,1.8l-6.8,4.2c-0.7,0.4-1.2,0.2-1.8-0.4c-1.4-1.5-3-2.3-5-2.1
		c-3.5,0.4-5.5,3.4-5.1,7.5c0.5,4.1,3.1,6.6,6.6,6.2c1.7-0.2,3-0.5,4.1-1l-0.5-4.1c-0.1-0.8,0.3-1.3,1.1-1.4l8-0.9
		C340,188.3,340.5,188.7,340.6,189.5z"/>
	<path class="st16" d="M371.2,191.4l0.8,6.8c0.1,0.7-0.2,1.1-0.9,1.1l-18.5,2.1l-6.5,0.7c-0.6,0.1-1.1-0.3-1.1-0.9l-3.3-28.9
		c-0.1-0.6,0.3-1.1,0.9-1.1l9.6-1.1l14.8-1.7c0.7-0.1,1.1,0.2,1.1,0.9l0.8,6.8c0.1,0.7-0.2,1.1-0.9,1.1l-13.8,1.6l0.3,2.5l11.7-1.3
		c0.7-0.1,1.1,0.2,1.1,0.9l0.7,5.8c0.1,0.7-0.2,1.1-0.9,1.1l-11.7,1.3l0.3,2.8l14.3-1.6C370.7,190.5,371.1,190.8,371.2,191.4z
		 M349.3,165.4c-0.4-0.6-0.1-1.4,0.5-1.8l9-6.6c0.6-0.4,1.4-0.2,1.7,0.4l2.4,3.8c0.4,0.7,0.3,1.5-0.4,1.8l-10.1,5
		c-0.7,0.3-1.4,0.2-1.8-0.4L349.3,165.4z"/>
	<path class="st16" d="M400.5,185.5c0.9,7.7-6,11.7-13.8,12.6c-4.6,0.5-9-0.2-12-1.3c-0.7-0.3-0.9-1-0.7-1.7l1.9-5.9
		c0.2-0.7,0.7-1,1.5-0.8c2.9,0.9,4.9,1.4,7.8,1.1c1.9-0.2,3-0.7,2.9-1.4c-0.3-2.5-14.2,0.1-15.4-10.6c-0.7-6.4,3.9-11,12.3-11.9
		c5.2-0.6,9.9,0.5,11.6,1.2c0.4,0.2,1.1,0.6,0.7,1.6l-1.7,5.2c-0.3,0.8-0.9,1.1-1.7,0.8c-1.6-0.5-4.2-1.3-6.9-0.9
		c-2.1,0.2-2.8,0.8-2.7,1.4C384.6,177.2,399.3,174.6,400.5,185.5z"/>
</g>
<g id="font" class="st17">
	<text transform="matrix(0.9937 -0.1122 0.1122 0.9937 90.012 169.5189)" class="st18 st19 st20">TRIBUNAL </text>
	<text transform="matrix(0.9937 -0.1122 0.1122 0.9937 48.5003 235.6204)" class="st18 st19 st20">DES PRÉJUGÉS</text>
</g>
<g id="font-outlined">
	<g>
		<path class="st21" d="M117.7,136.2l0.8,7.3c0.1,0.6-0.3,1.1-0.9,1.1l-8.3,0.9l2.3,20.5c0.1,0.6-0.3,1.1-0.9,1.1l-9.6,1.1
			c-0.6,0.1-1.1-0.3-1.1-0.9l-2.3-20.5l-8.3,0.9c-0.6,0.1-1.1-0.3-1.1-0.9l-0.8-7.3c-0.1-0.6,0.3-1.1,0.9-1.1l18.9-2.1l9.3-1.1
			C117.1,135.2,117.7,135.6,117.7,136.2z"/>
		<path class="st21" d="M151.6,162.6l-9.1,1c-0.4,0-0.8-0.2-1.1-0.5l-4.8-7.8l-2.6,0.3l0.9,7.9c0.1,0.6-0.3,1.1-0.9,1.1l-9.6,1.1
			c-0.6,0.1-1.1-0.3-1.1-0.9l-3.3-28.8c-0.1-0.6,0.3-1.1,0.9-1.1l9.6-1.1l5.3-0.6c8.5-1,13.7,3.3,14.4,9.5c0.4,3.4-0.7,6.6-3.2,8.9
			l5.7,8.7C153.4,161.2,152.9,162.4,151.6,162.6z M133,147.2l2-0.2c2.4-0.3,3.4-1.3,3.2-3c-0.2-1.8-1.5-2.5-3.8-2.2l-2,0.2
			L133,147.2z"/>
		<path class="st21" d="M153,131.2l9.6-1.1c0.6-0.1,1.1,0.3,1.1,0.9l3.3,28.8c0.1,0.6-0.3,1.1-0.9,1.1l-9.6,1.1
			c-0.6,0.1-1.1-0.3-1.1-0.9l-3.3-28.8C152,131.8,152.4,131.3,153,131.2z"/>
		<path class="st21" d="M200.1,148.6c0.6,5.4-3.2,8.8-11.7,9.8l-8.6,1l-8.7,1c-0.6,0.1-1.1-0.3-1.1-0.9l-3.3-28.8
			c-0.1-0.6,0.3-1.1,0.9-1.1l9.6-1.1l6.2-0.7c8.5-1,13,1.5,13.5,6.7c0.5,4.1-1.9,6.9-5.3,7.8C195.7,142.2,199.6,144.2,200.1,148.6z
			 M182.3,135.8l-3.2,0.4l0.5,4l3.2-0.4c2.6-0.3,2.9-1.6,2.8-2.4S184.9,135.5,182.3,135.8z M188.1,148.5c-0.1-0.8-0.6-2-3-1.7
			l-4.7,0.5l0.5,4l4.7-0.5C187.9,150.5,188.2,149.2,188.1,148.5z"/>
		<path class="st21" d="M233.3,123.1l1.9,16.7c1.1,9.3-5.5,14.4-14.9,15.5c-9.3,1.1-16.9-2.4-18-11.8l-1.9-16.7
			c-0.1-0.6,0.3-1.1,0.9-1.1l9.6-1.1c0.6-0.1,1.1,0.3,1.1,0.9l1.6,14.1c0.5,4.3,2.3,6.7,5.6,6.3c3.3-0.4,4.5-3.1,4-7.4l-1.6-14.1
			c-0.1-0.6,0.3-1.1,0.9-1.1l9.6-1.1C232.8,122.2,233.3,122.6,233.3,123.1z"/>
		<path class="st21" d="M269.7,119.3l3.2,28.3c0.1,0.8-0.3,1.3-1.1,1.4l-3.4,0.4c-0.6,0.1-1.1,0-1.6-0.3l-16.8-10.1l1.3,11.1
			c0.1,0.8-0.3,1.3-1.1,1.4l-9.1,1c-0.8,0.1-1.3-0.3-1.4-1.1l-3.2-28.3c-0.1-0.8,0.3-1.3,1.1-1.4l3.4-0.4c0.6-0.1,1.1,0,1.6,0.3
			l16.8,10.2l-1.3-11.2c-0.1-0.8,0.3-1.3,1.1-1.4l9.1-1C269.1,118.1,269.6,118.5,269.7,119.3z"/>
		<path class="st21" d="M309.9,144.7l-9.9,1.1c-0.7,0.1-1.2-0.2-1.5-0.9l-1.5-3.2l-10,1.1l-0.7,3.4c-0.2,0.7-0.6,1.1-1.4,1.2l-9.2,1
			c-0.9,0.1-1.4-0.4-1.1-1.4l8.4-29.7c0.2-0.7,0.6-1,1.4-1.1l10.2-1.1c0.7-0.1,1.2,0.2,1.6,0.8l14.7,27.1
			C311.2,144,310.8,144.6,309.9,144.7z M293.6,135l-3.4-7l-1.6,7.6L293.6,135z"/>
		<path class="st21" d="M337.1,133.2l0.8,7.3c0.1,0.7-0.2,1.1-0.9,1.1l-17.1,1.9l-6.4,0.7c-0.6,0.1-1.1-0.3-1.1-0.9l-3.3-28.8
			c-0.1-0.6,0.3-1.1,0.9-1.1l9.6-1.1c0.6-0.1,1.1,0.3,1.1,0.9l2.3,20.5l12.9-1.5C336.6,132.2,337,132.5,337.1,133.2z"/>
	</g>
	<g>
		<path class="st21" d="M81.1,216.3c1.1,9.9-6.1,16.3-15.9,17.4l-9.9,1.1l-4.3,0.5c-0.6,0.1-1.1-0.3-1.1-0.9l-3.3-28.8
			c-0.1-0.6,0.3-1.1,0.9-1.1l9.6-1.1l4.5-0.5C71.5,201.8,80,206.5,81.1,216.3z M69,217.7c-0.5-4-3.3-6.3-6.8-5.9l-3,0.3l1.5,13.1
			l3-0.3C67.2,224.6,69.4,221.7,69,217.7z"/>
		<path class="st21" d="M111.6,220.6l0.8,6.8c0.1,0.7-0.2,1.1-0.9,1.1l-18.4,2.1l-6.4,0.7c-0.6,0.1-1.1-0.3-1.1-0.9l-3.3-28.8
			c-0.1-0.6,0.3-1.1,0.9-1.1l9.6-1.1l14.7-1.7c0.7-0.1,1.1,0.2,1.1,0.9l0.8,6.8c0.1,0.7-0.2,1.1-0.9,1.1l-13.7,1.5l0.3,2.5l11.7-1.3
			c0.7-0.1,1,0.2,1.1,0.9l0.7,5.8c0.1,0.7-0.2,1-0.9,1.1l-11.7,1.3l0.3,2.8l14.2-1.6C111.1,219.6,111.5,219.9,111.6,220.6z"/>
		<path class="st21" d="M140.8,214.7c0.9,7.6-6,11.7-13.7,12.6c-4.6,0.5-8.9-0.2-11.9-1.3c-0.7-0.3-0.9-1-0.7-1.7l1.9-5.8
			c0.2-0.7,0.6-1,1.5-0.8c2.9,0.9,4.8,1.4,7.8,1.1c1.9-0.2,3-0.7,2.9-1.4c-0.3-2.5-14.1,0.1-15.3-10.5c-0.7-6.4,3.9-10.9,12.2-11.9
			c5.2-0.6,9.8,0.4,11.5,1.2c0.4,0.2,1.1,0.6,0.7,1.6l-1.7,5.2c-0.3,0.8-0.9,1.1-1.7,0.8c-1.6-0.5-4.2-1.3-6.9-0.9
			c-2.1,0.2-2.8,0.8-2.7,1.4C125,206.3,139.6,203.8,140.8,214.7z"/>
		<path class="st21" d="M179.9,200.8c0.7,6.2-3.4,11.6-11.9,12.6l-4.5,0.5l0.9,7.6c0.1,0.6-0.3,1.1-0.9,1.1l-9.6,1.1
			c-0.6,0.1-1.1-0.3-1.1-0.9l-3.3-28.8c-0.1-0.6,0.3-1.1,0.9-1.1l9.6-1.1l5.6-0.6C174,190.2,179.2,194.7,179.9,200.8z M168.1,202.2
			c-0.1-1.3-1.2-2.7-3.6-2.4l-2.5,0.3l0.6,5.6l2.5-0.3C167.5,205,168.2,203.4,168.1,202.2z"/>
		<path class="st21" d="M212.3,217.1l-9.1,1c-0.4,0-0.8-0.2-1.1-0.5l-4.8-7.8l-2.6,0.3l0.9,7.9c0.1,0.6-0.3,1.1-0.9,1.1l-9.6,1.1
			c-0.6,0.1-1.1-0.3-1.1-0.9l-3.3-28.8c-0.1-0.6,0.3-1.1,0.9-1.1l9.6-1.1l5.3-0.6c8.5-1,13.7,3.3,14.4,9.5c0.4,3.4-0.7,6.6-3.2,8.9
			l5.7,8.7C214.1,215.8,213.6,217,212.3,217.1z M193.7,201.8l2-0.2c2.4-0.3,3.4-1.3,3.2-3c-0.2-1.8-1.5-2.5-3.8-2.2l-2,0.2
			L193.7,201.8z"/>
		<path class="st21" d="M242.1,205.8l0.8,6.8c0.1,0.7-0.2,1.1-0.9,1.1l-18.4,2.1l-6.4,0.7c-0.6,0.1-1.1-0.3-1.1-0.9l-3.3-28.8
			c-0.1-0.6,0.3-1.1,0.9-1.1l9.6-1.1L238,183c0.7-0.1,1.1,0.2,1.1,0.9l0.8,6.8c0.1,0.7-0.2,1.1-0.9,1.1l-13.7,1.5l0.3,2.5l11.7-1.3
			c0.7-0.1,1.1,0.2,1.1,0.9l0.7,5.8c0.1,0.7-0.2,1-0.9,1.1l-11.7,1.3l0.3,2.8l14.2-1.6C241.7,204.9,242,205.2,242.1,205.8z
			 M220.3,179.8c-0.4-0.6-0.1-1.4,0.5-1.8l9-6.6c0.6-0.4,1.4-0.2,1.7,0.4l2.4,3.8c0.4,0.7,0.3,1.5-0.4,1.8l-10,5
			c-0.7,0.3-1.4,0.2-1.8-0.4L220.3,179.8z"/>
		<path class="st21" d="M266.5,181.1l2.1,18.9c0.8,7.5-5.4,12.1-12.1,12.9c-6.8,0.8-11.2-2.6-12.4-4.3c-0.5-0.8-0.4-1.3,0.4-1.8
			l6.2-3.8c0.8-0.4,1.1-0.3,1.8,0.4c0.6,0.6,1.4,1.1,2.6,1c1.4-0.2,2.4-1.2,2.2-3.1l-2.1-18.9c-0.1-0.8,0.3-1.3,1.1-1.4l8.8-1
			C265.9,179.9,266.4,180.3,266.5,181.1z"/>
		<path class="st21" d="M302.3,176.8l1.9,16.7c1.1,9.3-5.5,14.4-14.9,15.5c-9.3,1.1-16.9-2.4-18-11.8l-1.9-16.7
			c-0.1-0.6,0.3-1.1,0.9-1.1l9.6-1.1c0.6-0.1,1.1,0.3,1.1,0.9l1.6,14.1c0.5,4.3,2.3,6.6,5.6,6.3c3.3-0.4,4.5-3.1,4-7.4l-1.6-14.1
			c-0.1-0.6,0.3-1.1,0.9-1.1l9.6-1.1C301.8,175.8,302.3,176.2,302.3,176.8z"/>
		<path class="st21" d="M339.7,189.4l1.1,9.7c-2.9,2.6-7.9,5.1-14.3,5.9c-10.1,1.1-18.6-4-19.8-14.1c-1.1-10.1,6-17.1,16.1-18.2
			c5.4-0.6,11.5,0.9,15,5.8c0.5,0.7,0.3,1.4-0.4,1.8l-6.8,4.2c-0.7,0.4-1.2,0.2-1.8-0.4c-1.4-1.5-2.9-2.3-5-2
			c-3.5,0.4-5.5,3.4-5,7.5c0.5,4,3,6.6,6.6,6.2c1.7-0.2,3-0.5,4.1-1l-0.5-4.1c-0.1-0.8,0.3-1.3,1.1-1.4l8-0.9
			C339.1,188.2,339.6,188.6,339.7,189.4z"/>
		<path class="st21" d="M370.2,191.4l0.8,6.8c0.1,0.7-0.2,1.1-0.9,1.1l-18.4,2.1l-6.4,0.7c-0.6,0.1-1.1-0.3-1.1-0.9l-3.3-28.8
			c-0.1-0.6,0.3-1.1,0.9-1.1l9.6-1.1l14.7-1.7c0.7-0.1,1,0.2,1.1,0.9l0.8,6.8c0.1,0.7-0.2,1.1-0.9,1.1l-13.7,1.5l0.3,2.5l11.7-1.3
			c0.7-0.1,1,0.2,1.1,0.9l0.7,5.8c0.1,0.7-0.2,1-0.9,1.1l-11.7,1.3l0.3,2.8l14.2-1.6C369.7,190.4,370.1,190.7,370.2,191.4z
			 M348.3,165.4c-0.4-0.6-0.1-1.4,0.5-1.8l9-6.6c0.6-0.4,1.4-0.2,1.7,0.4l2.4,3.8c0.4,0.7,0.3,1.5-0.4,1.8l-10,5
			c-0.7,0.3-1.4,0.2-1.8-0.4L348.3,165.4z"/>
		<path class="st21" d="M399.4,185.5c0.9,7.6-6,11.7-13.7,12.6c-4.6,0.5-8.9-0.2-11.9-1.3c-0.7-0.3-0.9-1-0.7-1.7l1.9-5.8
			c0.2-0.7,0.6-1,1.5-0.8c2.9,0.9,4.8,1.4,7.8,1.1c1.9-0.2,3-0.7,2.9-1.4c-0.3-2.5-14.1,0.1-15.3-10.5c-0.7-6.4,3.9-10.9,12.2-11.9
			c5.2-0.6,9.8,0.5,11.5,1.2c0.4,0.2,1.1,0.6,0.7,1.6l-1.7,5.2c-0.3,0.8-0.9,1.1-1.7,0.8c-1.6-0.5-4.2-1.3-6.9-0.9
			c-2.1,0.2-2.8,0.8-2.7,1.4C383.6,177.1,398.2,174.6,399.4,185.5z"/>
	</g>
</g>
</svg>
