<?xml version="1.0" encoding="utf-8"?>
<!-- Generator: Adobe Illustrator 22.0.0, SVG Export Plug-In . SVG Version: 6.00 Build 0)  -->
<svg version="1.1" xmlns="http://www.w3.org/2000/svg" xmlns:xlink="http://www.w3.org/1999/xlink" x="0px" y="0px"
	 viewBox="0 0 24 24" style="enable-background:new 0 0 24 24;" xml:space="preserve">
<style type="text/css">
	.st0{display:none;}
	.st1{display:inline;fill:url(#SVGID_1_);}
	.st2{fill:#f3d511;}
</style>
<g id="marker" class="st0">
	
		<linearGradient id="SVGID_1_" gradientUnits="userSpaceOnUse" x1="293.9095" y1="128.863" x2="284.5441" y2="114.9042" gradientTransform="matrix(0.8354 0.5877 -0.5605 0.8026 -154.2377 -251.8896)">
		<stop  offset="0" style="stop-color:#000000;stop-opacity:0.2"/>
		<stop  offset="1" style="stop-color:#000000;stop-opacity:0"/>
	</linearGradient>
	<path class="st1" d="M24.1,8.9c1.8,1.1,3.1,3,3.5,4.9c0.3,2.1,0.1,4-1.3,5.7c-1.3,1.7-3.6,3-5.8,3.3L12.1,24l-1.5-7.4
		c-0.4-1.9,0.1-4.1,1.5-5.9c1.3-1.7,3.1-2.7,5.6-3C19.9,7.4,22.3,7.8,24.1,8.9z"/>
</g>
<g id="Layer_2">
	<path class="st2" d="M12.1,0.3c2.4,0,4.9,1.1,6.6,2.9c1.8,2,2.9,4.2,2.9,6.8s-1.1,5.5-2.9,7.3L12.1,24l-6.6-6.8
		c-1.8-1.8-2.9-4.4-2.9-7.3c0-2.6,0.9-4.8,2.9-6.8C7.2,1.3,9.7,0.2,12.1,0.3z"/>
	<circle cx="12" cy="9.9" r="5"/>
</g>
</svg>
